M48
INCH,TZ
T1C0.0079
T2C0.0100
T3C0.0118
T4C0.0197
T5C0.0217
T6C0.0276
T7C0.0394
T8C0.0551
T9C0.0906
T10C0.1260
%
G90
G05
T1
X42146Y-35335
X42146Y-37106
X42146Y-44291
X42264Y-41713
X42382Y-39488
X42500Y-31500
X42638Y-33839
X43110Y-40748
X43169Y-39016
X43169Y-44488
X43287Y-42579
X43327Y-32165
X43327Y-35039
X43445Y-37480
X43858Y-33366
X43878Y-31181
X44134Y-38071
X44232Y-40512
X44449Y-35059
X44508Y-44429
X44606Y-33878
X44685Y-43012
X44941Y-32323
X45374Y-40472
X45472Y-33661
X45669Y-38563
X45709Y-30827
X45817Y-35659
X45866Y-42008
X46063Y-32244
X46398Y-44390
X46752Y-43012
X46791Y-33740
X47343Y-41949
X47362Y-39213
X47382Y-30925
X48071Y-32323
X48091Y-34626
X48268Y-35138
X48366Y-43642
X48386Y-38484
X48524Y-36535
X48583Y-30846
X48780Y-40571
X48878Y-28720
X48937Y-32323
X48957Y-31594
X48957Y-34941
X49114Y-37894
X49173Y-36516
X49488Y-34665
X49488Y-44724
X49744Y-32559
X49803Y-35551
X49862Y-42854
X49941Y-41831
X50059Y-28720
X50226Y-35896
X50256Y-28720
X50295Y-37264
X50375Y-36239
X50453Y-30256
X50492Y-38878
X50669Y-43130
X50689Y-39980
X50787Y-33150
X50866Y-31486
X51043Y-43917
X51181Y-33898
X51378Y-35925
X51378Y-40807
X51457Y-38484
X51516Y-37303
X51535Y-34646
X51594Y-39528
X51722Y-31545
X51841Y-32648
X51909Y-41181
X52224Y-42500
X52244Y-34823
X52244Y-38681
X52333Y-31575
X52382Y-37913
X52480Y-40492
X52677Y-34488
X52904Y-35778
X52933Y-41220
X53051Y-33799
X53051Y-37028
X53071Y-32402
X53071Y-33022
X53091Y-39508
X53543Y-39469
X53583Y-40000
X53602Y-40689
X54508Y-40689
X54547Y-40217
X55000Y-34724
X55098Y-32461
X55118Y-37165
X55138Y-34104
X55148Y-42234
X55177Y-41802
X55177Y-44154
X55178Y-41998
X55344Y-35217
X55551Y-37795
X55738Y-31565
X56161Y-32402
X56240Y-31585
X56300Y-40950
X56339Y-37283
X56357Y-44450
X56450Y-42200
X56496Y-34724
X56500Y-41550
X56550Y-40950
X56555Y-43947
X56634Y-32283
X56634Y-36447
X56650Y-42750
X56673Y-35492
X56752Y-43937
X56900Y-40950
X56909Y-42077
X56969Y-44035
X56998Y-36358
X57050Y-42750
X57156Y-43937
X57164Y-44450
X57264Y-37539
X57293Y-41683
X57300Y-40950
X57400Y-42350
X57500Y-32854
X57539Y-31555
X57539Y-43957
X57598Y-37205
X57600Y-42750
X57650Y-42077
X57736Y-33878
X57736Y-34882
X57736Y-36004
X57800Y-41000
X58050Y-42600
X58091Y-37500
X58100Y-41650
X58100Y-42200
X58189Y-33937
X58189Y-35039
X58189Y-36181
X58200Y-41050
X58209Y-43937
X58455Y-31526
X58661Y-36732
X58661Y-37421
X58730Y-35325
X58937Y-43661
X58957Y-32500
X59055Y-34921
X59232Y-33858
X59283Y-43386
X59331Y-41988
X59331Y-42195
X59331Y-42392
X59331Y-42589
X59350Y-36093
X59508Y-44094
X59567Y-37362
X59980Y-34390
X60098Y-42264
X60236Y-32677
X60236Y-37421
X60463Y-36900
X60630Y-44370
X60965Y-42972
X61063Y-42303
X61063Y-43661
X61260Y-34557
X61329Y-32687
X61329Y-33819
X61348Y-35787
X61417Y-44449
X61437Y-36939
X61614Y-41762
X62106Y-39380
X62165Y-42323
X62283Y-42677
X62441Y-41742
X62559Y-43514
X62579Y-39724
X62756Y-40551
X63002Y-43504
X63199Y-41811
X63258Y-37195
X63287Y-42657
X63346Y-40787
X63376Y-36565
X63396Y-35876
X63406Y-45492
X63425Y-32441
X63543Y-34154
X63553Y-39537
X63583Y-43819
X63612Y-33110
X63760Y-45079
X63839Y-41801
X63937Y-42343
X63996Y-40374
X64144Y-38091
X64163Y-35945
X64193Y-37431
X64252Y-44587
X64331Y-39390
X64429Y-43937
X64488Y-34488
X64705Y-38406
X64744Y-32697
X64744Y-38976
X65000Y-44685
X65256Y-44675
X65276Y-43917
X66289Y-35217
X66427Y-30197
X66427Y-38819
X66496Y-29567
X66680Y-42889
X66870Y-33916
X66870Y-42126
X67017Y-31802
X67121Y-35845
X67185Y-32165
X67205Y-35571
X67224Y-37776
X67234Y-41117
X67244Y-36398
X67283Y-31909
X67372Y-41762
X67648Y-31654
X67776Y-31949
X67874Y-44843
X67913Y-31654
X67950Y-28400
X67950Y-30600
X67992Y-29370
X68061Y-35325
X68100Y-37590
X68110Y-36575
X68120Y-36988
X68120Y-37303
X68140Y-30108
X68228Y-35433
X68302Y-36620
X68425Y-30276
X68425Y-33622
X68504Y-41732
X68622Y-33602
X68691Y-31319
X68701Y-41693
X68819Y-33602
X68819Y-38110
X68878Y-38976
X69213Y-34646
X69404Y-29931
X69409Y-34488
X69488Y-35669
X69528Y-36142
X69606Y-38947
X69724Y-36142
X69786Y-38071
X69862Y-31250
X70000Y-38091
X70089Y-31122
X70160Y-30410
X70197Y-38100
X70394Y-38100
X70502Y-31033
X70600Y-38091
X70650Y-30886
X70807Y-33602
X70902Y-41289
X70945Y-35276
X71033Y-41437
X71201Y-33612
X71339Y-36811
X71614Y-36575
X71664Y-35181
X71683Y-35404
X71693Y-36949
X71909Y-41026
X72047Y-42047
X72350Y-30740
X72381Y-35825
X72539Y-36457
X72597Y-35592
X72598Y-36024
X72598Y-36969
X72598Y-37362
X72601Y-36644
X72992Y-37165
X74388Y-41870
X74450Y-31000
X75000Y-34213
X75197Y-30866
X75433Y-33602
X76120Y-44430
X76142Y-41732
X76358Y-37972
X76378Y-34449
X76811Y-30866
X76969Y-33425
X77146Y-36152
X77850Y-36650
X78583Y-35787
X78780Y-35433
X78976Y-36122
X79016Y-37441
X79073Y-35373
X79232Y-38268
X79430Y-44210
X80197Y-36142
X80492Y-38661
X81043Y-37461
X83098Y-37087
X83105Y-37289
X83110Y-36102
X83110Y-36299
X83110Y-36496
X83110Y-36693
X83110Y-36890
X83130Y-38681
X83143Y-38109
X83920Y-33190
T2
X67165Y-28980
X67475Y-28980
T3
X50059Y-29567
X50866Y-28406
X53760Y-41220
X53858Y-42264
X55148Y-43012
X55167Y-42589
X55167Y-41220
X55571Y-45098
X55650Y-39822
X56347Y-45070
X56364Y-39807
X57126Y-45650
X57348Y-39797
X57520Y-45650
X57933Y-39803
X58012Y-44094
X58209Y-45650
X58406Y-44094
X58622Y-45689
X58780Y-44094
X58996Y-45689
X59159Y-44021
X59291Y-44350
X59291Y-45000
X59370Y-45689
X59382Y-41757
X59425Y-43755
X59628Y-40189
X59705Y-43937
X59724Y-45689
X59921Y-43110
X60047Y-40872
X62362Y-45531
X63300Y-46550
X64252Y-31654
X65250Y-40450
X65551Y-35827
X66000Y-36550
X67338Y-30575
X68127Y-29715
X68150Y-36000
X68850Y-45200
X68900Y-46050
X68946Y-33238
X68950Y-43650
X68950Y-44200
X68950Y-44750
X68950Y-45600
X69225Y-39025
X69350Y-44150
X69400Y-38050
X69500Y-46000
X69638Y-40363
X69650Y-44150
X69950Y-46000
X70039Y-34518
X70100Y-43650
X70100Y-44150
X70394Y-34531
X70500Y-46000
X70750Y-44150
X71000Y-43650
X71000Y-45550
X71000Y-46000
X71050Y-44750
X71050Y-45200
X71220Y-44154
X71659Y-34866
X71800Y-30820
X72400Y-43250
X72710Y-31590
X72750Y-38177
X73050Y-46100
X73080Y-28000
X73189Y-37795
X73228Y-35030
X73300Y-42450
X73400Y-30800
X73425Y-45335
X73450Y-34508
X73750Y-39350
X73798Y-37264
X73957Y-44114
X74458Y-32642
X74500Y-36280
X74715Y-33022
X75250Y-40450
X75350Y-43900
X75571Y-45965
X75750Y-42350
X75866Y-34252
X76820Y-42510
X76900Y-43850
X77350Y-44000
X77400Y-32450
X77800Y-42400
X77850Y-44900
X77900Y-45250
X78150Y-30150
X78150Y-44700
X78200Y-31150
X78350Y-45250
X78450Y-44700
X78543Y-33622
X78600Y-43300
X78750Y-45100
X78800Y-44700
X78850Y-42200
X79330Y-42750
X79400Y-44850
X79400Y-45200
X79547Y-38169
X79646Y-34823
X79650Y-42750
X79700Y-44850
X79700Y-45200
X79843Y-38642
X80000Y-42750
X80000Y-44850
X80000Y-45150
X80100Y-42150
X80300Y-44850
X80300Y-45150
X80350Y-42750
X80450Y-44150
X80500Y-46100
X80700Y-43700
X81063Y-35256
X81083Y-38051
X81142Y-39370
X81143Y-36713
X82386Y-37886
X83900Y-40500
T4
X37055Y-29000
X37055Y-45000
X37332Y-28332
X37332Y-29668
X37332Y-44332
X37332Y-45668
X38000Y-28055
X38000Y-29945
X38000Y-44055
X38000Y-45945
X38668Y-28332
X38668Y-29668
X38668Y-44332
X38668Y-45668
X38945Y-29000
X38945Y-45000
X52055Y-29000
X52110Y-45000
X52332Y-28332
X52332Y-29668
X52387Y-44332
X52387Y-45668
X53000Y-28055
X53000Y-29945
X53055Y-44055
X53055Y-45945
X53668Y-28332
X53668Y-29668
X53723Y-44332
X53723Y-45668
X53945Y-29000
X54000Y-45000
X65400Y-34600
X66050Y-38100
X66750Y-34600
X67750Y-39400
X69100Y-37300
X71300Y-31250
X74720Y-44265
X76120Y-45740
X77020Y-45740
X81713Y-36339
X82055Y-29000
X82055Y-45000
X82332Y-28332
X82332Y-29668
X82332Y-44332
X82332Y-45668
X83000Y-28055
X83000Y-29945
X83000Y-44055
X83000Y-45945
X83150Y-39900
X83550Y-34650
X83550Y-35450
X83550Y-36250
X83550Y-37050
X83550Y-37850
X83550Y-38650
X83668Y-28332
X83668Y-29668
X83668Y-44332
X83668Y-45668
X83945Y-29000
X83945Y-45000
T6
X47000Y-33209
X47000Y-34193
X47000Y-34980
X47000Y-35965
X47551Y-33012
X47551Y-33799
X47551Y-34587
X47551Y-35374
X47551Y-36161
X54000Y-33209
X54000Y-34193
X54000Y-34980
X54000Y-35965
X54551Y-33012
X54551Y-33799
X54551Y-34587
X54551Y-35374
X54551Y-36161
X61890Y-32980
X61890Y-33768
X61890Y-34555
X61890Y-35343
X61890Y-36130
X62441Y-33177
X62441Y-34161
X62441Y-34949
X62441Y-35933
T7
X62323Y-28740
X63323Y-28740
X69660Y-28720
X70660Y-28720
X75910Y-28720
X76910Y-28720
X77910Y-28720
X78910Y-28720
X79910Y-28720
T8
X70000Y-45000
X72165Y-45000
T9
X47000Y-32000
X47000Y-37173
X54000Y-32000
X54000Y-37173
X62441Y-31969
X62441Y-37142
T10
X38000Y-29000
X38000Y-45000
X53000Y-29000
X53055Y-45000
X83000Y-29000
X83000Y-45000
T5
G00X63733Y-46115
M15
G01X64165Y-46115
M16
G05
T0
M30
