G04 #@! TF.GenerationSoftware,KiCad,Pcbnew,(5.1.9-0-10_14)*
G04 #@! TF.CreationDate,2021-02-19T17:06:03+01:00*
G04 #@! TF.ProjectId,base-plane,62617365-2d70-46c6-916e-652e6b696361,rev?*
G04 #@! TF.SameCoordinates,Original*
G04 #@! TF.FileFunction,Copper,L6,Bot*
G04 #@! TF.FilePolarity,Positive*
%FSLAX46Y46*%
G04 Gerber Fmt 4.6, Leading zero omitted, Abs format (unit mm)*
G04 Created by KiCad (PCBNEW (5.1.9-0-10_14)) date 2021-02-19 17:06:03*
%MOMM*%
%LPD*%
G01*
G04 APERTURE LIST*
G04 #@! TA.AperFunction,ComponentPad*
%ADD10R,1.000000X1.000000*%
G04 #@! TD*
G04 #@! TA.AperFunction,SMDPad,CuDef*
%ADD11R,0.300000X1.000000*%
G04 #@! TD*
G04 #@! TA.AperFunction,ComponentPad*
%ADD12C,0.800000*%
G04 #@! TD*
G04 #@! TA.AperFunction,ComponentPad*
%ADD13C,6.400000*%
G04 #@! TD*
G04 #@! TA.AperFunction,ComponentPad*
%ADD14O,1.700000X1.700000*%
G04 #@! TD*
G04 #@! TA.AperFunction,ComponentPad*
%ADD15R,1.700000X1.700000*%
G04 #@! TD*
G04 #@! TA.AperFunction,ComponentPad*
%ADD16C,0.508000*%
G04 #@! TD*
G04 #@! TA.AperFunction,ComponentPad*
%ADD17C,1.000000*%
G04 #@! TD*
G04 #@! TA.AperFunction,ComponentPad*
%ADD18C,2.800000*%
G04 #@! TD*
G04 #@! TA.AperFunction,ComponentPad*
%ADD19O,1.900000X0.950000*%
G04 #@! TD*
G04 #@! TA.AperFunction,ComponentPad*
%ADD20O,3.300000X2.700000*%
G04 #@! TD*
G04 #@! TA.AperFunction,ViaPad*
%ADD21C,0.400000*%
G04 #@! TD*
G04 #@! TA.AperFunction,ViaPad*
%ADD22C,0.600000*%
G04 #@! TD*
G04 #@! TA.AperFunction,Conductor*
%ADD23C,1.000000*%
G04 #@! TD*
G04 #@! TA.AperFunction,Conductor*
%ADD24C,0.300000*%
G04 #@! TD*
G04 #@! TA.AperFunction,Conductor*
%ADD25C,0.100000*%
G04 #@! TD*
G04 #@! TA.AperFunction,Conductor*
%ADD26C,0.254000*%
G04 #@! TD*
G04 #@! TA.AperFunction,Conductor*
%ADD27C,0.150000*%
G04 #@! TD*
G04 APERTURE END LIST*
D10*
G04 #@! TO.P,TP19,1*
G04 #@! TO.N,SMBUSZ*
X172085000Y-100076000D03*
G04 #@! TD*
G04 #@! TO.P,TP18,1*
G04 #@! TO.N,FULLPWRMGMTZ*
X167767000Y-96774000D03*
G04 #@! TD*
G04 #@! TO.P,TP16,1*
G04 #@! TO.N,HS_UP*
X166116000Y-87884000D03*
G04 #@! TD*
G04 #@! TO.P,TP15,1*
G04 #@! TO.N,HS_SUSPEND*
X175514000Y-94742000D03*
G04 #@! TD*
G04 #@! TO.P,TP13,1*
G04 #@! TO.N,Net-(C41-Pad1)*
X169545000Y-87884000D03*
G04 #@! TD*
G04 #@! TO.P,TP12,1*
G04 #@! TO.N,Net-(C38-Pad1)*
X181102000Y-79375000D03*
G04 #@! TD*
G04 #@! TO.P,TP11,1*
G04 #@! TO.N,/controller/DISPLAY_SDA*
X211201000Y-101346000D03*
G04 #@! TD*
G04 #@! TO.P,TP10,1*
G04 #@! TO.N,/controller/DISPLAY_SCL*
X212217000Y-98171000D03*
G04 #@! TD*
G04 #@! TO.P,TP9,1*
G04 #@! TO.N,/controller/DISPLAY_CS*
X212217000Y-96139000D03*
G04 #@! TD*
G04 #@! TO.P,TP8,1*
G04 #@! TO.N,/controller/DISPLAY_DC*
X212217000Y-94107000D03*
G04 #@! TD*
G04 #@! TO.P,TP7,1*
G04 #@! TO.N,/controller/DISPLAY_RESET*
X212217000Y-92075000D03*
G04 #@! TD*
G04 #@! TO.P,TP6,1*
G04 #@! TO.N,/controller/DISPLAY_BUSY*
X212217000Y-90043000D03*
G04 #@! TD*
G04 #@! TO.P,TP1,1*
G04 #@! TO.N,/controller/DISPLAY_BS*
X212217000Y-88011000D03*
G04 #@! TD*
D11*
G04 #@! TO.P,J12,20*
G04 #@! TO.N,GND*
X128650000Y-72150000D03*
G04 #@! TO.P,J12,18*
G04 #@! TO.N,M-*
X128150000Y-72150000D03*
G04 #@! TO.P,J12,16*
G04 #@! TO.N,SDA*
X127650000Y-72150000D03*
G04 #@! TO.P,J12,14*
G04 #@! TO.N,SCL*
X127150000Y-72150000D03*
G04 #@! TO.P,J12,12*
G04 #@! TO.N,/controller/XY11*
X126650000Y-72150000D03*
G04 #@! TO.P,J12,10*
G04 #@! TO.N,/controller/XY10*
X126150000Y-72150000D03*
G04 #@! TO.P,J12,8*
G04 #@! TO.N,/controller/XY9*
X125650000Y-72150000D03*
G04 #@! TO.P,J12,6*
G04 #@! TO.N,/controller/XY8*
X125150000Y-72150000D03*
G04 #@! TO.P,J12,4*
G04 #@! TO.N,/controller/XY7*
X124650000Y-72150000D03*
G04 #@! TO.P,J12,2*
G04 #@! TO.N,/controller/XY6*
X124150000Y-72150000D03*
G04 #@! TO.P,J12,19*
G04 #@! TO.N,N/C*
X128650000Y-76050000D03*
G04 #@! TO.P,J12,17*
G04 #@! TO.N,M+*
X128150000Y-76050000D03*
G04 #@! TO.P,J12,15*
G04 #@! TO.N,/controller/Touch_GPIO*
X127650000Y-76050000D03*
G04 #@! TO.P,J12,13*
G04 #@! TO.N,+3V3*
X127150000Y-76050000D03*
G04 #@! TO.P,J12,11*
G04 #@! TO.N,/controller/XY5*
X126650000Y-76050000D03*
G04 #@! TO.P,J12,9*
G04 #@! TO.N,/controller/XY4*
X126150000Y-76050000D03*
G04 #@! TO.P,J12,7*
G04 #@! TO.N,/controller/XY3*
X125650000Y-76050000D03*
G04 #@! TO.P,J12,5*
G04 #@! TO.N,/controller/XY2*
X125150000Y-76050000D03*
G04 #@! TO.P,J12,3*
G04 #@! TO.N,/controller/XY1*
X124650000Y-76050000D03*
G04 #@! TO.P,J12,1*
G04 #@! TO.N,/controller/XY0*
X124150000Y-76050000D03*
G04 #@! TD*
D12*
G04 #@! TO.P,H6,1*
G04 #@! TO.N,GNDPWR*
X136457056Y-112602944D03*
X134760000Y-111900000D03*
X133062944Y-112602944D03*
X132360000Y-114300000D03*
X133062944Y-115997056D03*
X134760000Y-116700000D03*
X136457056Y-115997056D03*
X137160000Y-114300000D03*
D13*
X134760000Y-114300000D03*
G04 #@! TD*
D12*
G04 #@! TO.P,H5,1*
G04 #@! TO.N,GNDPWR*
X136317056Y-71962944D03*
X134620000Y-71260000D03*
X132922944Y-71962944D03*
X132220000Y-73660000D03*
X132922944Y-75357056D03*
X134620000Y-76060000D03*
X136317056Y-75357056D03*
X137020000Y-73660000D03*
D13*
X134620000Y-73660000D03*
G04 #@! TD*
D14*
G04 #@! TO.P,J11,5*
G04 #@! TO.N,GND*
X202971400Y-72948800D03*
G04 #@! TO.P,J11,4*
G04 #@! TO.N,+3V3*
X200431400Y-72948800D03*
G04 #@! TO.P,J11,3*
G04 #@! TO.N,Test2*
X197891400Y-72948800D03*
G04 #@! TO.P,J11,2*
G04 #@! TO.N,/controller/Test1*
X195351400Y-72948800D03*
D15*
G04 #@! TO.P,J11,1*
G04 #@! TO.N,/controller/Test0*
X192811400Y-72948800D03*
G04 #@! TD*
D16*
G04 #@! TO.P,U5,V*
G04 #@! TO.N,N/C*
X171386500Y-73609200D03*
X170599100Y-73609200D03*
G04 #@! TD*
D10*
G04 #@! TO.P,TP5,1*
G04 #@! TO.N,/user_interface/VDD_Display*
X207550000Y-92300000D03*
G04 #@! TD*
G04 #@! TO.P,TP4,1*
G04 #@! TO.N,Net-(C21-Pad1)*
X193344800Y-116179600D03*
G04 #@! TD*
G04 #@! TO.P,TP3,1*
G04 #@! TO.N,Net-(C20-Pad1)*
X195630800Y-116179600D03*
G04 #@! TD*
G04 #@! TO.P,TP2,1*
G04 #@! TO.N,+5V*
X189788800Y-112433100D03*
G04 #@! TD*
D14*
G04 #@! TO.P,M1,2*
G04 #@! TO.N,M-*
X160840000Y-73000000D03*
D15*
G04 #@! TO.P,M1,1*
G04 #@! TO.N,M+*
X158300000Y-73000000D03*
G04 #@! TD*
D14*
G04 #@! TO.P,J10,2*
G04 #@! TO.N,SCL*
X179476400Y-72948800D03*
D15*
G04 #@! TO.P,J10,1*
G04 #@! TO.N,SDA*
X176936400Y-72948800D03*
G04 #@! TD*
D17*
G04 #@! TO.P,J8,5*
G04 #@! TO.N,/hub/USB_SSRXM_DN3*
X120780000Y-91850000D03*
G04 #@! TO.P,J8,6*
G04 #@! TO.N,/hub/USB_SSRXP_DN3*
X120780000Y-89850000D03*
G04 #@! TO.P,J8,7*
G04 #@! TO.N,GND*
X120780000Y-87850000D03*
G04 #@! TO.P,J8,8*
G04 #@! TO.N,Net-(C13-Pad1)*
X120780000Y-85850000D03*
G04 #@! TO.P,J8,9*
G04 #@! TO.N,Net-(C11-Pad1)*
X120780000Y-83850000D03*
G04 #@! TO.P,J8,4*
G04 #@! TO.N,GND*
X119380000Y-91350000D03*
G04 #@! TO.P,J8,3*
G04 #@! TO.N,/hub/USB_DP_DN3*
X119380000Y-88850000D03*
G04 #@! TO.P,J8,2*
G04 #@! TO.N,/hub/USB_DM_DN3*
X119380000Y-86850000D03*
G04 #@! TO.P,J8,1*
G04 #@! TO.N,+5V*
X119380000Y-84350000D03*
D18*
G04 #@! TO.P,J8,10*
G04 #@! TO.N,GNDPWR*
X119380000Y-94420000D03*
X119380000Y-81280000D03*
G04 #@! TD*
D17*
G04 #@! TO.P,J7,5*
G04 #@! TO.N,/hub/USB_SSRXM_DN1*
X157200000Y-83770000D03*
G04 #@! TO.P,J7,6*
G04 #@! TO.N,/hub/USB_SSRXP_DN1*
X157200000Y-85770000D03*
G04 #@! TO.P,J7,7*
G04 #@! TO.N,GND*
X157200000Y-87770000D03*
G04 #@! TO.P,J7,8*
G04 #@! TO.N,Net-(C12-Pad1)*
X157200000Y-89770000D03*
G04 #@! TO.P,J7,9*
G04 #@! TO.N,Net-(C10-Pad1)*
X157200000Y-91770000D03*
G04 #@! TO.P,J7,4*
G04 #@! TO.N,GND*
X158600000Y-84270000D03*
G04 #@! TO.P,J7,3*
G04 #@! TO.N,/hub/USB_DP_DN1*
X158600000Y-86770000D03*
G04 #@! TO.P,J7,2*
G04 #@! TO.N,/hub/USB_DM_DN1*
X158600000Y-88770000D03*
G04 #@! TO.P,J7,1*
G04 #@! TO.N,+5V*
X158600000Y-91270000D03*
D18*
G04 #@! TO.P,J7,10*
G04 #@! TO.N,GNDPWR*
X158600000Y-81200000D03*
X158600000Y-94340000D03*
G04 #@! TD*
D17*
G04 #@! TO.P,J3,5*
G04 #@! TO.N,/hub/USB_SSRXM_DN2*
X138560000Y-91850000D03*
G04 #@! TO.P,J3,6*
G04 #@! TO.N,/hub/USB_SSRXP_DN2*
X138560000Y-89850000D03*
G04 #@! TO.P,J3,7*
G04 #@! TO.N,GND*
X138560000Y-87850000D03*
G04 #@! TO.P,J3,8*
G04 #@! TO.N,Net-(C8-Pad1)*
X138560000Y-85850000D03*
G04 #@! TO.P,J3,9*
G04 #@! TO.N,Net-(C9-Pad1)*
X138560000Y-83850000D03*
G04 #@! TO.P,J3,4*
G04 #@! TO.N,GND*
X137160000Y-91350000D03*
G04 #@! TO.P,J3,3*
G04 #@! TO.N,/hub/USB_DP_DN2*
X137160000Y-88850000D03*
G04 #@! TO.P,J3,2*
G04 #@! TO.N,/hub/USB_DM_DN2*
X137160000Y-86850000D03*
G04 #@! TO.P,J3,1*
G04 #@! TO.N,+5V*
X137160000Y-84350000D03*
D18*
G04 #@! TO.P,J3,10*
G04 #@! TO.N,GNDPWR*
X137160000Y-94420000D03*
X137160000Y-81280000D03*
G04 #@! TD*
D19*
G04 #@! TO.P,J2,11*
G04 #@! TO.N,GNDPWR*
X162430000Y-117132600D03*
G04 #@! TD*
G04 #@! TO.P,J1,1*
G04 #@! TO.N,GND*
G04 #@! TA.AperFunction,ComponentPad*
G36*
G01*
X179199999Y-115650000D02*
X176400001Y-115650000D01*
G75*
G02*
X176150000Y-115399999I0J250001D01*
G01*
X176150000Y-113200001D01*
G75*
G02*
X176400001Y-112950000I250001J0D01*
G01*
X179199999Y-112950000D01*
G75*
G02*
X179450000Y-113200001I0J-250001D01*
G01*
X179450000Y-115399999D01*
G75*
G02*
X179199999Y-115650000I-250001J0D01*
G01*
G37*
G04 #@! TD.AperFunction*
D20*
G04 #@! TO.P,J1,2*
G04 #@! TO.N,Net-(F1-Pad2)*
X183300000Y-114300000D03*
G04 #@! TD*
D12*
G04 #@! TO.P,H4,1*
G04 #@! TO.N,GNDPWR*
X94822944Y-75357056D03*
X96520000Y-76060000D03*
X98217056Y-75357056D03*
X98920000Y-73660000D03*
X98217056Y-71962944D03*
X96520000Y-71260000D03*
X94822944Y-71962944D03*
X94120000Y-73660000D03*
D13*
X96520000Y-73660000D03*
G04 #@! TD*
D12*
G04 #@! TO.P,H3,1*
G04 #@! TO.N,GNDPWR*
X98217056Y-115997056D03*
X98920000Y-114300000D03*
X98217056Y-112602944D03*
X96520000Y-111900000D03*
X94822944Y-112602944D03*
X94120000Y-114300000D03*
X94822944Y-115997056D03*
X96520000Y-116700000D03*
D13*
X96520000Y-114300000D03*
G04 #@! TD*
D12*
G04 #@! TO.P,H2,1*
G04 #@! TO.N,GNDPWR*
X209122944Y-115997056D03*
X210820000Y-116700000D03*
X212517056Y-115997056D03*
X213220000Y-114300000D03*
X212517056Y-112602944D03*
X210820000Y-111900000D03*
X209122944Y-112602944D03*
X208420000Y-114300000D03*
D13*
X210820000Y-114300000D03*
G04 #@! TD*
D12*
G04 #@! TO.P,H1,1*
G04 #@! TO.N,GNDPWR*
X209122944Y-75357056D03*
X210820000Y-76060000D03*
X212517056Y-75357056D03*
X213220000Y-73660000D03*
X212517056Y-71962944D03*
X210820000Y-71260000D03*
X209122944Y-71962944D03*
X208420000Y-73660000D03*
D13*
X210820000Y-73660000D03*
G04 #@! TD*
D21*
G04 #@! TO.N,GNDPWR*
X213156800Y-84302600D03*
D22*
X213106000Y-102870000D03*
X160782000Y-118237000D03*
D21*
G04 #@! TO.N,GND*
X145525000Y-105875000D03*
X146431000Y-106875000D03*
X145796000Y-107569000D03*
X144550000Y-106875000D03*
X143510000Y-105537000D03*
X143383000Y-107188000D03*
X143891000Y-108585000D03*
X144907000Y-108585000D03*
X146304000Y-108585000D03*
X147447000Y-108204000D03*
X147574000Y-107188000D03*
X147574000Y-105791000D03*
X147828000Y-104267000D03*
X146812000Y-104140000D03*
X145542000Y-104013000D03*
X144526000Y-104013000D03*
X143637000Y-104013000D03*
X143002000Y-104013000D03*
D22*
X191389000Y-111506000D03*
X197739000Y-114046000D03*
X198501000Y-113538000D03*
X199263000Y-113538000D03*
X200152000Y-113538000D03*
X184683400Y-80238600D03*
X182372000Y-78282800D03*
X185623200Y-71120000D03*
X195122800Y-107975400D03*
X197866000Y-114935000D03*
X199009000Y-114935000D03*
X200025000Y-114554000D03*
X196469000Y-111760000D03*
X195326000Y-111379000D03*
X204470000Y-117094000D03*
X176530000Y-116840000D03*
X177673000Y-116840000D03*
X179070000Y-116840000D03*
X180340000Y-116840000D03*
X180340000Y-115697000D03*
X180467000Y-114808000D03*
X180467000Y-113665000D03*
X180900000Y-112150000D03*
X179705000Y-112141000D03*
X178054000Y-112141000D03*
X176911000Y-112141000D03*
X176149000Y-112141000D03*
X175133000Y-112268000D03*
X175133000Y-113665000D03*
X174879000Y-114808000D03*
X175133000Y-115824000D03*
X175006000Y-116967000D03*
X175133000Y-110871000D03*
X178054000Y-110871000D03*
X180340000Y-110871000D03*
X197612000Y-107696000D03*
X199644000Y-109982000D03*
X204343000Y-112141000D03*
X204978000Y-110998000D03*
X203454000Y-107061000D03*
X200279000Y-107188000D03*
X185547000Y-117094000D03*
X183896000Y-109855000D03*
X186182000Y-107823000D03*
X192405000Y-107569000D03*
X187325000Y-99949000D03*
X191135000Y-102743000D03*
X176879250Y-102520750D03*
X176276000Y-96647000D03*
X173101000Y-91440000D03*
X167640000Y-92837000D03*
X198628000Y-79121000D03*
X198501000Y-76581000D03*
X165735000Y-102743000D03*
X173043010Y-75476200D03*
X184785000Y-96970010D03*
X206100000Y-100000000D03*
X205950000Y-96650000D03*
X205900000Y-89550000D03*
X202800000Y-98150000D03*
X202300000Y-88450000D03*
X206102377Y-93249990D03*
X187445750Y-94649990D03*
X129200000Y-72150000D03*
X150600000Y-114300000D03*
X143122000Y-114478000D03*
X141150000Y-114550000D03*
X186563000Y-87650010D03*
X182013100Y-88559687D03*
X175123858Y-84425010D03*
X191950000Y-116750000D03*
X186500000Y-115150000D03*
D21*
G04 #@! TO.N,/hub/USB_SSTXM_UP*
X150700000Y-106650000D03*
X160025000Y-110500000D03*
G04 #@! TO.N,/hub/USB_SSTXP_UP*
X150700000Y-107175000D03*
X158900000Y-110525000D03*
D22*
G04 #@! TO.N,+5V*
X189774998Y-83875000D03*
D21*
G04 #@! TO.N,Net-(C21-Pad1)*
X201752200Y-112293400D03*
D22*
G04 #@! TO.N,1V1_Rail*
X147350000Y-112000000D03*
X148350000Y-112000000D03*
X149300000Y-112000000D03*
X150263500Y-111813500D03*
X150938500Y-111138500D03*
X151650000Y-111600000D03*
X150600000Y-112650000D03*
X143164986Y-101109042D03*
X140124000Y-108176000D03*
X147150000Y-101100000D03*
X150829123Y-106064046D03*
X140125000Y-104700000D03*
X145665000Y-101085000D03*
G04 #@! TO.N,3V3_Rail*
X141351000Y-101149000D03*
X151455501Y-102080501D03*
D21*
X145197000Y-112903000D03*
X143147000Y-112903000D03*
D22*
X152200000Y-109500000D03*
D21*
G04 #@! TO.N,nRESET*
X183769000Y-78079600D03*
G04 #@! TO.N,+3V3*
X178206400Y-77241400D03*
D22*
X201498200Y-108585000D03*
X202311000Y-108585000D03*
X203200000Y-108585000D03*
X204089000Y-108585000D03*
X186436000Y-78232000D03*
X196596000Y-82423000D03*
X202050000Y-96950000D03*
X199500000Y-85400000D03*
X192700000Y-87000000D03*
X185900000Y-96000000D03*
X189230000Y-92150010D03*
X127150000Y-75100000D03*
X175831500Y-99123500D03*
X186000000Y-88975000D03*
X189123787Y-82910213D03*
X146100000Y-115950000D03*
X145100000Y-115950000D03*
X136800000Y-107350000D03*
D21*
G04 #@! TO.N,Net-(C57-Pad1)*
X204450000Y-98200000D03*
X211150000Y-98250000D03*
X203700000Y-91800000D03*
G04 #@! TO.N,Net-(C58-Pad2)*
X205850000Y-95150000D03*
X211182983Y-96796258D03*
D22*
G04 #@! TO.N,+1V1*
X202438000Y-114808000D03*
X201676000Y-114808000D03*
X201676000Y-113919000D03*
X202438000Y-113919000D03*
X203200000Y-113919000D03*
X203962000Y-113919000D03*
X203962000Y-114681000D03*
X203200000Y-114681000D03*
X150800000Y-116050000D03*
X149850000Y-116050000D03*
X151700000Y-116050000D03*
X147850000Y-115950000D03*
X148900000Y-116050000D03*
D21*
G04 #@! TO.N,/hub/USB_DM_UP*
X150700000Y-107675000D03*
X165750000Y-113475000D03*
G04 #@! TO.N,/hub/USB_DP_UP*
X150700000Y-108175000D03*
X165100000Y-113500000D03*
G04 #@! TO.N,/controller/HUB_Reset1*
X181900000Y-92900000D03*
G04 #@! TO.N,/controller/HUB_SCL2*
X188944568Y-106350010D03*
X174000000Y-106000000D03*
G04 #@! TO.N,/controller/HUB_Reset2*
X184400000Y-91500000D03*
G04 #@! TO.N,/controller/HUB_SDA2*
X193400000Y-106000000D03*
X174500000Y-105900000D03*
G04 #@! TO.N,DEBUG_RXD*
X191000000Y-78400000D03*
X191600000Y-85350010D03*
G04 #@! TO.N,DEBUG_TXD*
X195500000Y-84900000D03*
X195100000Y-78400000D03*
G04 #@! TO.N,SCL*
X200100000Y-90000000D03*
X173300000Y-90000000D03*
X173800000Y-76900000D03*
X127150000Y-72950000D03*
X127575000Y-91175000D03*
X144150000Y-111600000D03*
X144775000Y-92350000D03*
G04 #@! TO.N,SDA*
X199600000Y-90900000D03*
X176500000Y-90600000D03*
X176286494Y-76025229D03*
X127650000Y-72950000D03*
X143650000Y-111625000D03*
X127952505Y-92047495D03*
X143850000Y-92575000D03*
G04 #@! TO.N,Test2*
X197739000Y-93091000D03*
G04 #@! TO.N,/controller/XY6*
X124150000Y-72950000D03*
G04 #@! TO.N,/controller/DISPLAY_SDA*
X185400000Y-94400000D03*
G04 #@! TO.N,/controller/DISPLAY_SCL*
X211068150Y-94201004D03*
X184400000Y-94900000D03*
G04 #@! TO.N,/controller/DISPLAY_CS*
X211100000Y-93700000D03*
X184400000Y-93900000D03*
G04 #@! TO.N,/controller/DISPLAY_DC*
X211100000Y-93200000D03*
X181200000Y-93500000D03*
G04 #@! TO.N,/controller/DISPLAY_RESET*
X211100000Y-92700000D03*
G04 #@! TO.N,/controller/DISPLAY_BUSY*
X211100000Y-92200000D03*
G04 #@! TO.N,/controller/DISPLAY_BS*
X211100000Y-91700000D03*
X180200000Y-89600000D03*
G04 #@! TO.N,Net-(JP3-Pad1)*
X172593000Y-72136000D03*
X172593000Y-77724000D03*
G04 #@! TO.N,Net-(R8-Pad1)*
X149700000Y-110900000D03*
G04 #@! TO.N,SMBUSZ*
X140150000Y-112150000D03*
X144700000Y-111850000D03*
X164350000Y-97550000D03*
X174800000Y-96800000D03*
G04 #@! TO.N,FULLPWRMGMTZ*
X140075000Y-107275000D03*
X145175000Y-111600000D03*
X141100000Y-96000000D03*
X170750000Y-95950000D03*
G04 #@! TO.N,Net-(R19-Pad2)*
X190500000Y-86900000D03*
X176300000Y-87600000D03*
G04 #@! TO.N,Net-(R20-Pad2)*
X194000000Y-87500000D03*
X175800000Y-88000000D03*
G04 #@! TO.N,/controller/Power_Good_1_1*
X193344800Y-112852200D03*
X172974000Y-95478600D03*
G04 #@! TO.N,HS_SUSPEND*
X147850000Y-111600000D03*
X164450000Y-99000000D03*
X174950000Y-99000000D03*
G04 #@! TO.N,HS_UP*
X146150000Y-111650000D03*
G04 #@! TO.N,USB_DM_DN4*
X140151000Y-106676000D03*
X182075000Y-89925000D03*
X180425000Y-105250000D03*
G04 #@! TO.N,USB_DP_DN4*
X140149950Y-106175990D03*
X182026940Y-89359698D03*
X180090011Y-104875000D03*
G04 #@! TO.N,/controller/DISPLAY_POWER*
X201250000Y-97200000D03*
X200846225Y-89847587D03*
X184397495Y-90402505D03*
G04 #@! TO.N,/controller/DISPLAY_OK*
X200700000Y-95100000D03*
X200600000Y-91749979D03*
X183847268Y-90994695D03*
D22*
G04 #@! TO.N,GND*
X136550000Y-104700000D03*
X187850000Y-112050000D03*
X152518746Y-103814174D03*
X178800021Y-87707956D03*
D21*
X152650000Y-107350000D03*
X158200000Y-108400000D03*
X161500000Y-111300000D03*
X165800000Y-111550000D03*
X160750000Y-108350000D03*
X155100000Y-110900000D03*
X154000000Y-112700000D03*
X163200000Y-113250000D03*
X161050000Y-115550000D03*
X155100000Y-107450000D03*
X157900000Y-107500000D03*
X162400000Y-107550000D03*
X156000000Y-112900000D03*
X161950000Y-114500000D03*
X163650000Y-111600000D03*
X134450000Y-104700000D03*
X131850000Y-104600000D03*
X130500000Y-103650000D03*
X128750000Y-101550000D03*
X128250000Y-98750000D03*
X127750000Y-94650000D03*
X130850000Y-94750000D03*
X130700000Y-97750000D03*
X131050000Y-100400000D03*
X133300000Y-102850000D03*
X136150000Y-103350000D03*
X138450000Y-103350000D03*
X138550000Y-102150000D03*
X136100000Y-101600000D03*
X134850000Y-100350000D03*
X136000000Y-100250000D03*
X132700000Y-98250000D03*
X133050000Y-96300000D03*
X134750000Y-94050000D03*
X139700000Y-88200000D03*
X143500000Y-88200000D03*
X143950000Y-90150000D03*
X143100000Y-94700000D03*
X140000000Y-94400000D03*
X151300000Y-94900000D03*
X153000000Y-95050000D03*
X149000000Y-95050000D03*
X149000000Y-93300000D03*
X147550000Y-95250000D03*
X146300000Y-94500000D03*
X145450000Y-95350000D03*
X146650000Y-91450000D03*
X146650000Y-86050000D03*
X146650000Y-88600000D03*
X147800000Y-91900000D03*
X147800000Y-89000000D03*
X147800000Y-86200000D03*
X150000000Y-88700000D03*
X150450000Y-86000000D03*
X152350000Y-87350000D03*
X161400000Y-86750000D03*
X163800000Y-87600000D03*
X164450000Y-83050000D03*
X161100000Y-82400000D03*
X153000000Y-83000000D03*
X149750000Y-82550000D03*
X146050000Y-83450000D03*
X143850000Y-82000000D03*
X142650000Y-82300000D03*
X139950000Y-82450000D03*
X133800000Y-87600000D03*
X132700000Y-88450000D03*
X130500000Y-91250000D03*
X130900000Y-88000000D03*
X130000000Y-86100000D03*
X129000000Y-84200000D03*
X126350000Y-82700000D03*
X124300000Y-82100000D03*
X122100000Y-82100000D03*
X117000000Y-81900000D03*
X118850000Y-85700000D03*
X122150000Y-87950000D03*
X122600000Y-89250000D03*
X126500000Y-90300000D03*
X125700000Y-88050000D03*
X124350000Y-88750000D03*
X124900000Y-92750000D03*
X123250000Y-92800000D03*
X124750000Y-96250000D03*
X120300000Y-99600000D03*
X115250000Y-102800000D03*
X113500000Y-109250000D03*
X117850000Y-112750000D03*
X125700000Y-113600000D03*
X129650000Y-111550000D03*
X132650000Y-107950000D03*
X126850000Y-106250000D03*
X123900000Y-103050000D03*
X120250000Y-106550000D03*
X118750000Y-109250000D03*
X122850000Y-110850000D03*
X126650000Y-108850000D03*
X128700000Y-109550000D03*
X113050000Y-112850000D03*
X109650000Y-113000000D03*
X109950000Y-108150000D03*
X109500000Y-103500000D03*
X109650000Y-99100000D03*
X112100000Y-96700000D03*
X116000000Y-97950000D03*
X112350000Y-102900000D03*
X116500000Y-106700000D03*
X110350000Y-95200000D03*
X110050000Y-89000000D03*
X112900000Y-89050000D03*
X113300000Y-86050000D03*
X111400000Y-84750000D03*
X110050000Y-81700000D03*
X111450000Y-79200000D03*
X116100000Y-78300000D03*
X114150000Y-82100000D03*
X115500000Y-85500000D03*
X160900000Y-103600000D03*
X158950000Y-100900000D03*
X163400000Y-100050000D03*
X162550000Y-102550000D03*
D22*
X163200000Y-80400000D03*
X158400000Y-115650000D03*
D21*
X129200000Y-79975000D03*
X131375000Y-80125000D03*
X132925000Y-80200000D03*
X141575000Y-80175000D03*
X142850000Y-80225000D03*
X146150000Y-80150000D03*
X148475000Y-80075000D03*
X131675000Y-82925000D03*
X134800000Y-82300000D03*
X134800000Y-83875000D03*
X134750000Y-85850000D03*
X140050000Y-86625000D03*
X140575000Y-89450000D03*
X134375000Y-90875000D03*
X116375000Y-90575000D03*
X122900000Y-97750000D03*
X123400000Y-78350000D03*
X124350000Y-80250000D03*
X120350000Y-78550000D03*
X149175000Y-89725000D03*
X150750000Y-91675000D03*
X153575000Y-93725000D03*
X156050000Y-93825000D03*
X155825000Y-90900000D03*
X155600000Y-87775000D03*
X155775000Y-85900000D03*
X155775000Y-83025000D03*
X161575000Y-84100000D03*
X160675000Y-94475000D03*
X161025000Y-91125000D03*
X160975000Y-92875000D03*
X162975000Y-91300000D03*
X163050000Y-95075000D03*
X162925000Y-96750000D03*
X161425000Y-100425000D03*
X159400000Y-103000000D03*
X157750000Y-100025000D03*
X156500000Y-106075000D03*
X158600000Y-106025000D03*
X160525000Y-106200000D03*
X162150000Y-106175000D03*
X154850000Y-109150000D03*
X107950000Y-80010000D03*
X108300000Y-85950000D03*
X107050000Y-89750000D03*
X107050000Y-94250000D03*
X107650000Y-100300000D03*
X107350000Y-105950000D03*
X107050000Y-112500000D03*
D22*
X209260000Y-96230000D03*
G04 #@! TO.N,1V1_Rail*
X140076000Y-109250000D03*
D21*
G04 #@! TO.N,nRESET*
X179849141Y-85349990D03*
D22*
G04 #@! TO.N,+3V3*
X171038176Y-77660021D03*
X177900010Y-87675000D03*
X166500000Y-91000000D03*
D21*
G04 #@! TO.N,/controller/HUB_Reset0*
X182100000Y-93850000D03*
X170774990Y-104435910D03*
G04 #@! TO.N,/controller/HUB_SDA0*
X171125000Y-106075000D03*
X173025000Y-94750000D03*
G04 #@! TO.N,/controller/HUB_Reset1*
X182649990Y-104207012D03*
G04 #@! TO.N,/controller/HUB_Reset2*
X195950000Y-91825000D03*
G04 #@! TO.N,DEBUG_RXD*
X174800000Y-85349990D03*
G04 #@! TO.N,DEBUG_TXD*
X174300000Y-85349990D03*
G04 #@! TO.N,Test2*
X184406184Y-93074993D03*
G04 #@! TO.N,/controller/XY11*
X172875000Y-89725000D03*
X173075000Y-76475000D03*
G04 #@! TO.N,/controller/XY10*
X179450000Y-78450000D03*
X179325000Y-96750000D03*
G04 #@! TO.N,/controller/XY9*
X179075000Y-78825000D03*
X178800000Y-96775000D03*
G04 #@! TO.N,/controller/XY8*
X178025000Y-79050000D03*
X178300000Y-96775000D03*
G04 #@! TO.N,/controller/XY7*
X177450000Y-79375000D03*
X177800000Y-96750000D03*
G04 #@! TO.N,/controller/XY6*
X171825000Y-80400000D03*
X173025000Y-93950000D03*
G04 #@! TO.N,/controller/Touch_GPIO*
X174475000Y-79550000D03*
G04 #@! TO.N,/controller/XY5*
X172500000Y-80400000D03*
X173486708Y-93014573D03*
G04 #@! TO.N,/controller/XY4*
X172150000Y-81150000D03*
X173000000Y-92900000D03*
G04 #@! TO.N,/controller/XY3*
X170900000Y-81050000D03*
X170800000Y-92450000D03*
G04 #@! TO.N,/controller/XY2*
X170222495Y-80777505D03*
X170487562Y-91047179D03*
G04 #@! TO.N,/controller/XY1*
X170650000Y-81700000D03*
X170700000Y-90350000D03*
G04 #@! TO.N,/controller/XY0*
X173800000Y-85400000D03*
G04 #@! TO.N,/controller/DISPLAY_SDA*
X211086078Y-94713922D03*
G04 #@! TO.N,/controller/DISPLAY_RESET*
X176599977Y-91800000D03*
G04 #@! TO.N,/controller/DISPLAY_BUSY*
X177099990Y-91800000D03*
G04 #@! TO.N,Net-(R8-Pad1)*
X169366531Y-108937480D03*
G04 #@! TO.N,HUB_Reset_Local*
X150580002Y-110200000D03*
X151150000Y-112000000D03*
X169850000Y-107000000D03*
X183000000Y-106800000D03*
X184250000Y-92600000D03*
G04 #@! TO.N,/controller/Motor_PWM*
X168725000Y-76700000D03*
X168725000Y-98600000D03*
X176800000Y-98925000D03*
G04 #@! TO.N,/controller/Power_Good_1_1*
X172400000Y-113900000D03*
G04 #@! TO.N,HS_UP*
X168374990Y-89450000D03*
G04 #@! TO.N,M-*
X172700000Y-74600000D03*
G04 #@! TO.N,M+*
X168900000Y-75100000D03*
X128150000Y-76850000D03*
G04 #@! TO.N,/controller/Test1*
X193950000Y-96450000D03*
X177255626Y-96700615D03*
G04 #@! TO.N,/controller/Test0*
X189103000Y-78740000D03*
X180850000Y-85375000D03*
X169849990Y-86145608D03*
G04 #@! TD*
D23*
G04 #@! TO.N,GNDPWR*
X213156800Y-84302600D02*
X213995000Y-83464400D01*
D24*
X213106000Y-102870000D02*
X213995000Y-102870000D01*
G04 #@! TO.N,GND*
X128650000Y-72150000D02*
X129200000Y-72150000D01*
G04 #@! TO.N,+3V3*
X127150000Y-76050000D02*
X127150000Y-75100000D01*
G04 #@! TO.N,Net-(C57-Pad1)*
X211100000Y-98200000D02*
X211150000Y-98250000D01*
X204450000Y-98200000D02*
X211100000Y-98200000D01*
X204450000Y-92550000D02*
X204450000Y-98200000D01*
X203700000Y-91800000D02*
X204450000Y-92550000D01*
G04 #@! TO.N,Net-(C58-Pad2)*
X207496258Y-96796258D02*
X211182983Y-96796258D01*
X205850000Y-95150000D02*
X207496258Y-96796258D01*
D25*
G04 #@! TO.N,SCL*
X127150000Y-72150000D02*
X127150000Y-72950000D01*
G04 #@! TO.N,SDA*
X127650000Y-72150000D02*
X127650000Y-72950000D01*
G04 #@! TO.N,/controller/XY11*
X126650000Y-72150000D02*
X126650000Y-72950000D01*
G04 #@! TO.N,/controller/XY10*
X126150000Y-72150000D02*
X126150000Y-72950000D01*
G04 #@! TO.N,/controller/XY9*
X125650000Y-72150000D02*
X125650000Y-72950000D01*
G04 #@! TO.N,/controller/XY8*
X125150000Y-72150000D02*
X125150000Y-72950000D01*
G04 #@! TO.N,/controller/XY7*
X124650000Y-72150000D02*
X124650000Y-72950000D01*
G04 #@! TO.N,/controller/XY6*
X124150000Y-72150000D02*
X124150000Y-72950000D01*
G04 #@! TO.N,/controller/Touch_GPIO*
X127650000Y-76050000D02*
X127650000Y-76850000D01*
G04 #@! TO.N,/controller/XY5*
X126650000Y-76050000D02*
X126650000Y-76850000D01*
G04 #@! TO.N,/controller/XY4*
X126150000Y-76050000D02*
X126150000Y-76850000D01*
G04 #@! TO.N,/controller/XY3*
X125650000Y-76050000D02*
X125650000Y-76850000D01*
G04 #@! TO.N,/controller/XY2*
X125150000Y-76050000D02*
X125150000Y-76850000D01*
G04 #@! TO.N,/controller/XY0*
X124150000Y-76050000D02*
X124150000Y-76850000D01*
G04 #@! TO.N,SMBUSZ*
X174050000Y-97550000D02*
X174800000Y-96800000D01*
X164350000Y-97550000D02*
X174050000Y-97550000D01*
G04 #@! TO.N,Net-(R20-Pad2)*
X194000000Y-87500000D02*
X192800000Y-86300000D01*
G04 #@! TO.N,HS_SUSPEND*
X164450000Y-99000000D02*
X174950000Y-99000000D01*
D23*
G04 #@! TO.N,GNDPWR*
X137240000Y-81200000D02*
X137160000Y-81280000D01*
X158600000Y-81200000D02*
X137240000Y-81200000D01*
X137160000Y-81280000D02*
X119380000Y-81280000D01*
D25*
G04 #@! TO.N,/controller/HUB_Reset0*
X182100000Y-94493000D02*
X172157090Y-104435910D01*
X182100000Y-93850000D02*
X182100000Y-94493000D01*
X172157090Y-104435910D02*
X170774990Y-104435910D01*
G04 #@! TO.N,/controller/XY11*
X126650000Y-72950000D02*
X126650000Y-73000000D01*
X126650000Y-73000000D02*
X126900000Y-73250000D01*
X126900000Y-73250000D02*
X126950000Y-73300000D01*
X126950000Y-73300000D02*
X127175000Y-73300000D01*
X128217144Y-73300000D02*
X132127155Y-77210011D01*
X127175000Y-73300000D02*
X128217144Y-73300000D01*
X132127155Y-77210011D02*
X168460011Y-77210011D01*
X168460011Y-77210011D02*
X172314989Y-77210011D01*
X172339989Y-77210011D02*
X173075000Y-76475000D01*
X172314989Y-77210011D02*
X172339989Y-77210011D01*
G04 #@! TO.N,/controller/XY10*
X126150000Y-72950000D02*
X126575000Y-73375000D01*
X126575000Y-73375000D02*
X126700000Y-73500000D01*
X126700000Y-73500000D02*
X128134288Y-73500000D01*
X128134288Y-73500000D02*
X132044309Y-77410021D01*
X132044309Y-77410021D02*
X167600000Y-77410021D01*
X167600000Y-77410021D02*
X169460021Y-77410021D01*
X170500000Y-78450000D02*
X179450000Y-78450000D01*
X169460021Y-77410021D02*
X170500000Y-78450000D01*
G04 #@! TO.N,/controller/XY9*
X125650000Y-72950000D02*
X125650000Y-73000000D01*
X125650000Y-73000000D02*
X126350000Y-73700000D01*
X128051432Y-73700000D02*
X131961463Y-77610031D01*
X126350000Y-73700000D02*
X128051432Y-73700000D01*
X169377175Y-77610031D02*
X170417154Y-78650010D01*
X131961463Y-77610031D02*
X169377175Y-77610031D01*
X170417154Y-78650010D02*
X178199990Y-78650010D01*
X178199990Y-78650010D02*
X178750000Y-78650010D01*
X178900010Y-78650010D02*
X179075000Y-78825000D01*
X178750000Y-78650010D02*
X178900010Y-78650010D01*
G04 #@! TO.N,/controller/XY8*
X125150000Y-72950000D02*
X125150000Y-73125000D01*
X125150000Y-73125000D02*
X125925000Y-73900000D01*
X125925000Y-73900000D02*
X127968576Y-73900000D01*
X127968576Y-73900000D02*
X131878617Y-77810041D01*
X131878617Y-77810041D02*
X169294329Y-77810041D01*
X169294329Y-77810041D02*
X170334308Y-78850020D01*
X177825020Y-78850020D02*
X177925000Y-78950000D01*
X170334308Y-78850020D02*
X177825020Y-78850020D01*
X177925000Y-78950000D02*
X178025000Y-79050000D01*
G04 #@! TO.N,/controller/XY7*
X124650000Y-72950000D02*
X124650000Y-73100000D01*
X124650000Y-73100000D02*
X125650000Y-74100000D01*
X125842144Y-74100000D02*
X125842154Y-74100010D01*
X125650000Y-74100000D02*
X125842144Y-74100000D01*
X125842154Y-74100010D02*
X127620012Y-74100010D01*
X127620012Y-74100010D02*
X127885730Y-74100010D01*
X127885730Y-74100010D02*
X131795771Y-78010051D01*
X131795771Y-78010051D02*
X169211483Y-78010051D01*
X170251462Y-79050030D02*
X176025000Y-79050030D01*
X169211483Y-78010051D02*
X170251462Y-79050030D01*
X177125030Y-79050030D02*
X177450000Y-79375000D01*
X176025000Y-79050030D02*
X177125030Y-79050030D01*
G04 #@! TO.N,/controller/Touch_GPIO*
X127650000Y-76050000D02*
X127650000Y-76950000D01*
X128875000Y-78175000D02*
X131677864Y-78175000D01*
X131677864Y-78175000D02*
X131712925Y-78210061D01*
X127650000Y-76950000D02*
X128875000Y-78175000D01*
X131712925Y-78210061D02*
X168625000Y-78210061D01*
X168625000Y-78210061D02*
X169128637Y-78210061D01*
X169128637Y-78210061D02*
X170168616Y-79250040D01*
X174175040Y-79250040D02*
X174475000Y-79550000D01*
X170168616Y-79250040D02*
X174175040Y-79250040D01*
G04 #@! TO.N,/controller/XY5*
X126650000Y-76850000D02*
X126650000Y-76900000D01*
X126650000Y-76900000D02*
X128150000Y-78400000D01*
X131620008Y-78400000D02*
X131630079Y-78410071D01*
X128150000Y-78400000D02*
X131620008Y-78400000D01*
X131630079Y-78410071D02*
X163928073Y-78410071D01*
X163928073Y-78410071D02*
X169045791Y-78410071D01*
X169045791Y-78410071D02*
X170085770Y-79450050D01*
X171550050Y-79450050D02*
X172500000Y-80400000D01*
X170085770Y-79450050D02*
X171550050Y-79450050D01*
G04 #@! TO.N,/controller/XY4*
X126150000Y-76050000D02*
X126150000Y-76900000D01*
X131537152Y-78600000D02*
X131547233Y-78610081D01*
X127850000Y-78600000D02*
X131537152Y-78600000D01*
X126150000Y-76900000D02*
X127850000Y-78600000D01*
X131547233Y-78610081D02*
X132650000Y-78610081D01*
X132650000Y-78610081D02*
X163845227Y-78610081D01*
X163845227Y-78610081D02*
X168960081Y-78610081D01*
X170002864Y-79650000D02*
X170002924Y-79650060D01*
X170000000Y-79650000D02*
X170002864Y-79650000D01*
X168960081Y-78610081D02*
X170000000Y-79650000D01*
X170002924Y-79650060D02*
X170300060Y-79650060D01*
X170300060Y-79650060D02*
X170950000Y-80300000D01*
X170950000Y-80300000D02*
X171500000Y-80850000D01*
X171500000Y-80850000D02*
X171800000Y-81150000D01*
X171800000Y-81150000D02*
X172150000Y-81150000D01*
G04 #@! TO.N,/controller/XY3*
X125650000Y-76850000D02*
X125650000Y-77000000D01*
X125650000Y-77000000D02*
X127450000Y-78800000D01*
X131464387Y-78810091D02*
X132567154Y-78810091D01*
X131454296Y-78800000D02*
X131464387Y-78810091D01*
X127450000Y-78800000D02*
X131454296Y-78800000D01*
X132567154Y-78810091D02*
X137100000Y-78810091D01*
X137100000Y-78810091D02*
X168877235Y-78810091D01*
X170900000Y-80832856D02*
X170900000Y-81050000D01*
X168877235Y-78810091D02*
X170900000Y-80832856D01*
G04 #@! TO.N,/controller/XY2*
X155239899Y-79010101D02*
X155300000Y-79010101D01*
X125150000Y-76867142D02*
X127292959Y-79010101D01*
X127292959Y-79010101D02*
X155239899Y-79010101D01*
X125150000Y-76050000D02*
X125150000Y-76867142D01*
X155239899Y-79010101D02*
X168455091Y-79010101D01*
X168455091Y-79010101D02*
X170222495Y-80777505D01*
G04 #@! TO.N,/controller/XY1*
X168160111Y-79210111D02*
X170650000Y-81700000D01*
X127210113Y-79210111D02*
X168160111Y-79210111D01*
X124650000Y-76650000D02*
X127210113Y-79210111D01*
X124650000Y-76050000D02*
X124650000Y-76650000D01*
G04 #@! TO.N,/controller/XY0*
X124150000Y-76850000D02*
X124150000Y-77200000D01*
X127117146Y-79400000D02*
X127127265Y-79410119D01*
X126350000Y-79400000D02*
X127117146Y-79400000D01*
X124150000Y-77200000D02*
X126350000Y-79400000D01*
X127127265Y-79410119D02*
X127127267Y-79410121D01*
X173800000Y-85368002D02*
X173800000Y-85400000D01*
X167842119Y-79410121D02*
X173800000Y-85368002D01*
X127127267Y-79410121D02*
X167842119Y-79410121D01*
G04 #@! TO.N,M-*
X128150000Y-72150000D02*
X128150000Y-72950000D01*
X156829999Y-77010001D02*
X160840000Y-73000000D01*
X132210001Y-77010001D02*
X156829999Y-77010001D01*
X128150000Y-72950000D02*
X132210001Y-77010001D01*
D24*
X162600000Y-74600000D02*
X161000000Y-73000000D01*
X161000000Y-73000000D02*
X160840000Y-73000000D01*
X172700000Y-74600000D02*
X162600000Y-74600000D01*
D25*
G04 #@! TO.N,M+*
X128150000Y-76050000D02*
X128150000Y-76850000D01*
G04 #@! TO.N,/controller/Test0*
X180850000Y-85375000D02*
X180079392Y-86145608D01*
X180079392Y-86145608D02*
X169849990Y-86145608D01*
G04 #@! TD*
D26*
G04 #@! TO.N,GNDPWR*
X93853000Y-71172605D02*
X93819119Y-71138724D01*
X93329452Y-71498912D01*
X92969151Y-72162882D01*
X92745306Y-72884385D01*
X92666520Y-73635695D01*
X92735822Y-74387938D01*
X92950548Y-75112208D01*
X93302445Y-75780670D01*
X93329452Y-75821088D01*
X93819119Y-76181276D01*
X93853000Y-76147395D01*
X93853000Y-111812605D01*
X93819119Y-111778724D01*
X93329452Y-112138912D01*
X92969151Y-112802882D01*
X92745306Y-113524385D01*
X92666520Y-114275695D01*
X92735822Y-115027938D01*
X92950548Y-115752208D01*
X93302445Y-116420670D01*
X93329452Y-116461088D01*
X93819119Y-116821276D01*
X93853000Y-116787395D01*
X93853000Y-118670125D01*
X92125000Y-118669749D01*
X92125000Y-69265000D01*
X93853000Y-69265000D01*
X93853000Y-71172605D01*
G04 #@! TA.AperFunction,Conductor*
D27*
G36*
X93853000Y-71172605D02*
G01*
X93819119Y-71138724D01*
X93329452Y-71498912D01*
X92969151Y-72162882D01*
X92745306Y-72884385D01*
X92666520Y-73635695D01*
X92735822Y-74387938D01*
X92950548Y-75112208D01*
X93302445Y-75780670D01*
X93329452Y-75821088D01*
X93819119Y-76181276D01*
X93853000Y-76147395D01*
X93853000Y-111812605D01*
X93819119Y-111778724D01*
X93329452Y-112138912D01*
X92969151Y-112802882D01*
X92745306Y-113524385D01*
X92666520Y-114275695D01*
X92735822Y-115027938D01*
X92950548Y-115752208D01*
X93302445Y-116420670D01*
X93329452Y-116461088D01*
X93819119Y-116821276D01*
X93853000Y-116787395D01*
X93853000Y-118670125D01*
X92125000Y-118669749D01*
X92125000Y-69265000D01*
X93853000Y-69265000D01*
X93853000Y-71172605D01*
G37*
G04 #@! TD.AperFunction*
G04 #@! TD*
D26*
G04 #@! TO.N,GNDPWR*
X215215000Y-70993000D02*
X213307395Y-70993000D01*
X213341276Y-70959119D01*
X212981088Y-70469452D01*
X212317118Y-70109151D01*
X211595615Y-69885306D01*
X210844305Y-69806520D01*
X210092062Y-69875822D01*
X209367792Y-70090548D01*
X208699330Y-70442445D01*
X208658912Y-70469452D01*
X208298724Y-70959119D01*
X208332605Y-70993000D01*
X186551256Y-70993000D01*
X186522268Y-70847271D01*
X186451786Y-70677111D01*
X186349462Y-70523972D01*
X186219228Y-70393738D01*
X186066089Y-70291414D01*
X185895929Y-70220932D01*
X185715289Y-70185000D01*
X185531111Y-70185000D01*
X185350471Y-70220932D01*
X185180311Y-70291414D01*
X185027172Y-70393738D01*
X184896938Y-70523972D01*
X184794614Y-70677111D01*
X184724132Y-70847271D01*
X184695144Y-70993000D01*
X137107395Y-70993000D01*
X137141276Y-70959119D01*
X136781088Y-70469452D01*
X136117118Y-70109151D01*
X135395615Y-69885306D01*
X134644305Y-69806520D01*
X133892062Y-69875822D01*
X133167792Y-70090548D01*
X132499330Y-70442445D01*
X132458912Y-70469452D01*
X132098724Y-70959119D01*
X132132605Y-70993000D01*
X99007395Y-70993000D01*
X99041276Y-70959119D01*
X98681088Y-70469452D01*
X98017118Y-70109151D01*
X97295615Y-69885306D01*
X96544305Y-69806520D01*
X95792062Y-69875822D01*
X95067792Y-70090548D01*
X94399330Y-70442445D01*
X94358912Y-70469452D01*
X93998724Y-70959119D01*
X94032605Y-70993000D01*
X92125000Y-70993000D01*
X92125000Y-69265000D01*
X215215000Y-69265000D01*
X215215000Y-70993000D01*
G04 #@! TA.AperFunction,Conductor*
D27*
G36*
X215215000Y-70993000D02*
G01*
X213307395Y-70993000D01*
X213341276Y-70959119D01*
X212981088Y-70469452D01*
X212317118Y-70109151D01*
X211595615Y-69885306D01*
X210844305Y-69806520D01*
X210092062Y-69875822D01*
X209367792Y-70090548D01*
X208699330Y-70442445D01*
X208658912Y-70469452D01*
X208298724Y-70959119D01*
X208332605Y-70993000D01*
X186551256Y-70993000D01*
X186522268Y-70847271D01*
X186451786Y-70677111D01*
X186349462Y-70523972D01*
X186219228Y-70393738D01*
X186066089Y-70291414D01*
X185895929Y-70220932D01*
X185715289Y-70185000D01*
X185531111Y-70185000D01*
X185350471Y-70220932D01*
X185180311Y-70291414D01*
X185027172Y-70393738D01*
X184896938Y-70523972D01*
X184794614Y-70677111D01*
X184724132Y-70847271D01*
X184695144Y-70993000D01*
X137107395Y-70993000D01*
X137141276Y-70959119D01*
X136781088Y-70469452D01*
X136117118Y-70109151D01*
X135395615Y-69885306D01*
X134644305Y-69806520D01*
X133892062Y-69875822D01*
X133167792Y-70090548D01*
X132499330Y-70442445D01*
X132458912Y-70469452D01*
X132098724Y-70959119D01*
X132132605Y-70993000D01*
X99007395Y-70993000D01*
X99041276Y-70959119D01*
X98681088Y-70469452D01*
X98017118Y-70109151D01*
X97295615Y-69885306D01*
X96544305Y-69806520D01*
X95792062Y-69875822D01*
X95067792Y-70090548D01*
X94399330Y-70442445D01*
X94358912Y-70469452D01*
X93998724Y-70959119D01*
X94032605Y-70993000D01*
X92125000Y-70993000D01*
X92125000Y-69265000D01*
X215215000Y-69265000D01*
X215215000Y-70993000D01*
G37*
G04 #@! TD.AperFunction*
G04 #@! TD*
D26*
G04 #@! TO.N,GNDPWR*
X215215001Y-118695000D02*
X213487000Y-118695000D01*
X213487000Y-116787395D01*
X213520881Y-116821276D01*
X214010548Y-116461088D01*
X214370849Y-115797118D01*
X214594694Y-115075615D01*
X214673480Y-114324305D01*
X214604178Y-113572062D01*
X214389452Y-112847792D01*
X214037555Y-112179330D01*
X214010548Y-112138912D01*
X213520881Y-111778724D01*
X213487000Y-111812605D01*
X213487000Y-76147395D01*
X213520881Y-76181276D01*
X214010548Y-75821088D01*
X214370849Y-75157118D01*
X214594694Y-74435615D01*
X214673480Y-73684305D01*
X214604178Y-72932062D01*
X214389452Y-72207792D01*
X214037555Y-71539330D01*
X214010548Y-71498912D01*
X213520881Y-71138724D01*
X213487000Y-71172605D01*
X213487000Y-69265000D01*
X215215000Y-69265000D01*
X215215001Y-118695000D01*
G04 #@! TA.AperFunction,Conductor*
D27*
G36*
X215215001Y-118695000D02*
G01*
X213487000Y-118695000D01*
X213487000Y-116787395D01*
X213520881Y-116821276D01*
X214010548Y-116461088D01*
X214370849Y-115797118D01*
X214594694Y-115075615D01*
X214673480Y-114324305D01*
X214604178Y-113572062D01*
X214389452Y-112847792D01*
X214037555Y-112179330D01*
X214010548Y-112138912D01*
X213520881Y-111778724D01*
X213487000Y-111812605D01*
X213487000Y-76147395D01*
X213520881Y-76181276D01*
X214010548Y-75821088D01*
X214370849Y-75157118D01*
X214594694Y-74435615D01*
X214673480Y-73684305D01*
X214604178Y-72932062D01*
X214389452Y-72207792D01*
X214037555Y-71539330D01*
X214010548Y-71498912D01*
X213520881Y-71138724D01*
X213487000Y-71172605D01*
X213487000Y-69265000D01*
X215215000Y-69265000D01*
X215215001Y-118695000D01*
G37*
G04 #@! TD.AperFunction*
G04 #@! TD*
D26*
G04 #@! TO.N,GNDPWR*
X93998724Y-117000881D02*
X94358912Y-117490548D01*
X95022882Y-117850849D01*
X95744385Y-118074694D01*
X96495695Y-118153480D01*
X97247938Y-118084178D01*
X97972208Y-117869452D01*
X98640670Y-117517555D01*
X98681088Y-117490548D01*
X99041276Y-117000881D01*
X99007395Y-116967000D01*
X132272605Y-116967000D01*
X132238724Y-117000881D01*
X132598912Y-117490548D01*
X133262882Y-117850849D01*
X133984385Y-118074694D01*
X134735695Y-118153480D01*
X135487938Y-118084178D01*
X136212208Y-117869452D01*
X136880670Y-117517555D01*
X136921088Y-117490548D01*
X137281276Y-117000881D01*
X137247395Y-116967000D01*
X148717420Y-116967000D01*
X148807911Y-116985000D01*
X148992089Y-116985000D01*
X149082580Y-116967000D01*
X149667420Y-116967000D01*
X149757911Y-116985000D01*
X149942089Y-116985000D01*
X150032580Y-116967000D01*
X150617420Y-116967000D01*
X150707911Y-116985000D01*
X150892089Y-116985000D01*
X150982580Y-116967000D01*
X151517420Y-116967000D01*
X151607911Y-116985000D01*
X151792089Y-116985000D01*
X151882580Y-116967000D01*
X160983693Y-116967000D01*
X161012266Y-117005600D01*
X161729289Y-117005600D01*
X161770226Y-117046537D01*
X161939744Y-117159805D01*
X162128102Y-117237826D01*
X162237568Y-117259600D01*
X161012266Y-117259600D01*
X160885732Y-117430538D01*
X160961513Y-117643686D01*
X161080310Y-117827685D01*
X161232721Y-117984973D01*
X161412889Y-118109505D01*
X161613890Y-118196495D01*
X161828000Y-118242600D01*
X162303000Y-118242600D01*
X162303000Y-117272615D01*
X162328061Y-117277600D01*
X162531939Y-117277600D01*
X162557000Y-117272615D01*
X162557000Y-118242600D01*
X163032000Y-118242600D01*
X163246110Y-118196495D01*
X163447111Y-118109505D01*
X163627279Y-117984973D01*
X163779690Y-117827685D01*
X163898487Y-117643686D01*
X163974268Y-117430538D01*
X163847734Y-117259600D01*
X162622432Y-117259600D01*
X162731898Y-117237826D01*
X162920256Y-117159805D01*
X163089774Y-117046537D01*
X163130711Y-117005600D01*
X163847734Y-117005600D01*
X163876307Y-116967000D01*
X174071000Y-116967000D01*
X174071000Y-117059089D01*
X174106932Y-117239729D01*
X174177414Y-117409889D01*
X174279738Y-117563028D01*
X174409972Y-117693262D01*
X174563111Y-117795586D01*
X174733271Y-117866068D01*
X174913911Y-117902000D01*
X175098089Y-117902000D01*
X175278729Y-117866068D01*
X175448889Y-117795586D01*
X175602028Y-117693262D01*
X175732262Y-117563028D01*
X175811760Y-117444050D01*
X175933972Y-117566262D01*
X176087111Y-117668586D01*
X176257271Y-117739068D01*
X176437911Y-117775000D01*
X176622089Y-117775000D01*
X176802729Y-117739068D01*
X176972889Y-117668586D01*
X177101500Y-117582651D01*
X177230111Y-117668586D01*
X177400271Y-117739068D01*
X177580911Y-117775000D01*
X177765089Y-117775000D01*
X177945729Y-117739068D01*
X178115889Y-117668586D01*
X178269028Y-117566262D01*
X178371500Y-117463790D01*
X178473972Y-117566262D01*
X178627111Y-117668586D01*
X178797271Y-117739068D01*
X178977911Y-117775000D01*
X179162089Y-117775000D01*
X179342729Y-117739068D01*
X179512889Y-117668586D01*
X179666028Y-117566262D01*
X179705000Y-117527290D01*
X179743972Y-117566262D01*
X179897111Y-117668586D01*
X180067271Y-117739068D01*
X180247911Y-117775000D01*
X180432089Y-117775000D01*
X180612729Y-117739068D01*
X180782889Y-117668586D01*
X180936028Y-117566262D01*
X181066262Y-117436028D01*
X181168586Y-117282889D01*
X181239068Y-117112729D01*
X181268056Y-116967000D01*
X184618944Y-116967000D01*
X184612000Y-117001911D01*
X184612000Y-117186089D01*
X184647932Y-117366729D01*
X184718414Y-117536889D01*
X184820738Y-117690028D01*
X184950972Y-117820262D01*
X185104111Y-117922586D01*
X185274271Y-117993068D01*
X185454911Y-118029000D01*
X185639089Y-118029000D01*
X185819729Y-117993068D01*
X185989889Y-117922586D01*
X186143028Y-117820262D01*
X186273262Y-117690028D01*
X186375586Y-117536889D01*
X186446068Y-117366729D01*
X186482000Y-117186089D01*
X186482000Y-117001911D01*
X186475056Y-116967000D01*
X191039847Y-116967000D01*
X191050932Y-117022729D01*
X191121414Y-117192889D01*
X191223738Y-117346028D01*
X191353972Y-117476262D01*
X191507111Y-117578586D01*
X191677271Y-117649068D01*
X191857911Y-117685000D01*
X192042089Y-117685000D01*
X192222729Y-117649068D01*
X192392889Y-117578586D01*
X192546028Y-117476262D01*
X192676262Y-117346028D01*
X192706252Y-117301145D01*
X192720318Y-117305412D01*
X192844800Y-117317672D01*
X193844800Y-117317672D01*
X193969282Y-117305412D01*
X194088980Y-117269102D01*
X194199294Y-117210137D01*
X194295985Y-117130785D01*
X194375337Y-117034094D01*
X194411200Y-116967000D01*
X194564400Y-116967000D01*
X194600263Y-117034094D01*
X194679615Y-117130785D01*
X194776306Y-117210137D01*
X194886620Y-117269102D01*
X195006318Y-117305412D01*
X195130800Y-117317672D01*
X196130800Y-117317672D01*
X196255282Y-117305412D01*
X196374980Y-117269102D01*
X196485294Y-117210137D01*
X196581985Y-117130785D01*
X196661337Y-117034094D01*
X196697200Y-116967000D01*
X203541944Y-116967000D01*
X203535000Y-117001911D01*
X203535000Y-117186089D01*
X203570932Y-117366729D01*
X203641414Y-117536889D01*
X203743738Y-117690028D01*
X203873972Y-117820262D01*
X204027111Y-117922586D01*
X204197271Y-117993068D01*
X204377911Y-118029000D01*
X204562089Y-118029000D01*
X204742729Y-117993068D01*
X204912889Y-117922586D01*
X205066028Y-117820262D01*
X205196262Y-117690028D01*
X205298586Y-117536889D01*
X205369068Y-117366729D01*
X205405000Y-117186089D01*
X205405000Y-117001911D01*
X205398056Y-116967000D01*
X208332605Y-116967000D01*
X208298724Y-117000881D01*
X208658912Y-117490548D01*
X209322882Y-117850849D01*
X210044385Y-118074694D01*
X210795695Y-118153480D01*
X211547938Y-118084178D01*
X212272208Y-117869452D01*
X212940670Y-117517555D01*
X212981088Y-117490548D01*
X213341276Y-117000881D01*
X213307395Y-116967000D01*
X215215001Y-116967000D01*
X215215001Y-118695000D01*
X208276997Y-118695000D01*
X92125000Y-118669749D01*
X92125000Y-116967000D01*
X94032605Y-116967000D01*
X93998724Y-117000881D01*
G04 #@! TA.AperFunction,Conductor*
D27*
G36*
X93998724Y-117000881D02*
G01*
X94358912Y-117490548D01*
X95022882Y-117850849D01*
X95744385Y-118074694D01*
X96495695Y-118153480D01*
X97247938Y-118084178D01*
X97972208Y-117869452D01*
X98640670Y-117517555D01*
X98681088Y-117490548D01*
X99041276Y-117000881D01*
X99007395Y-116967000D01*
X132272605Y-116967000D01*
X132238724Y-117000881D01*
X132598912Y-117490548D01*
X133262882Y-117850849D01*
X133984385Y-118074694D01*
X134735695Y-118153480D01*
X135487938Y-118084178D01*
X136212208Y-117869452D01*
X136880670Y-117517555D01*
X136921088Y-117490548D01*
X137281276Y-117000881D01*
X137247395Y-116967000D01*
X148717420Y-116967000D01*
X148807911Y-116985000D01*
X148992089Y-116985000D01*
X149082580Y-116967000D01*
X149667420Y-116967000D01*
X149757911Y-116985000D01*
X149942089Y-116985000D01*
X150032580Y-116967000D01*
X150617420Y-116967000D01*
X150707911Y-116985000D01*
X150892089Y-116985000D01*
X150982580Y-116967000D01*
X151517420Y-116967000D01*
X151607911Y-116985000D01*
X151792089Y-116985000D01*
X151882580Y-116967000D01*
X160983693Y-116967000D01*
X161012266Y-117005600D01*
X161729289Y-117005600D01*
X161770226Y-117046537D01*
X161939744Y-117159805D01*
X162128102Y-117237826D01*
X162237568Y-117259600D01*
X161012266Y-117259600D01*
X160885732Y-117430538D01*
X160961513Y-117643686D01*
X161080310Y-117827685D01*
X161232721Y-117984973D01*
X161412889Y-118109505D01*
X161613890Y-118196495D01*
X161828000Y-118242600D01*
X162303000Y-118242600D01*
X162303000Y-117272615D01*
X162328061Y-117277600D01*
X162531939Y-117277600D01*
X162557000Y-117272615D01*
X162557000Y-118242600D01*
X163032000Y-118242600D01*
X163246110Y-118196495D01*
X163447111Y-118109505D01*
X163627279Y-117984973D01*
X163779690Y-117827685D01*
X163898487Y-117643686D01*
X163974268Y-117430538D01*
X163847734Y-117259600D01*
X162622432Y-117259600D01*
X162731898Y-117237826D01*
X162920256Y-117159805D01*
X163089774Y-117046537D01*
X163130711Y-117005600D01*
X163847734Y-117005600D01*
X163876307Y-116967000D01*
X174071000Y-116967000D01*
X174071000Y-117059089D01*
X174106932Y-117239729D01*
X174177414Y-117409889D01*
X174279738Y-117563028D01*
X174409972Y-117693262D01*
X174563111Y-117795586D01*
X174733271Y-117866068D01*
X174913911Y-117902000D01*
X175098089Y-117902000D01*
X175278729Y-117866068D01*
X175448889Y-117795586D01*
X175602028Y-117693262D01*
X175732262Y-117563028D01*
X175811760Y-117444050D01*
X175933972Y-117566262D01*
X176087111Y-117668586D01*
X176257271Y-117739068D01*
X176437911Y-117775000D01*
X176622089Y-117775000D01*
X176802729Y-117739068D01*
X176972889Y-117668586D01*
X177101500Y-117582651D01*
X177230111Y-117668586D01*
X177400271Y-117739068D01*
X177580911Y-117775000D01*
X177765089Y-117775000D01*
X177945729Y-117739068D01*
X178115889Y-117668586D01*
X178269028Y-117566262D01*
X178371500Y-117463790D01*
X178473972Y-117566262D01*
X178627111Y-117668586D01*
X178797271Y-117739068D01*
X178977911Y-117775000D01*
X179162089Y-117775000D01*
X179342729Y-117739068D01*
X179512889Y-117668586D01*
X179666028Y-117566262D01*
X179705000Y-117527290D01*
X179743972Y-117566262D01*
X179897111Y-117668586D01*
X180067271Y-117739068D01*
X180247911Y-117775000D01*
X180432089Y-117775000D01*
X180612729Y-117739068D01*
X180782889Y-117668586D01*
X180936028Y-117566262D01*
X181066262Y-117436028D01*
X181168586Y-117282889D01*
X181239068Y-117112729D01*
X181268056Y-116967000D01*
X184618944Y-116967000D01*
X184612000Y-117001911D01*
X184612000Y-117186089D01*
X184647932Y-117366729D01*
X184718414Y-117536889D01*
X184820738Y-117690028D01*
X184950972Y-117820262D01*
X185104111Y-117922586D01*
X185274271Y-117993068D01*
X185454911Y-118029000D01*
X185639089Y-118029000D01*
X185819729Y-117993068D01*
X185989889Y-117922586D01*
X186143028Y-117820262D01*
X186273262Y-117690028D01*
X186375586Y-117536889D01*
X186446068Y-117366729D01*
X186482000Y-117186089D01*
X186482000Y-117001911D01*
X186475056Y-116967000D01*
X191039847Y-116967000D01*
X191050932Y-117022729D01*
X191121414Y-117192889D01*
X191223738Y-117346028D01*
X191353972Y-117476262D01*
X191507111Y-117578586D01*
X191677271Y-117649068D01*
X191857911Y-117685000D01*
X192042089Y-117685000D01*
X192222729Y-117649068D01*
X192392889Y-117578586D01*
X192546028Y-117476262D01*
X192676262Y-117346028D01*
X192706252Y-117301145D01*
X192720318Y-117305412D01*
X192844800Y-117317672D01*
X193844800Y-117317672D01*
X193969282Y-117305412D01*
X194088980Y-117269102D01*
X194199294Y-117210137D01*
X194295985Y-117130785D01*
X194375337Y-117034094D01*
X194411200Y-116967000D01*
X194564400Y-116967000D01*
X194600263Y-117034094D01*
X194679615Y-117130785D01*
X194776306Y-117210137D01*
X194886620Y-117269102D01*
X195006318Y-117305412D01*
X195130800Y-117317672D01*
X196130800Y-117317672D01*
X196255282Y-117305412D01*
X196374980Y-117269102D01*
X196485294Y-117210137D01*
X196581985Y-117130785D01*
X196661337Y-117034094D01*
X196697200Y-116967000D01*
X203541944Y-116967000D01*
X203535000Y-117001911D01*
X203535000Y-117186089D01*
X203570932Y-117366729D01*
X203641414Y-117536889D01*
X203743738Y-117690028D01*
X203873972Y-117820262D01*
X204027111Y-117922586D01*
X204197271Y-117993068D01*
X204377911Y-118029000D01*
X204562089Y-118029000D01*
X204742729Y-117993068D01*
X204912889Y-117922586D01*
X205066028Y-117820262D01*
X205196262Y-117690028D01*
X205298586Y-117536889D01*
X205369068Y-117366729D01*
X205405000Y-117186089D01*
X205405000Y-117001911D01*
X205398056Y-116967000D01*
X208332605Y-116967000D01*
X208298724Y-117000881D01*
X208658912Y-117490548D01*
X209322882Y-117850849D01*
X210044385Y-118074694D01*
X210795695Y-118153480D01*
X211547938Y-118084178D01*
X212272208Y-117869452D01*
X212940670Y-117517555D01*
X212981088Y-117490548D01*
X213341276Y-117000881D01*
X213307395Y-116967000D01*
X215215001Y-116967000D01*
X215215001Y-118695000D01*
X208276997Y-118695000D01*
X92125000Y-118669749D01*
X92125000Y-116967000D01*
X94032605Y-116967000D01*
X93998724Y-117000881D01*
G37*
G04 #@! TD.AperFunction*
G04 #@! TD*
D26*
G04 #@! TO.N,GNDPWR*
X215215001Y-118695000D02*
X208276997Y-118695000D01*
X204065522Y-118694084D01*
X204783373Y-117976233D01*
X204912889Y-117922586D01*
X205066028Y-117820262D01*
X205196262Y-117690028D01*
X205298586Y-117536889D01*
X205352233Y-117407373D01*
X215215001Y-107544605D01*
X215215001Y-118695000D01*
G04 #@! TA.AperFunction,Conductor*
D27*
G36*
X215215001Y-118695000D02*
G01*
X208276997Y-118695000D01*
X204065522Y-118694084D01*
X204783373Y-117976233D01*
X204912889Y-117922586D01*
X205066028Y-117820262D01*
X205196262Y-117690028D01*
X205298586Y-117536889D01*
X205352233Y-117407373D01*
X215215001Y-107544605D01*
X215215001Y-118695000D01*
G37*
G04 #@! TD.AperFunction*
G04 #@! TD*
D26*
G04 #@! TO.N,GNDPWR*
X215215000Y-80415394D02*
X204064606Y-69265000D01*
X215215000Y-69265000D01*
X215215000Y-80415394D01*
G04 #@! TA.AperFunction,Conductor*
D27*
G36*
X215215000Y-80415394D02*
G01*
X204064606Y-69265000D01*
X215215000Y-69265000D01*
X215215000Y-80415394D01*
G37*
G04 #@! TD.AperFunction*
G04 #@! TD*
D26*
G04 #@! TO.N,GNDPWR*
X92125000Y-79862352D02*
X92125000Y-69265000D01*
X101208444Y-69265000D01*
X92125000Y-79862352D01*
G04 #@! TA.AperFunction,Conductor*
D27*
G36*
X92125000Y-79862352D02*
G01*
X92125000Y-69265000D01*
X101208444Y-69265000D01*
X92125000Y-79862352D01*
G37*
G04 #@! TD.AperFunction*
G04 #@! TD*
D26*
G04 #@! TO.N,GNDPWR*
X102695573Y-118672047D02*
X92125000Y-118669749D01*
X92125000Y-109611556D01*
X102695573Y-118672047D01*
G04 #@! TA.AperFunction,Conductor*
D27*
G36*
X102695573Y-118672047D02*
G01*
X92125000Y-118669749D01*
X92125000Y-109611556D01*
X102695573Y-118672047D01*
G37*
G04 #@! TD.AperFunction*
G04 #@! TD*
D26*
G04 #@! TO.N,GNDPWR*
X140248615Y-118680211D02*
X130421531Y-118678075D01*
X134631918Y-114467688D01*
X140248615Y-118680211D01*
G04 #@! TA.AperFunction,Conductor*
D27*
G36*
X140248615Y-118680211D02*
G01*
X130421531Y-118678075D01*
X134631918Y-114467688D01*
X140248615Y-118680211D01*
G37*
G04 #@! TD.AperFunction*
G04 #@! TD*
D26*
G04 #@! TO.N,GNDPWR*
X134620000Y-73480394D02*
X130404606Y-69265000D01*
X138835394Y-69265000D01*
X134620000Y-73480394D01*
G04 #@! TA.AperFunction,Conductor*
D27*
G36*
X134620000Y-73480394D02*
G01*
X130404606Y-69265000D01*
X138835394Y-69265000D01*
X134620000Y-73480394D01*
G37*
G04 #@! TD.AperFunction*
G04 #@! TD*
D26*
G04 #@! TO.N,GND*
X148717000Y-109601000D02*
X142367000Y-109601000D01*
X142367000Y-103251000D01*
X148717000Y-103251000D01*
X148717000Y-109601000D01*
G04 #@! TA.AperFunction,Conductor*
D27*
G36*
X148717000Y-109601000D02*
G01*
X142367000Y-109601000D01*
X142367000Y-103251000D01*
X148717000Y-103251000D01*
X148717000Y-109601000D01*
G37*
G04 #@! TD.AperFunction*
G04 #@! TD*
D26*
G04 #@! TO.N,3V3_Rail*
X152908000Y-103320179D02*
X152815742Y-103258534D01*
X152701635Y-103211269D01*
X152580500Y-103187174D01*
X152456992Y-103187174D01*
X152335857Y-103211269D01*
X152221750Y-103258534D01*
X152119057Y-103327151D01*
X152031723Y-103414485D01*
X151963106Y-103517178D01*
X151915841Y-103631285D01*
X151891746Y-103752420D01*
X151891746Y-103875928D01*
X151915841Y-103997063D01*
X151963106Y-104111170D01*
X152031723Y-104213863D01*
X152119057Y-104301197D01*
X152221750Y-104369814D01*
X152335857Y-104417079D01*
X152456992Y-104441174D01*
X152580500Y-104441174D01*
X152701635Y-104417079D01*
X152815742Y-104369814D01*
X152908000Y-104308169D01*
X152908000Y-106888573D01*
X152899628Y-106882979D01*
X152803720Y-106843252D01*
X152701905Y-106823000D01*
X152598095Y-106823000D01*
X152496280Y-106843252D01*
X152400372Y-106882979D01*
X152314057Y-106940652D01*
X152240652Y-107014057D01*
X152182979Y-107100372D01*
X152143252Y-107196280D01*
X152123000Y-107298095D01*
X152123000Y-107401905D01*
X152143252Y-107503720D01*
X152182979Y-107599628D01*
X152240652Y-107685943D01*
X152314057Y-107759348D01*
X152400372Y-107817021D01*
X152496280Y-107856748D01*
X152598095Y-107877000D01*
X152701905Y-107877000D01*
X152803720Y-107856748D01*
X152899628Y-107817021D01*
X152908000Y-107811427D01*
X152908000Y-113538000D01*
X139192000Y-113538000D01*
X139192000Y-112098095D01*
X139623000Y-112098095D01*
X139623000Y-112201905D01*
X139643252Y-112303720D01*
X139682979Y-112399628D01*
X139740652Y-112485943D01*
X139814057Y-112559348D01*
X139900372Y-112617021D01*
X139996280Y-112656748D01*
X140098095Y-112677000D01*
X140201905Y-112677000D01*
X140303720Y-112656748D01*
X140399628Y-112617021D01*
X140485943Y-112559348D01*
X140559348Y-112485943D01*
X140617021Y-112399628D01*
X140656748Y-112303720D01*
X140677000Y-112201905D01*
X140677000Y-112098095D01*
X140656748Y-111996280D01*
X140617021Y-111900372D01*
X140559348Y-111814057D01*
X140485943Y-111740652D01*
X140399628Y-111682979D01*
X140303720Y-111643252D01*
X140201905Y-111623000D01*
X140098095Y-111623000D01*
X139996280Y-111643252D01*
X139900372Y-111682979D01*
X139814057Y-111740652D01*
X139740652Y-111814057D01*
X139682979Y-111900372D01*
X139643252Y-111996280D01*
X139623000Y-112098095D01*
X139192000Y-112098095D01*
X139192000Y-111573095D01*
X143123000Y-111573095D01*
X143123000Y-111676905D01*
X143143252Y-111778720D01*
X143182979Y-111874628D01*
X143240652Y-111960943D01*
X143314057Y-112034348D01*
X143400372Y-112092021D01*
X143496280Y-112131748D01*
X143598095Y-112152000D01*
X143701905Y-112152000D01*
X143803720Y-112131748D01*
X143899628Y-112092021D01*
X143923010Y-112076398D01*
X143996280Y-112106748D01*
X144098095Y-112127000D01*
X144201905Y-112127000D01*
X144245477Y-112118333D01*
X144290652Y-112185943D01*
X144364057Y-112259348D01*
X144450372Y-112317021D01*
X144546280Y-112356748D01*
X144648095Y-112377000D01*
X144751905Y-112377000D01*
X144853720Y-112356748D01*
X144949628Y-112317021D01*
X145035943Y-112259348D01*
X145109348Y-112185943D01*
X145148732Y-112127000D01*
X145226905Y-112127000D01*
X145328720Y-112106748D01*
X145424628Y-112067021D01*
X145510943Y-112009348D01*
X145584348Y-111935943D01*
X145642021Y-111849628D01*
X145652145Y-111825188D01*
X145682979Y-111899628D01*
X145740652Y-111985943D01*
X145814057Y-112059348D01*
X145900372Y-112117021D01*
X145996280Y-112156748D01*
X146098095Y-112177000D01*
X146201905Y-112177000D01*
X146303720Y-112156748D01*
X146399628Y-112117021D01*
X146485943Y-112059348D01*
X146559348Y-111985943D01*
X146591217Y-111938246D01*
X146723000Y-111938246D01*
X146723000Y-112061754D01*
X146747095Y-112182889D01*
X146794360Y-112296996D01*
X146862977Y-112399689D01*
X146950311Y-112487023D01*
X147053004Y-112555640D01*
X147167111Y-112602905D01*
X147288246Y-112627000D01*
X147411754Y-112627000D01*
X147532889Y-112602905D01*
X147646996Y-112555640D01*
X147749689Y-112487023D01*
X147837023Y-112399689D01*
X147850000Y-112380267D01*
X147862977Y-112399689D01*
X147950311Y-112487023D01*
X148053004Y-112555640D01*
X148167111Y-112602905D01*
X148288246Y-112627000D01*
X148411754Y-112627000D01*
X148532889Y-112602905D01*
X148646996Y-112555640D01*
X148749689Y-112487023D01*
X148825000Y-112411712D01*
X148900311Y-112487023D01*
X149003004Y-112555640D01*
X149117111Y-112602905D01*
X149238246Y-112627000D01*
X149361754Y-112627000D01*
X149482889Y-112602905D01*
X149596996Y-112555640D01*
X149699689Y-112487023D01*
X149787023Y-112399689D01*
X149855640Y-112296996D01*
X149857000Y-112293712D01*
X149863811Y-112300523D01*
X149966504Y-112369140D01*
X150027253Y-112394303D01*
X149997095Y-112467111D01*
X149973000Y-112588246D01*
X149973000Y-112711754D01*
X149997095Y-112832889D01*
X150044360Y-112946996D01*
X150112977Y-113049689D01*
X150200311Y-113137023D01*
X150303004Y-113205640D01*
X150417111Y-113252905D01*
X150538246Y-113277000D01*
X150661754Y-113277000D01*
X150782889Y-113252905D01*
X150896996Y-113205640D01*
X150999689Y-113137023D01*
X151087023Y-113049689D01*
X151155640Y-112946996D01*
X151202905Y-112832889D01*
X151227000Y-112711754D01*
X151227000Y-112588246D01*
X151214326Y-112524529D01*
X151303720Y-112506748D01*
X151399628Y-112467021D01*
X151485943Y-112409348D01*
X151559348Y-112335943D01*
X151617021Y-112249628D01*
X151626394Y-112227000D01*
X151711754Y-112227000D01*
X151832889Y-112202905D01*
X151946996Y-112155640D01*
X152049689Y-112087023D01*
X152137023Y-111999689D01*
X152205640Y-111896996D01*
X152252905Y-111782889D01*
X152277000Y-111661754D01*
X152277000Y-111538246D01*
X152252905Y-111417111D01*
X152205640Y-111303004D01*
X152137023Y-111200311D01*
X152049689Y-111112977D01*
X151946996Y-111044360D01*
X151832889Y-110997095D01*
X151711754Y-110973000D01*
X151588246Y-110973000D01*
X151546515Y-110981301D01*
X151541405Y-110955611D01*
X151494140Y-110841504D01*
X151425523Y-110738811D01*
X151338189Y-110651477D01*
X151235496Y-110582860D01*
X151121389Y-110535595D01*
X151005045Y-110512453D01*
X151047023Y-110449628D01*
X151086750Y-110353720D01*
X151107002Y-110251905D01*
X151107002Y-110148095D01*
X151086750Y-110046280D01*
X151047023Y-109950372D01*
X150989350Y-109864057D01*
X150915945Y-109790652D01*
X150829630Y-109732979D01*
X150733722Y-109693252D01*
X150631907Y-109673000D01*
X150528097Y-109673000D01*
X150426282Y-109693252D01*
X150330374Y-109732979D01*
X150244059Y-109790652D01*
X150170654Y-109864057D01*
X150112981Y-109950372D01*
X150073254Y-110046280D01*
X150053002Y-110148095D01*
X150053002Y-110251905D01*
X150073254Y-110353720D01*
X150112981Y-110449628D01*
X150170654Y-110535943D01*
X150244059Y-110609348D01*
X150330374Y-110667021D01*
X150426282Y-110706748D01*
X150474040Y-110716248D01*
X150451477Y-110738811D01*
X150382860Y-110841504D01*
X150335595Y-110955611D01*
X150311500Y-111076746D01*
X150311500Y-111186500D01*
X150201746Y-111186500D01*
X150133285Y-111200118D01*
X150167021Y-111149628D01*
X150206748Y-111053720D01*
X150227000Y-110951905D01*
X150227000Y-110848095D01*
X150206748Y-110746280D01*
X150167021Y-110650372D01*
X150109348Y-110564057D01*
X150035943Y-110490652D01*
X149949628Y-110432979D01*
X149853720Y-110393252D01*
X149751905Y-110373000D01*
X149648095Y-110373000D01*
X149546280Y-110393252D01*
X149450372Y-110432979D01*
X149364057Y-110490652D01*
X149290652Y-110564057D01*
X149232979Y-110650372D01*
X149193252Y-110746280D01*
X149173000Y-110848095D01*
X149173000Y-110951905D01*
X149193252Y-111053720D01*
X149232979Y-111149628D01*
X149290652Y-111235943D01*
X149364057Y-111309348D01*
X149450372Y-111367021D01*
X149546280Y-111406748D01*
X149648095Y-111427000D01*
X149751905Y-111427000D01*
X149770080Y-111423385D01*
X149707860Y-111516504D01*
X149706500Y-111519788D01*
X149699689Y-111512977D01*
X149596996Y-111444360D01*
X149482889Y-111397095D01*
X149361754Y-111373000D01*
X149238246Y-111373000D01*
X149117111Y-111397095D01*
X149003004Y-111444360D01*
X148900311Y-111512977D01*
X148825000Y-111588288D01*
X148749689Y-111512977D01*
X148646996Y-111444360D01*
X148532889Y-111397095D01*
X148411754Y-111373000D01*
X148326394Y-111373000D01*
X148317021Y-111350372D01*
X148259348Y-111264057D01*
X148185943Y-111190652D01*
X148099628Y-111132979D01*
X148003720Y-111093252D01*
X147901905Y-111073000D01*
X147798095Y-111073000D01*
X147696280Y-111093252D01*
X147600372Y-111132979D01*
X147514057Y-111190652D01*
X147440652Y-111264057D01*
X147382979Y-111350372D01*
X147373606Y-111373000D01*
X147288246Y-111373000D01*
X147167111Y-111397095D01*
X147053004Y-111444360D01*
X146950311Y-111512977D01*
X146862977Y-111600311D01*
X146794360Y-111703004D01*
X146747095Y-111817111D01*
X146723000Y-111938246D01*
X146591217Y-111938246D01*
X146617021Y-111899628D01*
X146656748Y-111803720D01*
X146677000Y-111701905D01*
X146677000Y-111598095D01*
X146656748Y-111496280D01*
X146617021Y-111400372D01*
X146559348Y-111314057D01*
X146485943Y-111240652D01*
X146399628Y-111182979D01*
X146303720Y-111143252D01*
X146201905Y-111123000D01*
X146098095Y-111123000D01*
X145996280Y-111143252D01*
X145900372Y-111182979D01*
X145814057Y-111240652D01*
X145740652Y-111314057D01*
X145682979Y-111400372D01*
X145672855Y-111424812D01*
X145642021Y-111350372D01*
X145584348Y-111264057D01*
X145510943Y-111190652D01*
X145424628Y-111132979D01*
X145328720Y-111093252D01*
X145226905Y-111073000D01*
X145123095Y-111073000D01*
X145021280Y-111093252D01*
X144925372Y-111132979D01*
X144839057Y-111190652D01*
X144765652Y-111264057D01*
X144726268Y-111323000D01*
X144648095Y-111323000D01*
X144604523Y-111331667D01*
X144559348Y-111264057D01*
X144485943Y-111190652D01*
X144399628Y-111132979D01*
X144303720Y-111093252D01*
X144201905Y-111073000D01*
X144098095Y-111073000D01*
X143996280Y-111093252D01*
X143900372Y-111132979D01*
X143876990Y-111148602D01*
X143803720Y-111118252D01*
X143701905Y-111098000D01*
X143598095Y-111098000D01*
X143496280Y-111118252D01*
X143400372Y-111157979D01*
X143314057Y-111215652D01*
X143240652Y-111289057D01*
X143182979Y-111375372D01*
X143143252Y-111471280D01*
X143123000Y-111573095D01*
X139192000Y-111573095D01*
X139192000Y-109188246D01*
X139449000Y-109188246D01*
X139449000Y-109311754D01*
X139473095Y-109432889D01*
X139520360Y-109546996D01*
X139588977Y-109649689D01*
X139676311Y-109737023D01*
X139779004Y-109805640D01*
X139893111Y-109852905D01*
X140014246Y-109877000D01*
X140137754Y-109877000D01*
X140258889Y-109852905D01*
X140372996Y-109805640D01*
X140475689Y-109737023D01*
X140563023Y-109649689D01*
X140631640Y-109546996D01*
X140678905Y-109432889D01*
X140703000Y-109311754D01*
X140703000Y-109188246D01*
X140678905Y-109067111D01*
X140631640Y-108953004D01*
X140563023Y-108850311D01*
X140475689Y-108762977D01*
X140424893Y-108729036D01*
X140523689Y-108663023D01*
X140611023Y-108575689D01*
X140679640Y-108472996D01*
X140726905Y-108358889D01*
X140751000Y-108237754D01*
X140751000Y-108114246D01*
X140726905Y-107993111D01*
X140679640Y-107879004D01*
X140611023Y-107776311D01*
X140523689Y-107688977D01*
X140453328Y-107641963D01*
X140484348Y-107610943D01*
X140542021Y-107524628D01*
X140581748Y-107428720D01*
X140602000Y-107326905D01*
X140602000Y-107223095D01*
X140581748Y-107121280D01*
X140543456Y-107028835D01*
X140560348Y-107011943D01*
X140618021Y-106925628D01*
X140657748Y-106829720D01*
X140678000Y-106727905D01*
X140678000Y-106624095D01*
X140657748Y-106522280D01*
X140618021Y-106426372D01*
X140617180Y-106425113D01*
X140656698Y-106329710D01*
X140676950Y-106227895D01*
X140676950Y-106124085D01*
X140656698Y-106022270D01*
X140616971Y-105926362D01*
X140559298Y-105840047D01*
X140485893Y-105766642D01*
X140399578Y-105708969D01*
X140303670Y-105669242D01*
X140201855Y-105648990D01*
X140098045Y-105648990D01*
X139996230Y-105669242D01*
X139900322Y-105708969D01*
X139814007Y-105766642D01*
X139740602Y-105840047D01*
X139682929Y-105926362D01*
X139643202Y-106022270D01*
X139622950Y-106124085D01*
X139622950Y-106227895D01*
X139643202Y-106329710D01*
X139682929Y-106425618D01*
X139683770Y-106426877D01*
X139644252Y-106522280D01*
X139624000Y-106624095D01*
X139624000Y-106727905D01*
X139644252Y-106829720D01*
X139682544Y-106922165D01*
X139665652Y-106939057D01*
X139607979Y-107025372D01*
X139568252Y-107121280D01*
X139548000Y-107223095D01*
X139548000Y-107326905D01*
X139568252Y-107428720D01*
X139607979Y-107524628D01*
X139665652Y-107610943D01*
X139735925Y-107681216D01*
X139724311Y-107688977D01*
X139636977Y-107776311D01*
X139568360Y-107879004D01*
X139521095Y-107993111D01*
X139497000Y-108114246D01*
X139497000Y-108237754D01*
X139521095Y-108358889D01*
X139568360Y-108472996D01*
X139636977Y-108575689D01*
X139724311Y-108663023D01*
X139775107Y-108696964D01*
X139676311Y-108762977D01*
X139588977Y-108850311D01*
X139520360Y-108953004D01*
X139473095Y-109067111D01*
X139449000Y-109188246D01*
X139192000Y-109188246D01*
X139192000Y-104638246D01*
X139498000Y-104638246D01*
X139498000Y-104761754D01*
X139522095Y-104882889D01*
X139569360Y-104996996D01*
X139637977Y-105099689D01*
X139725311Y-105187023D01*
X139828004Y-105255640D01*
X139942111Y-105302905D01*
X140063246Y-105327000D01*
X140186754Y-105327000D01*
X140307889Y-105302905D01*
X140421996Y-105255640D01*
X140524689Y-105187023D01*
X140612023Y-105099689D01*
X140680640Y-104996996D01*
X140727905Y-104882889D01*
X140752000Y-104761754D01*
X140752000Y-104638246D01*
X140727905Y-104517111D01*
X140680640Y-104403004D01*
X140612023Y-104300311D01*
X140524689Y-104212977D01*
X140421996Y-104144360D01*
X140307889Y-104097095D01*
X140186754Y-104073000D01*
X140063246Y-104073000D01*
X139942111Y-104097095D01*
X139828004Y-104144360D01*
X139725311Y-104212977D01*
X139637977Y-104300311D01*
X139569360Y-104403004D01*
X139522095Y-104517111D01*
X139498000Y-104638246D01*
X139192000Y-104638246D01*
X139192000Y-103124000D01*
X141913000Y-103124000D01*
X141913000Y-109728000D01*
X141919283Y-109791795D01*
X141937891Y-109853137D01*
X141968109Y-109909671D01*
X142008776Y-109959224D01*
X142058329Y-109999891D01*
X142114863Y-110030109D01*
X142176205Y-110048717D01*
X142240000Y-110055000D01*
X148844000Y-110055000D01*
X148907795Y-110048717D01*
X148969137Y-110030109D01*
X149025671Y-109999891D01*
X149075224Y-109959224D01*
X149115891Y-109909671D01*
X149146109Y-109853137D01*
X149164717Y-109791795D01*
X149171000Y-109728000D01*
X149171000Y-106598095D01*
X150173000Y-106598095D01*
X150173000Y-106701905D01*
X150193252Y-106803720D01*
X150232979Y-106899628D01*
X150241580Y-106912500D01*
X150232979Y-106925372D01*
X150193252Y-107021280D01*
X150173000Y-107123095D01*
X150173000Y-107226905D01*
X150193252Y-107328720D01*
X150232979Y-107424628D01*
X150233228Y-107425000D01*
X150232979Y-107425372D01*
X150193252Y-107521280D01*
X150173000Y-107623095D01*
X150173000Y-107726905D01*
X150193252Y-107828720D01*
X150232979Y-107924628D01*
X150233228Y-107925000D01*
X150232979Y-107925372D01*
X150193252Y-108021280D01*
X150173000Y-108123095D01*
X150173000Y-108226905D01*
X150193252Y-108328720D01*
X150232979Y-108424628D01*
X150290652Y-108510943D01*
X150364057Y-108584348D01*
X150450372Y-108642021D01*
X150546280Y-108681748D01*
X150648095Y-108702000D01*
X150751905Y-108702000D01*
X150853720Y-108681748D01*
X150949628Y-108642021D01*
X151035943Y-108584348D01*
X151109348Y-108510943D01*
X151167021Y-108424628D01*
X151206748Y-108328720D01*
X151227000Y-108226905D01*
X151227000Y-108123095D01*
X151206748Y-108021280D01*
X151167021Y-107925372D01*
X151166772Y-107925000D01*
X151167021Y-107924628D01*
X151206748Y-107828720D01*
X151227000Y-107726905D01*
X151227000Y-107623095D01*
X151206748Y-107521280D01*
X151167021Y-107425372D01*
X151166772Y-107425000D01*
X151167021Y-107424628D01*
X151206748Y-107328720D01*
X151227000Y-107226905D01*
X151227000Y-107123095D01*
X151206748Y-107021280D01*
X151167021Y-106925372D01*
X151158420Y-106912500D01*
X151167021Y-106899628D01*
X151206748Y-106803720D01*
X151227000Y-106701905D01*
X151227000Y-106598095D01*
X151218956Y-106557655D01*
X151228812Y-106551069D01*
X151316146Y-106463735D01*
X151384763Y-106361042D01*
X151432028Y-106246935D01*
X151456123Y-106125800D01*
X151456123Y-106002292D01*
X151432028Y-105881157D01*
X151384763Y-105767050D01*
X151316146Y-105664357D01*
X151228812Y-105577023D01*
X151126119Y-105508406D01*
X151012012Y-105461141D01*
X150890877Y-105437046D01*
X150767369Y-105437046D01*
X150646234Y-105461141D01*
X150532127Y-105508406D01*
X150429434Y-105577023D01*
X150342100Y-105664357D01*
X150273483Y-105767050D01*
X150226218Y-105881157D01*
X150202123Y-106002292D01*
X150202123Y-106125800D01*
X150226218Y-106246935D01*
X150268039Y-106347900D01*
X150232979Y-106400372D01*
X150193252Y-106496280D01*
X150173000Y-106598095D01*
X149171000Y-106598095D01*
X149171000Y-103124000D01*
X149164717Y-103060205D01*
X149146109Y-102998863D01*
X149115891Y-102942329D01*
X149075224Y-102892776D01*
X149025671Y-102852109D01*
X148969137Y-102821891D01*
X148907795Y-102803283D01*
X148844000Y-102797000D01*
X142240000Y-102797000D01*
X142176205Y-102803283D01*
X142114863Y-102821891D01*
X142058329Y-102852109D01*
X142008776Y-102892776D01*
X141968109Y-102942329D01*
X141937891Y-102998863D01*
X141919283Y-103060205D01*
X141913000Y-103124000D01*
X139192000Y-103124000D01*
X139192000Y-101047288D01*
X142537986Y-101047288D01*
X142537986Y-101170796D01*
X142562081Y-101291931D01*
X142609346Y-101406038D01*
X142677963Y-101508731D01*
X142765297Y-101596065D01*
X142867990Y-101664682D01*
X142982097Y-101711947D01*
X143103232Y-101736042D01*
X143226740Y-101736042D01*
X143347875Y-101711947D01*
X143461982Y-101664682D01*
X143564675Y-101596065D01*
X143652009Y-101508731D01*
X143720626Y-101406038D01*
X143767891Y-101291931D01*
X143791986Y-101170796D01*
X143791986Y-101047288D01*
X143787204Y-101023246D01*
X145038000Y-101023246D01*
X145038000Y-101146754D01*
X145062095Y-101267889D01*
X145109360Y-101381996D01*
X145177977Y-101484689D01*
X145265311Y-101572023D01*
X145368004Y-101640640D01*
X145482111Y-101687905D01*
X145603246Y-101712000D01*
X145726754Y-101712000D01*
X145847889Y-101687905D01*
X145961996Y-101640640D01*
X146064689Y-101572023D01*
X146152023Y-101484689D01*
X146220640Y-101381996D01*
X146267905Y-101267889D01*
X146292000Y-101146754D01*
X146292000Y-101038246D01*
X146523000Y-101038246D01*
X146523000Y-101161754D01*
X146547095Y-101282889D01*
X146594360Y-101396996D01*
X146662977Y-101499689D01*
X146750311Y-101587023D01*
X146853004Y-101655640D01*
X146967111Y-101702905D01*
X147088246Y-101727000D01*
X147211754Y-101727000D01*
X147332889Y-101702905D01*
X147446996Y-101655640D01*
X147549689Y-101587023D01*
X147637023Y-101499689D01*
X147705640Y-101396996D01*
X147752905Y-101282889D01*
X147777000Y-101161754D01*
X147777000Y-101038246D01*
X147752905Y-100917111D01*
X147705640Y-100803004D01*
X147637023Y-100700311D01*
X147549689Y-100612977D01*
X147446996Y-100544360D01*
X147332889Y-100497095D01*
X147211754Y-100473000D01*
X147088246Y-100473000D01*
X146967111Y-100497095D01*
X146853004Y-100544360D01*
X146750311Y-100612977D01*
X146662977Y-100700311D01*
X146594360Y-100803004D01*
X146547095Y-100917111D01*
X146523000Y-101038246D01*
X146292000Y-101038246D01*
X146292000Y-101023246D01*
X146267905Y-100902111D01*
X146220640Y-100788004D01*
X146152023Y-100685311D01*
X146064689Y-100597977D01*
X145961996Y-100529360D01*
X145847889Y-100482095D01*
X145726754Y-100458000D01*
X145603246Y-100458000D01*
X145482111Y-100482095D01*
X145368004Y-100529360D01*
X145265311Y-100597977D01*
X145177977Y-100685311D01*
X145109360Y-100788004D01*
X145062095Y-100902111D01*
X145038000Y-101023246D01*
X143787204Y-101023246D01*
X143767891Y-100926153D01*
X143720626Y-100812046D01*
X143652009Y-100709353D01*
X143564675Y-100622019D01*
X143461982Y-100553402D01*
X143347875Y-100506137D01*
X143226740Y-100482042D01*
X143103232Y-100482042D01*
X142982097Y-100506137D01*
X142867990Y-100553402D01*
X142765297Y-100622019D01*
X142677963Y-100709353D01*
X142609346Y-100812046D01*
X142562081Y-100926153D01*
X142537986Y-101047288D01*
X139192000Y-101047288D01*
X139192000Y-97917000D01*
X152908000Y-97917000D01*
X152908000Y-103320179D01*
G04 #@! TA.AperFunction,Conductor*
D27*
G36*
X152908000Y-103320179D02*
G01*
X152815742Y-103258534D01*
X152701635Y-103211269D01*
X152580500Y-103187174D01*
X152456992Y-103187174D01*
X152335857Y-103211269D01*
X152221750Y-103258534D01*
X152119057Y-103327151D01*
X152031723Y-103414485D01*
X151963106Y-103517178D01*
X151915841Y-103631285D01*
X151891746Y-103752420D01*
X151891746Y-103875928D01*
X151915841Y-103997063D01*
X151963106Y-104111170D01*
X152031723Y-104213863D01*
X152119057Y-104301197D01*
X152221750Y-104369814D01*
X152335857Y-104417079D01*
X152456992Y-104441174D01*
X152580500Y-104441174D01*
X152701635Y-104417079D01*
X152815742Y-104369814D01*
X152908000Y-104308169D01*
X152908000Y-106888573D01*
X152899628Y-106882979D01*
X152803720Y-106843252D01*
X152701905Y-106823000D01*
X152598095Y-106823000D01*
X152496280Y-106843252D01*
X152400372Y-106882979D01*
X152314057Y-106940652D01*
X152240652Y-107014057D01*
X152182979Y-107100372D01*
X152143252Y-107196280D01*
X152123000Y-107298095D01*
X152123000Y-107401905D01*
X152143252Y-107503720D01*
X152182979Y-107599628D01*
X152240652Y-107685943D01*
X152314057Y-107759348D01*
X152400372Y-107817021D01*
X152496280Y-107856748D01*
X152598095Y-107877000D01*
X152701905Y-107877000D01*
X152803720Y-107856748D01*
X152899628Y-107817021D01*
X152908000Y-107811427D01*
X152908000Y-113538000D01*
X139192000Y-113538000D01*
X139192000Y-112098095D01*
X139623000Y-112098095D01*
X139623000Y-112201905D01*
X139643252Y-112303720D01*
X139682979Y-112399628D01*
X139740652Y-112485943D01*
X139814057Y-112559348D01*
X139900372Y-112617021D01*
X139996280Y-112656748D01*
X140098095Y-112677000D01*
X140201905Y-112677000D01*
X140303720Y-112656748D01*
X140399628Y-112617021D01*
X140485943Y-112559348D01*
X140559348Y-112485943D01*
X140617021Y-112399628D01*
X140656748Y-112303720D01*
X140677000Y-112201905D01*
X140677000Y-112098095D01*
X140656748Y-111996280D01*
X140617021Y-111900372D01*
X140559348Y-111814057D01*
X140485943Y-111740652D01*
X140399628Y-111682979D01*
X140303720Y-111643252D01*
X140201905Y-111623000D01*
X140098095Y-111623000D01*
X139996280Y-111643252D01*
X139900372Y-111682979D01*
X139814057Y-111740652D01*
X139740652Y-111814057D01*
X139682979Y-111900372D01*
X139643252Y-111996280D01*
X139623000Y-112098095D01*
X139192000Y-112098095D01*
X139192000Y-111573095D01*
X143123000Y-111573095D01*
X143123000Y-111676905D01*
X143143252Y-111778720D01*
X143182979Y-111874628D01*
X143240652Y-111960943D01*
X143314057Y-112034348D01*
X143400372Y-112092021D01*
X143496280Y-112131748D01*
X143598095Y-112152000D01*
X143701905Y-112152000D01*
X143803720Y-112131748D01*
X143899628Y-112092021D01*
X143923010Y-112076398D01*
X143996280Y-112106748D01*
X144098095Y-112127000D01*
X144201905Y-112127000D01*
X144245477Y-112118333D01*
X144290652Y-112185943D01*
X144364057Y-112259348D01*
X144450372Y-112317021D01*
X144546280Y-112356748D01*
X144648095Y-112377000D01*
X144751905Y-112377000D01*
X144853720Y-112356748D01*
X144949628Y-112317021D01*
X145035943Y-112259348D01*
X145109348Y-112185943D01*
X145148732Y-112127000D01*
X145226905Y-112127000D01*
X145328720Y-112106748D01*
X145424628Y-112067021D01*
X145510943Y-112009348D01*
X145584348Y-111935943D01*
X145642021Y-111849628D01*
X145652145Y-111825188D01*
X145682979Y-111899628D01*
X145740652Y-111985943D01*
X145814057Y-112059348D01*
X145900372Y-112117021D01*
X145996280Y-112156748D01*
X146098095Y-112177000D01*
X146201905Y-112177000D01*
X146303720Y-112156748D01*
X146399628Y-112117021D01*
X146485943Y-112059348D01*
X146559348Y-111985943D01*
X146591217Y-111938246D01*
X146723000Y-111938246D01*
X146723000Y-112061754D01*
X146747095Y-112182889D01*
X146794360Y-112296996D01*
X146862977Y-112399689D01*
X146950311Y-112487023D01*
X147053004Y-112555640D01*
X147167111Y-112602905D01*
X147288246Y-112627000D01*
X147411754Y-112627000D01*
X147532889Y-112602905D01*
X147646996Y-112555640D01*
X147749689Y-112487023D01*
X147837023Y-112399689D01*
X147850000Y-112380267D01*
X147862977Y-112399689D01*
X147950311Y-112487023D01*
X148053004Y-112555640D01*
X148167111Y-112602905D01*
X148288246Y-112627000D01*
X148411754Y-112627000D01*
X148532889Y-112602905D01*
X148646996Y-112555640D01*
X148749689Y-112487023D01*
X148825000Y-112411712D01*
X148900311Y-112487023D01*
X149003004Y-112555640D01*
X149117111Y-112602905D01*
X149238246Y-112627000D01*
X149361754Y-112627000D01*
X149482889Y-112602905D01*
X149596996Y-112555640D01*
X149699689Y-112487023D01*
X149787023Y-112399689D01*
X149855640Y-112296996D01*
X149857000Y-112293712D01*
X149863811Y-112300523D01*
X149966504Y-112369140D01*
X150027253Y-112394303D01*
X149997095Y-112467111D01*
X149973000Y-112588246D01*
X149973000Y-112711754D01*
X149997095Y-112832889D01*
X150044360Y-112946996D01*
X150112977Y-113049689D01*
X150200311Y-113137023D01*
X150303004Y-113205640D01*
X150417111Y-113252905D01*
X150538246Y-113277000D01*
X150661754Y-113277000D01*
X150782889Y-113252905D01*
X150896996Y-113205640D01*
X150999689Y-113137023D01*
X151087023Y-113049689D01*
X151155640Y-112946996D01*
X151202905Y-112832889D01*
X151227000Y-112711754D01*
X151227000Y-112588246D01*
X151214326Y-112524529D01*
X151303720Y-112506748D01*
X151399628Y-112467021D01*
X151485943Y-112409348D01*
X151559348Y-112335943D01*
X151617021Y-112249628D01*
X151626394Y-112227000D01*
X151711754Y-112227000D01*
X151832889Y-112202905D01*
X151946996Y-112155640D01*
X152049689Y-112087023D01*
X152137023Y-111999689D01*
X152205640Y-111896996D01*
X152252905Y-111782889D01*
X152277000Y-111661754D01*
X152277000Y-111538246D01*
X152252905Y-111417111D01*
X152205640Y-111303004D01*
X152137023Y-111200311D01*
X152049689Y-111112977D01*
X151946996Y-111044360D01*
X151832889Y-110997095D01*
X151711754Y-110973000D01*
X151588246Y-110973000D01*
X151546515Y-110981301D01*
X151541405Y-110955611D01*
X151494140Y-110841504D01*
X151425523Y-110738811D01*
X151338189Y-110651477D01*
X151235496Y-110582860D01*
X151121389Y-110535595D01*
X151005045Y-110512453D01*
X151047023Y-110449628D01*
X151086750Y-110353720D01*
X151107002Y-110251905D01*
X151107002Y-110148095D01*
X151086750Y-110046280D01*
X151047023Y-109950372D01*
X150989350Y-109864057D01*
X150915945Y-109790652D01*
X150829630Y-109732979D01*
X150733722Y-109693252D01*
X150631907Y-109673000D01*
X150528097Y-109673000D01*
X150426282Y-109693252D01*
X150330374Y-109732979D01*
X150244059Y-109790652D01*
X150170654Y-109864057D01*
X150112981Y-109950372D01*
X150073254Y-110046280D01*
X150053002Y-110148095D01*
X150053002Y-110251905D01*
X150073254Y-110353720D01*
X150112981Y-110449628D01*
X150170654Y-110535943D01*
X150244059Y-110609348D01*
X150330374Y-110667021D01*
X150426282Y-110706748D01*
X150474040Y-110716248D01*
X150451477Y-110738811D01*
X150382860Y-110841504D01*
X150335595Y-110955611D01*
X150311500Y-111076746D01*
X150311500Y-111186500D01*
X150201746Y-111186500D01*
X150133285Y-111200118D01*
X150167021Y-111149628D01*
X150206748Y-111053720D01*
X150227000Y-110951905D01*
X150227000Y-110848095D01*
X150206748Y-110746280D01*
X150167021Y-110650372D01*
X150109348Y-110564057D01*
X150035943Y-110490652D01*
X149949628Y-110432979D01*
X149853720Y-110393252D01*
X149751905Y-110373000D01*
X149648095Y-110373000D01*
X149546280Y-110393252D01*
X149450372Y-110432979D01*
X149364057Y-110490652D01*
X149290652Y-110564057D01*
X149232979Y-110650372D01*
X149193252Y-110746280D01*
X149173000Y-110848095D01*
X149173000Y-110951905D01*
X149193252Y-111053720D01*
X149232979Y-111149628D01*
X149290652Y-111235943D01*
X149364057Y-111309348D01*
X149450372Y-111367021D01*
X149546280Y-111406748D01*
X149648095Y-111427000D01*
X149751905Y-111427000D01*
X149770080Y-111423385D01*
X149707860Y-111516504D01*
X149706500Y-111519788D01*
X149699689Y-111512977D01*
X149596996Y-111444360D01*
X149482889Y-111397095D01*
X149361754Y-111373000D01*
X149238246Y-111373000D01*
X149117111Y-111397095D01*
X149003004Y-111444360D01*
X148900311Y-111512977D01*
X148825000Y-111588288D01*
X148749689Y-111512977D01*
X148646996Y-111444360D01*
X148532889Y-111397095D01*
X148411754Y-111373000D01*
X148326394Y-111373000D01*
X148317021Y-111350372D01*
X148259348Y-111264057D01*
X148185943Y-111190652D01*
X148099628Y-111132979D01*
X148003720Y-111093252D01*
X147901905Y-111073000D01*
X147798095Y-111073000D01*
X147696280Y-111093252D01*
X147600372Y-111132979D01*
X147514057Y-111190652D01*
X147440652Y-111264057D01*
X147382979Y-111350372D01*
X147373606Y-111373000D01*
X147288246Y-111373000D01*
X147167111Y-111397095D01*
X147053004Y-111444360D01*
X146950311Y-111512977D01*
X146862977Y-111600311D01*
X146794360Y-111703004D01*
X146747095Y-111817111D01*
X146723000Y-111938246D01*
X146591217Y-111938246D01*
X146617021Y-111899628D01*
X146656748Y-111803720D01*
X146677000Y-111701905D01*
X146677000Y-111598095D01*
X146656748Y-111496280D01*
X146617021Y-111400372D01*
X146559348Y-111314057D01*
X146485943Y-111240652D01*
X146399628Y-111182979D01*
X146303720Y-111143252D01*
X146201905Y-111123000D01*
X146098095Y-111123000D01*
X145996280Y-111143252D01*
X145900372Y-111182979D01*
X145814057Y-111240652D01*
X145740652Y-111314057D01*
X145682979Y-111400372D01*
X145672855Y-111424812D01*
X145642021Y-111350372D01*
X145584348Y-111264057D01*
X145510943Y-111190652D01*
X145424628Y-111132979D01*
X145328720Y-111093252D01*
X145226905Y-111073000D01*
X145123095Y-111073000D01*
X145021280Y-111093252D01*
X144925372Y-111132979D01*
X144839057Y-111190652D01*
X144765652Y-111264057D01*
X144726268Y-111323000D01*
X144648095Y-111323000D01*
X144604523Y-111331667D01*
X144559348Y-111264057D01*
X144485943Y-111190652D01*
X144399628Y-111132979D01*
X144303720Y-111093252D01*
X144201905Y-111073000D01*
X144098095Y-111073000D01*
X143996280Y-111093252D01*
X143900372Y-111132979D01*
X143876990Y-111148602D01*
X143803720Y-111118252D01*
X143701905Y-111098000D01*
X143598095Y-111098000D01*
X143496280Y-111118252D01*
X143400372Y-111157979D01*
X143314057Y-111215652D01*
X143240652Y-111289057D01*
X143182979Y-111375372D01*
X143143252Y-111471280D01*
X143123000Y-111573095D01*
X139192000Y-111573095D01*
X139192000Y-109188246D01*
X139449000Y-109188246D01*
X139449000Y-109311754D01*
X139473095Y-109432889D01*
X139520360Y-109546996D01*
X139588977Y-109649689D01*
X139676311Y-109737023D01*
X139779004Y-109805640D01*
X139893111Y-109852905D01*
X140014246Y-109877000D01*
X140137754Y-109877000D01*
X140258889Y-109852905D01*
X140372996Y-109805640D01*
X140475689Y-109737023D01*
X140563023Y-109649689D01*
X140631640Y-109546996D01*
X140678905Y-109432889D01*
X140703000Y-109311754D01*
X140703000Y-109188246D01*
X140678905Y-109067111D01*
X140631640Y-108953004D01*
X140563023Y-108850311D01*
X140475689Y-108762977D01*
X140424893Y-108729036D01*
X140523689Y-108663023D01*
X140611023Y-108575689D01*
X140679640Y-108472996D01*
X140726905Y-108358889D01*
X140751000Y-108237754D01*
X140751000Y-108114246D01*
X140726905Y-107993111D01*
X140679640Y-107879004D01*
X140611023Y-107776311D01*
X140523689Y-107688977D01*
X140453328Y-107641963D01*
X140484348Y-107610943D01*
X140542021Y-107524628D01*
X140581748Y-107428720D01*
X140602000Y-107326905D01*
X140602000Y-107223095D01*
X140581748Y-107121280D01*
X140543456Y-107028835D01*
X140560348Y-107011943D01*
X140618021Y-106925628D01*
X140657748Y-106829720D01*
X140678000Y-106727905D01*
X140678000Y-106624095D01*
X140657748Y-106522280D01*
X140618021Y-106426372D01*
X140617180Y-106425113D01*
X140656698Y-106329710D01*
X140676950Y-106227895D01*
X140676950Y-106124085D01*
X140656698Y-106022270D01*
X140616971Y-105926362D01*
X140559298Y-105840047D01*
X140485893Y-105766642D01*
X140399578Y-105708969D01*
X140303670Y-105669242D01*
X140201855Y-105648990D01*
X140098045Y-105648990D01*
X139996230Y-105669242D01*
X139900322Y-105708969D01*
X139814007Y-105766642D01*
X139740602Y-105840047D01*
X139682929Y-105926362D01*
X139643202Y-106022270D01*
X139622950Y-106124085D01*
X139622950Y-106227895D01*
X139643202Y-106329710D01*
X139682929Y-106425618D01*
X139683770Y-106426877D01*
X139644252Y-106522280D01*
X139624000Y-106624095D01*
X139624000Y-106727905D01*
X139644252Y-106829720D01*
X139682544Y-106922165D01*
X139665652Y-106939057D01*
X139607979Y-107025372D01*
X139568252Y-107121280D01*
X139548000Y-107223095D01*
X139548000Y-107326905D01*
X139568252Y-107428720D01*
X139607979Y-107524628D01*
X139665652Y-107610943D01*
X139735925Y-107681216D01*
X139724311Y-107688977D01*
X139636977Y-107776311D01*
X139568360Y-107879004D01*
X139521095Y-107993111D01*
X139497000Y-108114246D01*
X139497000Y-108237754D01*
X139521095Y-108358889D01*
X139568360Y-108472996D01*
X139636977Y-108575689D01*
X139724311Y-108663023D01*
X139775107Y-108696964D01*
X139676311Y-108762977D01*
X139588977Y-108850311D01*
X139520360Y-108953004D01*
X139473095Y-109067111D01*
X139449000Y-109188246D01*
X139192000Y-109188246D01*
X139192000Y-104638246D01*
X139498000Y-104638246D01*
X139498000Y-104761754D01*
X139522095Y-104882889D01*
X139569360Y-104996996D01*
X139637977Y-105099689D01*
X139725311Y-105187023D01*
X139828004Y-105255640D01*
X139942111Y-105302905D01*
X140063246Y-105327000D01*
X140186754Y-105327000D01*
X140307889Y-105302905D01*
X140421996Y-105255640D01*
X140524689Y-105187023D01*
X140612023Y-105099689D01*
X140680640Y-104996996D01*
X140727905Y-104882889D01*
X140752000Y-104761754D01*
X140752000Y-104638246D01*
X140727905Y-104517111D01*
X140680640Y-104403004D01*
X140612023Y-104300311D01*
X140524689Y-104212977D01*
X140421996Y-104144360D01*
X140307889Y-104097095D01*
X140186754Y-104073000D01*
X140063246Y-104073000D01*
X139942111Y-104097095D01*
X139828004Y-104144360D01*
X139725311Y-104212977D01*
X139637977Y-104300311D01*
X139569360Y-104403004D01*
X139522095Y-104517111D01*
X139498000Y-104638246D01*
X139192000Y-104638246D01*
X139192000Y-103124000D01*
X141913000Y-103124000D01*
X141913000Y-109728000D01*
X141919283Y-109791795D01*
X141937891Y-109853137D01*
X141968109Y-109909671D01*
X142008776Y-109959224D01*
X142058329Y-109999891D01*
X142114863Y-110030109D01*
X142176205Y-110048717D01*
X142240000Y-110055000D01*
X148844000Y-110055000D01*
X148907795Y-110048717D01*
X148969137Y-110030109D01*
X149025671Y-109999891D01*
X149075224Y-109959224D01*
X149115891Y-109909671D01*
X149146109Y-109853137D01*
X149164717Y-109791795D01*
X149171000Y-109728000D01*
X149171000Y-106598095D01*
X150173000Y-106598095D01*
X150173000Y-106701905D01*
X150193252Y-106803720D01*
X150232979Y-106899628D01*
X150241580Y-106912500D01*
X150232979Y-106925372D01*
X150193252Y-107021280D01*
X150173000Y-107123095D01*
X150173000Y-107226905D01*
X150193252Y-107328720D01*
X150232979Y-107424628D01*
X150233228Y-107425000D01*
X150232979Y-107425372D01*
X150193252Y-107521280D01*
X150173000Y-107623095D01*
X150173000Y-107726905D01*
X150193252Y-107828720D01*
X150232979Y-107924628D01*
X150233228Y-107925000D01*
X150232979Y-107925372D01*
X150193252Y-108021280D01*
X150173000Y-108123095D01*
X150173000Y-108226905D01*
X150193252Y-108328720D01*
X150232979Y-108424628D01*
X150290652Y-108510943D01*
X150364057Y-108584348D01*
X150450372Y-108642021D01*
X150546280Y-108681748D01*
X150648095Y-108702000D01*
X150751905Y-108702000D01*
X150853720Y-108681748D01*
X150949628Y-108642021D01*
X151035943Y-108584348D01*
X151109348Y-108510943D01*
X151167021Y-108424628D01*
X151206748Y-108328720D01*
X151227000Y-108226905D01*
X151227000Y-108123095D01*
X151206748Y-108021280D01*
X151167021Y-107925372D01*
X151166772Y-107925000D01*
X151167021Y-107924628D01*
X151206748Y-107828720D01*
X151227000Y-107726905D01*
X151227000Y-107623095D01*
X151206748Y-107521280D01*
X151167021Y-107425372D01*
X151166772Y-107425000D01*
X151167021Y-107424628D01*
X151206748Y-107328720D01*
X151227000Y-107226905D01*
X151227000Y-107123095D01*
X151206748Y-107021280D01*
X151167021Y-106925372D01*
X151158420Y-106912500D01*
X151167021Y-106899628D01*
X151206748Y-106803720D01*
X151227000Y-106701905D01*
X151227000Y-106598095D01*
X151218956Y-106557655D01*
X151228812Y-106551069D01*
X151316146Y-106463735D01*
X151384763Y-106361042D01*
X151432028Y-106246935D01*
X151456123Y-106125800D01*
X151456123Y-106002292D01*
X151432028Y-105881157D01*
X151384763Y-105767050D01*
X151316146Y-105664357D01*
X151228812Y-105577023D01*
X151126119Y-105508406D01*
X151012012Y-105461141D01*
X150890877Y-105437046D01*
X150767369Y-105437046D01*
X150646234Y-105461141D01*
X150532127Y-105508406D01*
X150429434Y-105577023D01*
X150342100Y-105664357D01*
X150273483Y-105767050D01*
X150226218Y-105881157D01*
X150202123Y-106002292D01*
X150202123Y-106125800D01*
X150226218Y-106246935D01*
X150268039Y-106347900D01*
X150232979Y-106400372D01*
X150193252Y-106496280D01*
X150173000Y-106598095D01*
X149171000Y-106598095D01*
X149171000Y-103124000D01*
X149164717Y-103060205D01*
X149146109Y-102998863D01*
X149115891Y-102942329D01*
X149075224Y-102892776D01*
X149025671Y-102852109D01*
X148969137Y-102821891D01*
X148907795Y-102803283D01*
X148844000Y-102797000D01*
X142240000Y-102797000D01*
X142176205Y-102803283D01*
X142114863Y-102821891D01*
X142058329Y-102852109D01*
X142008776Y-102892776D01*
X141968109Y-102942329D01*
X141937891Y-102998863D01*
X141919283Y-103060205D01*
X141913000Y-103124000D01*
X139192000Y-103124000D01*
X139192000Y-101047288D01*
X142537986Y-101047288D01*
X142537986Y-101170796D01*
X142562081Y-101291931D01*
X142609346Y-101406038D01*
X142677963Y-101508731D01*
X142765297Y-101596065D01*
X142867990Y-101664682D01*
X142982097Y-101711947D01*
X143103232Y-101736042D01*
X143226740Y-101736042D01*
X143347875Y-101711947D01*
X143461982Y-101664682D01*
X143564675Y-101596065D01*
X143652009Y-101508731D01*
X143720626Y-101406038D01*
X143767891Y-101291931D01*
X143791986Y-101170796D01*
X143791986Y-101047288D01*
X143787204Y-101023246D01*
X145038000Y-101023246D01*
X145038000Y-101146754D01*
X145062095Y-101267889D01*
X145109360Y-101381996D01*
X145177977Y-101484689D01*
X145265311Y-101572023D01*
X145368004Y-101640640D01*
X145482111Y-101687905D01*
X145603246Y-101712000D01*
X145726754Y-101712000D01*
X145847889Y-101687905D01*
X145961996Y-101640640D01*
X146064689Y-101572023D01*
X146152023Y-101484689D01*
X146220640Y-101381996D01*
X146267905Y-101267889D01*
X146292000Y-101146754D01*
X146292000Y-101038246D01*
X146523000Y-101038246D01*
X146523000Y-101161754D01*
X146547095Y-101282889D01*
X146594360Y-101396996D01*
X146662977Y-101499689D01*
X146750311Y-101587023D01*
X146853004Y-101655640D01*
X146967111Y-101702905D01*
X147088246Y-101727000D01*
X147211754Y-101727000D01*
X147332889Y-101702905D01*
X147446996Y-101655640D01*
X147549689Y-101587023D01*
X147637023Y-101499689D01*
X147705640Y-101396996D01*
X147752905Y-101282889D01*
X147777000Y-101161754D01*
X147777000Y-101038246D01*
X147752905Y-100917111D01*
X147705640Y-100803004D01*
X147637023Y-100700311D01*
X147549689Y-100612977D01*
X147446996Y-100544360D01*
X147332889Y-100497095D01*
X147211754Y-100473000D01*
X147088246Y-100473000D01*
X146967111Y-100497095D01*
X146853004Y-100544360D01*
X146750311Y-100612977D01*
X146662977Y-100700311D01*
X146594360Y-100803004D01*
X146547095Y-100917111D01*
X146523000Y-101038246D01*
X146292000Y-101038246D01*
X146292000Y-101023246D01*
X146267905Y-100902111D01*
X146220640Y-100788004D01*
X146152023Y-100685311D01*
X146064689Y-100597977D01*
X145961996Y-100529360D01*
X145847889Y-100482095D01*
X145726754Y-100458000D01*
X145603246Y-100458000D01*
X145482111Y-100482095D01*
X145368004Y-100529360D01*
X145265311Y-100597977D01*
X145177977Y-100685311D01*
X145109360Y-100788004D01*
X145062095Y-100902111D01*
X145038000Y-101023246D01*
X143787204Y-101023246D01*
X143767891Y-100926153D01*
X143720626Y-100812046D01*
X143652009Y-100709353D01*
X143564675Y-100622019D01*
X143461982Y-100553402D01*
X143347875Y-100506137D01*
X143226740Y-100482042D01*
X143103232Y-100482042D01*
X142982097Y-100506137D01*
X142867990Y-100553402D01*
X142765297Y-100622019D01*
X142677963Y-100709353D01*
X142609346Y-100812046D01*
X142562081Y-100926153D01*
X142537986Y-101047288D01*
X139192000Y-101047288D01*
X139192000Y-97917000D01*
X152908000Y-97917000D01*
X152908000Y-103320179D01*
G37*
G04 #@! TD.AperFunction*
G04 #@! TD*
M02*
