G04 #@! TF.GenerationSoftware,KiCad,Pcbnew,(5.1.9-0-10_14)*
G04 #@! TF.CreationDate,2021-02-19T17:06:03+01:00*
G04 #@! TF.ProjectId,base-plane,62617365-2d70-46c6-916e-652e6b696361,rev?*
G04 #@! TF.SameCoordinates,Original*
G04 #@! TF.FileFunction,Soldermask,Top*
G04 #@! TF.FilePolarity,Negative*
%FSLAX46Y46*%
G04 Gerber Fmt 4.6, Leading zero omitted, Abs format (unit mm)*
G04 Created by KiCad (PCBNEW (5.1.9-0-10_14)) date 2021-02-19 17:06:03*
%MOMM*%
%LPD*%
G01*
G04 APERTURE LIST*
%ADD10C,0.152400*%
%ADD11C,1.000000*%
%ADD12R,1.000000X1.000000*%
%ADD13R,0.400000X1.100000*%
%ADD14R,1.100000X1.100000*%
%ADD15R,0.400000X0.650000*%
%ADD16C,0.800000*%
%ADD17C,6.400000*%
%ADD18O,1.700000X1.700000*%
%ADD19R,1.700000X1.700000*%
%ADD20R,2.400000X0.740000*%
%ADD21R,1.150000X1.000000*%
%ADD22R,1.200000X1.400000*%
%ADD23C,0.508000*%
%ADD24R,1.750000X1.500000*%
%ADD25R,0.350000X0.850000*%
%ADD26R,6.000000X6.000000*%
%ADD27R,0.260000X0.860000*%
%ADD28R,0.860000X0.260000*%
%ADD29R,0.990600X1.701800*%
%ADD30R,0.660400X0.254000*%
%ADD31R,1.550000X1.000000*%
%ADD32R,0.399999X0.599999*%
%ADD33R,1.250000X2.000000*%
%ADD34C,0.150000*%
%ADD35R,1.000000X1.500000*%
%ADD36R,2.200000X1.800000*%
%ADD37R,1.300000X0.300000*%
%ADD38R,2.790000X0.740000*%
%ADD39C,2.800000*%
%ADD40R,0.400000X1.350000*%
%ADD41R,2.750000X3.300000*%
%ADD42R,3.400000X0.950000*%
%ADD43O,3.300000X2.700000*%
G04 APERTURE END LIST*
D10*
G04 #@! TO.C,U5*
X172212800Y-71639201D02*
X171722801Y-71639201D01*
X171722801Y-71639201D02*
X171722801Y-72629199D01*
X171722801Y-72629199D02*
X172212800Y-72629199D01*
X172212800Y-72629199D02*
X172212800Y-71639201D01*
X171562799Y-71639201D02*
X171072800Y-71639201D01*
X171072800Y-71639201D02*
X171072800Y-72629199D01*
X171072800Y-72629199D02*
X171562799Y-72629199D01*
X171562799Y-72629199D02*
X171562799Y-71639201D01*
X170912800Y-71639201D02*
X170422801Y-71639201D01*
X170422801Y-71639201D02*
X170422801Y-72629199D01*
X170422801Y-72629199D02*
X170912800Y-72629199D01*
X170912800Y-72629199D02*
X170912800Y-71639201D01*
X170262799Y-71639201D02*
X169772800Y-71639201D01*
X169772800Y-71639201D02*
X169772800Y-72629199D01*
X169772800Y-72629199D02*
X170262799Y-72629199D01*
X170262799Y-72629199D02*
X170262799Y-71639201D01*
X170262799Y-74589201D02*
X169772800Y-74589201D01*
X169772800Y-74589201D02*
X169772800Y-75579199D01*
X169772800Y-75579199D02*
X170262799Y-75579199D01*
X170262799Y-75579199D02*
X170262799Y-74589201D01*
X170912800Y-74589201D02*
X170422801Y-74589201D01*
X170422801Y-74589201D02*
X170422801Y-75579199D01*
X170422801Y-75579199D02*
X170912800Y-75579199D01*
X170912800Y-75579199D02*
X170912800Y-74589201D01*
X171562799Y-74589201D02*
X171072800Y-74589201D01*
X171072800Y-74589201D02*
X171072800Y-75579199D01*
X171072800Y-75579199D02*
X171562799Y-75579199D01*
X171562799Y-75579199D02*
X171562799Y-74589201D01*
X172212800Y-74589201D02*
X171722801Y-74589201D01*
X171722801Y-74589201D02*
X171722801Y-75579199D01*
X171722801Y-75579199D02*
X172212800Y-75579199D01*
X172212800Y-75579199D02*
X172212800Y-74589201D01*
X171867800Y-73609200D02*
X171867800Y-73609200D01*
X171867800Y-73609200D02*
X171867800Y-73609200D01*
X171867800Y-73609200D02*
X171867800Y-73609200D01*
X171867800Y-73609200D02*
X171867800Y-73609200D01*
X171867800Y-73609200D02*
X171867800Y-73609200D01*
X171867800Y-73609200D02*
X171867800Y-73609200D01*
X171867800Y-73609200D02*
X171867800Y-73609200D01*
X171867800Y-73609200D02*
X171867800Y-73609200D01*
X170117800Y-73609200D02*
X170117800Y-73609200D01*
X170117800Y-73609200D02*
X170117800Y-73609200D01*
X170117800Y-73609200D02*
X170117800Y-73609200D01*
X170117800Y-73609200D02*
X170117800Y-73609200D01*
X170117800Y-73609200D02*
X170117800Y-73609200D01*
X170117800Y-73609200D02*
X170117800Y-73609200D01*
X170117800Y-73609200D02*
X170117800Y-73609200D01*
X170117800Y-73609200D02*
X170117800Y-73609200D01*
X171867800Y-73062400D02*
X172567800Y-73062400D01*
X172567800Y-73062400D02*
X172567800Y-73292400D01*
X172567800Y-73292400D02*
X171867800Y-73292400D01*
X171867800Y-73292400D02*
X171867800Y-73062400D01*
X171867800Y-74156000D02*
X172567800Y-74156000D01*
X172567800Y-74156000D02*
X172567800Y-73926000D01*
X172567800Y-73926000D02*
X171867800Y-73926000D01*
X171867800Y-73926000D02*
X171867800Y-74156000D01*
X170117800Y-74156000D02*
X169417800Y-74156000D01*
X169417800Y-74156000D02*
X169417800Y-73926000D01*
X169417800Y-73926000D02*
X170117800Y-73926000D01*
X170117800Y-73926000D02*
X170117800Y-74156000D01*
X170117800Y-73062400D02*
X169417800Y-73062400D01*
X169417800Y-73062400D02*
X169417800Y-73292400D01*
X169417800Y-73292400D02*
X170117800Y-73292400D01*
X170117800Y-73292400D02*
X170117800Y-73062400D01*
X171931300Y-72795700D02*
X171931300Y-74422700D01*
X171931300Y-74422700D02*
X171586500Y-74422700D01*
X171586500Y-74422700D02*
X171586500Y-72795700D01*
X171586500Y-72795700D02*
X171931300Y-72795700D01*
X171186500Y-72795700D02*
X171186500Y-74422700D01*
X171186500Y-74422700D02*
X170799100Y-74422700D01*
X170799100Y-74422700D02*
X170799100Y-72795700D01*
X170799100Y-72795700D02*
X171186500Y-72795700D01*
X170399100Y-72795700D02*
X170399100Y-74422700D01*
X170399100Y-74422700D02*
X170054300Y-74422700D01*
X170054300Y-74422700D02*
X170054300Y-72795700D01*
X170054300Y-72795700D02*
X170399100Y-72795700D01*
X171931300Y-72795700D02*
X171931300Y-73409200D01*
X171931300Y-73409200D02*
X170054300Y-73409200D01*
X170054300Y-73409200D02*
X170054300Y-72795700D01*
X170054300Y-72795700D02*
X171931300Y-72795700D01*
X171931300Y-73809200D02*
X171931300Y-74422700D01*
X171931300Y-74422700D02*
X170054300Y-74422700D01*
X170054300Y-74422700D02*
X170054300Y-73809200D01*
X170054300Y-73809200D02*
X171931300Y-73809200D01*
G04 #@! TD*
D11*
G04 #@! TO.C,REF\u002A\u002A*
X170900000Y-97400000D03*
G04 #@! TD*
G04 #@! TO.C,REF\u002A\u002A*
X183900000Y-86900000D03*
G04 #@! TD*
G04 #@! TO.C,REF\u002A\u002A*
X160600000Y-102000000D03*
G04 #@! TD*
G04 #@! TO.C,REF\u002A\u002A*
X135000000Y-108500000D03*
G04 #@! TD*
D12*
G04 #@! TO.C,TP19*
X172085000Y-100076000D03*
G04 #@! TD*
G04 #@! TO.C,TP18*
X167767000Y-96774000D03*
G04 #@! TD*
G04 #@! TO.C,TP16*
X166116000Y-87884000D03*
G04 #@! TD*
G04 #@! TO.C,TP15*
X175514000Y-94742000D03*
G04 #@! TD*
G04 #@! TO.C,TP13*
X169545000Y-87884000D03*
G04 #@! TD*
G04 #@! TO.C,TP12*
X181102000Y-79375000D03*
G04 #@! TD*
G04 #@! TO.C,TP11*
X211201000Y-101346000D03*
G04 #@! TD*
G04 #@! TO.C,TP10*
X212217000Y-98171000D03*
G04 #@! TD*
G04 #@! TO.C,TP9*
X212217000Y-96139000D03*
G04 #@! TD*
G04 #@! TO.C,TP8*
X212217000Y-94107000D03*
G04 #@! TD*
G04 #@! TO.C,TP7*
X212217000Y-92075000D03*
G04 #@! TD*
G04 #@! TO.C,TP6*
X212217000Y-90043000D03*
G04 #@! TD*
G04 #@! TO.C,TP1*
X212217000Y-88011000D03*
G04 #@! TD*
D13*
G04 #@! TO.C,U6*
X200350000Y-86550000D03*
X201000000Y-86550000D03*
X201650000Y-86550000D03*
X202300000Y-86550000D03*
X202300000Y-90850000D03*
X201650000Y-90850000D03*
X201000000Y-90850000D03*
X200350000Y-90850000D03*
G04 #@! TD*
G04 #@! TO.C,C16*
G36*
G01*
X153643750Y-79362500D02*
X154156250Y-79362500D01*
G75*
G02*
X154375000Y-79581250I0J-218750D01*
G01*
X154375000Y-80018750D01*
G75*
G02*
X154156250Y-80237500I-218750J0D01*
G01*
X153643750Y-80237500D01*
G75*
G02*
X153425000Y-80018750I0J218750D01*
G01*
X153425000Y-79581250D01*
G75*
G02*
X153643750Y-79362500I218750J0D01*
G01*
G37*
G36*
G01*
X153643750Y-77787500D02*
X154156250Y-77787500D01*
G75*
G02*
X154375000Y-78006250I0J-218750D01*
G01*
X154375000Y-78443750D01*
G75*
G02*
X154156250Y-78662500I-218750J0D01*
G01*
X153643750Y-78662500D01*
G75*
G02*
X153425000Y-78443750I0J218750D01*
G01*
X153425000Y-78006250D01*
G75*
G02*
X153643750Y-77787500I218750J0D01*
G01*
G37*
G04 #@! TD*
G04 #@! TO.C,C55*
G36*
G01*
X204006250Y-101062500D02*
X203493750Y-101062500D01*
G75*
G02*
X203275000Y-100843750I0J218750D01*
G01*
X203275000Y-100406250D01*
G75*
G02*
X203493750Y-100187500I218750J0D01*
G01*
X204006250Y-100187500D01*
G75*
G02*
X204225000Y-100406250I0J-218750D01*
G01*
X204225000Y-100843750D01*
G75*
G02*
X204006250Y-101062500I-218750J0D01*
G01*
G37*
G36*
G01*
X204006250Y-102637500D02*
X203493750Y-102637500D01*
G75*
G02*
X203275000Y-102418750I0J218750D01*
G01*
X203275000Y-101981250D01*
G75*
G02*
X203493750Y-101762500I218750J0D01*
G01*
X204006250Y-101762500D01*
G75*
G02*
X204225000Y-101981250I0J-218750D01*
G01*
X204225000Y-102418750D01*
G75*
G02*
X204006250Y-102637500I-218750J0D01*
G01*
G37*
G04 #@! TD*
D14*
G04 #@! TO.C,D4*
X208250000Y-101100000D03*
X205450000Y-101100000D03*
G04 #@! TD*
D15*
G04 #@! TO.C,U7*
X202050000Y-97700000D03*
X200750000Y-97700000D03*
X201400000Y-95800000D03*
X200750000Y-95800000D03*
X202050000Y-95800000D03*
G04 #@! TD*
G04 #@! TO.C,C53*
G36*
G01*
X207212500Y-95593750D02*
X207212500Y-96106250D01*
G75*
G02*
X206993750Y-96325000I-218750J0D01*
G01*
X206556250Y-96325000D01*
G75*
G02*
X206337500Y-96106250I0J218750D01*
G01*
X206337500Y-95593750D01*
G75*
G02*
X206556250Y-95375000I218750J0D01*
G01*
X206993750Y-95375000D01*
G75*
G02*
X207212500Y-95593750I0J-218750D01*
G01*
G37*
G36*
G01*
X208787500Y-95593750D02*
X208787500Y-96106250D01*
G75*
G02*
X208568750Y-96325000I-218750J0D01*
G01*
X208131250Y-96325000D01*
G75*
G02*
X207912500Y-96106250I0J218750D01*
G01*
X207912500Y-95593750D01*
G75*
G02*
X208131250Y-95375000I218750J0D01*
G01*
X208568750Y-95375000D01*
G75*
G02*
X208787500Y-95593750I0J-218750D01*
G01*
G37*
G04 #@! TD*
D16*
G04 #@! TO.C,H6*
X136457056Y-112602944D03*
X134760000Y-111900000D03*
X133062944Y-112602944D03*
X132360000Y-114300000D03*
X133062944Y-115997056D03*
X134760000Y-116700000D03*
X136457056Y-115997056D03*
X137160000Y-114300000D03*
D17*
X134760000Y-114300000D03*
G04 #@! TD*
D16*
G04 #@! TO.C,H5*
X136317056Y-71962944D03*
X134620000Y-71260000D03*
X132922944Y-71962944D03*
X132220000Y-73660000D03*
X132922944Y-75357056D03*
X134620000Y-76060000D03*
X136317056Y-75357056D03*
X137020000Y-73660000D03*
D17*
X134620000Y-73660000D03*
G04 #@! TD*
G04 #@! TO.C,C63*
G36*
G01*
X138105500Y-109725750D02*
X138105500Y-110238250D01*
G75*
G02*
X137886750Y-110457000I-218750J0D01*
G01*
X137449250Y-110457000D01*
G75*
G02*
X137230500Y-110238250I0J218750D01*
G01*
X137230500Y-109725750D01*
G75*
G02*
X137449250Y-109507000I218750J0D01*
G01*
X137886750Y-109507000D01*
G75*
G02*
X138105500Y-109725750I0J-218750D01*
G01*
G37*
G36*
G01*
X139680500Y-109725750D02*
X139680500Y-110238250D01*
G75*
G02*
X139461750Y-110457000I-218750J0D01*
G01*
X139024250Y-110457000D01*
G75*
G02*
X138805500Y-110238250I0J218750D01*
G01*
X138805500Y-109725750D01*
G75*
G02*
X139024250Y-109507000I218750J0D01*
G01*
X139461750Y-109507000D01*
G75*
G02*
X139680500Y-109725750I0J-218750D01*
G01*
G37*
G04 #@! TD*
D18*
G04 #@! TO.C,J11*
X202971400Y-72948800D03*
X200431400Y-72948800D03*
X197891400Y-72948800D03*
X195351400Y-72948800D03*
D19*
X192811400Y-72948800D03*
G04 #@! TD*
D20*
G04 #@! TO.C,J6*
X191090000Y-103505000D03*
X194990000Y-103505000D03*
X191090000Y-104775000D03*
X194990000Y-104775000D03*
X191090000Y-106045000D03*
X194990000Y-106045000D03*
G04 #@! TD*
G04 #@! TO.C,J5*
X178390000Y-103537000D03*
X182290000Y-103537000D03*
X178390000Y-104807000D03*
X182290000Y-104807000D03*
X178390000Y-106077000D03*
X182290000Y-106077000D03*
G04 #@! TD*
G04 #@! TO.C,J4*
X165690000Y-103537000D03*
X169590000Y-103537000D03*
X165690000Y-104807000D03*
X169590000Y-104807000D03*
X165690000Y-106077000D03*
X169590000Y-106077000D03*
G04 #@! TD*
D21*
G04 #@! TO.C,Y2*
X186535000Y-99060000D03*
X184785000Y-99060000D03*
X184785000Y-97660000D03*
X186535000Y-97660000D03*
G04 #@! TD*
D22*
G04 #@! TO.C,Y1*
X155200000Y-102050000D03*
X155200000Y-104250000D03*
X153500000Y-104250000D03*
X153500000Y-102050000D03*
G04 #@! TD*
D23*
G04 #@! TO.C,U5*
X171386500Y-73609200D03*
X170599100Y-73609200D03*
D24*
X170992800Y-73609200D03*
D25*
X171967799Y-75084201D03*
X171317801Y-75084201D03*
X170667799Y-75084201D03*
X170017801Y-75084201D03*
X170017801Y-72134199D03*
X170667799Y-72134199D03*
X171317801Y-72134199D03*
X171967799Y-72134199D03*
G04 #@! TD*
G04 #@! TO.C,U4*
G36*
G01*
X173646000Y-87202000D02*
X173646000Y-85877000D01*
G75*
G02*
X173721000Y-85802000I75000J0D01*
G01*
X173871000Y-85802000D01*
G75*
G02*
X173946000Y-85877000I0J-75000D01*
G01*
X173946000Y-87202000D01*
G75*
G02*
X173871000Y-87277000I-75000J0D01*
G01*
X173721000Y-87277000D01*
G75*
G02*
X173646000Y-87202000I0J75000D01*
G01*
G37*
G36*
G01*
X174146000Y-87202000D02*
X174146000Y-85877000D01*
G75*
G02*
X174221000Y-85802000I75000J0D01*
G01*
X174371000Y-85802000D01*
G75*
G02*
X174446000Y-85877000I0J-75000D01*
G01*
X174446000Y-87202000D01*
G75*
G02*
X174371000Y-87277000I-75000J0D01*
G01*
X174221000Y-87277000D01*
G75*
G02*
X174146000Y-87202000I0J75000D01*
G01*
G37*
G36*
G01*
X174646000Y-87202000D02*
X174646000Y-85877000D01*
G75*
G02*
X174721000Y-85802000I75000J0D01*
G01*
X174871000Y-85802000D01*
G75*
G02*
X174946000Y-85877000I0J-75000D01*
G01*
X174946000Y-87202000D01*
G75*
G02*
X174871000Y-87277000I-75000J0D01*
G01*
X174721000Y-87277000D01*
G75*
G02*
X174646000Y-87202000I0J75000D01*
G01*
G37*
G36*
G01*
X175146000Y-87202000D02*
X175146000Y-85877000D01*
G75*
G02*
X175221000Y-85802000I75000J0D01*
G01*
X175371000Y-85802000D01*
G75*
G02*
X175446000Y-85877000I0J-75000D01*
G01*
X175446000Y-87202000D01*
G75*
G02*
X175371000Y-87277000I-75000J0D01*
G01*
X175221000Y-87277000D01*
G75*
G02*
X175146000Y-87202000I0J75000D01*
G01*
G37*
G36*
G01*
X175646000Y-87202000D02*
X175646000Y-85877000D01*
G75*
G02*
X175721000Y-85802000I75000J0D01*
G01*
X175871000Y-85802000D01*
G75*
G02*
X175946000Y-85877000I0J-75000D01*
G01*
X175946000Y-87202000D01*
G75*
G02*
X175871000Y-87277000I-75000J0D01*
G01*
X175721000Y-87277000D01*
G75*
G02*
X175646000Y-87202000I0J75000D01*
G01*
G37*
G36*
G01*
X176146000Y-87202000D02*
X176146000Y-85877000D01*
G75*
G02*
X176221000Y-85802000I75000J0D01*
G01*
X176371000Y-85802000D01*
G75*
G02*
X176446000Y-85877000I0J-75000D01*
G01*
X176446000Y-87202000D01*
G75*
G02*
X176371000Y-87277000I-75000J0D01*
G01*
X176221000Y-87277000D01*
G75*
G02*
X176146000Y-87202000I0J75000D01*
G01*
G37*
G36*
G01*
X176646000Y-87202000D02*
X176646000Y-85877000D01*
G75*
G02*
X176721000Y-85802000I75000J0D01*
G01*
X176871000Y-85802000D01*
G75*
G02*
X176946000Y-85877000I0J-75000D01*
G01*
X176946000Y-87202000D01*
G75*
G02*
X176871000Y-87277000I-75000J0D01*
G01*
X176721000Y-87277000D01*
G75*
G02*
X176646000Y-87202000I0J75000D01*
G01*
G37*
G36*
G01*
X177146000Y-87202000D02*
X177146000Y-85877000D01*
G75*
G02*
X177221000Y-85802000I75000J0D01*
G01*
X177371000Y-85802000D01*
G75*
G02*
X177446000Y-85877000I0J-75000D01*
G01*
X177446000Y-87202000D01*
G75*
G02*
X177371000Y-87277000I-75000J0D01*
G01*
X177221000Y-87277000D01*
G75*
G02*
X177146000Y-87202000I0J75000D01*
G01*
G37*
G36*
G01*
X177646000Y-87202000D02*
X177646000Y-85877000D01*
G75*
G02*
X177721000Y-85802000I75000J0D01*
G01*
X177871000Y-85802000D01*
G75*
G02*
X177946000Y-85877000I0J-75000D01*
G01*
X177946000Y-87202000D01*
G75*
G02*
X177871000Y-87277000I-75000J0D01*
G01*
X177721000Y-87277000D01*
G75*
G02*
X177646000Y-87202000I0J75000D01*
G01*
G37*
G36*
G01*
X178146000Y-87202000D02*
X178146000Y-85877000D01*
G75*
G02*
X178221000Y-85802000I75000J0D01*
G01*
X178371000Y-85802000D01*
G75*
G02*
X178446000Y-85877000I0J-75000D01*
G01*
X178446000Y-87202000D01*
G75*
G02*
X178371000Y-87277000I-75000J0D01*
G01*
X178221000Y-87277000D01*
G75*
G02*
X178146000Y-87202000I0J75000D01*
G01*
G37*
G36*
G01*
X178646000Y-87202000D02*
X178646000Y-85877000D01*
G75*
G02*
X178721000Y-85802000I75000J0D01*
G01*
X178871000Y-85802000D01*
G75*
G02*
X178946000Y-85877000I0J-75000D01*
G01*
X178946000Y-87202000D01*
G75*
G02*
X178871000Y-87277000I-75000J0D01*
G01*
X178721000Y-87277000D01*
G75*
G02*
X178646000Y-87202000I0J75000D01*
G01*
G37*
G36*
G01*
X179146000Y-87202000D02*
X179146000Y-85877000D01*
G75*
G02*
X179221000Y-85802000I75000J0D01*
G01*
X179371000Y-85802000D01*
G75*
G02*
X179446000Y-85877000I0J-75000D01*
G01*
X179446000Y-87202000D01*
G75*
G02*
X179371000Y-87277000I-75000J0D01*
G01*
X179221000Y-87277000D01*
G75*
G02*
X179146000Y-87202000I0J75000D01*
G01*
G37*
G36*
G01*
X179646000Y-87202000D02*
X179646000Y-85877000D01*
G75*
G02*
X179721000Y-85802000I75000J0D01*
G01*
X179871000Y-85802000D01*
G75*
G02*
X179946000Y-85877000I0J-75000D01*
G01*
X179946000Y-87202000D01*
G75*
G02*
X179871000Y-87277000I-75000J0D01*
G01*
X179721000Y-87277000D01*
G75*
G02*
X179646000Y-87202000I0J75000D01*
G01*
G37*
G36*
G01*
X180146000Y-87202000D02*
X180146000Y-85877000D01*
G75*
G02*
X180221000Y-85802000I75000J0D01*
G01*
X180371000Y-85802000D01*
G75*
G02*
X180446000Y-85877000I0J-75000D01*
G01*
X180446000Y-87202000D01*
G75*
G02*
X180371000Y-87277000I-75000J0D01*
G01*
X180221000Y-87277000D01*
G75*
G02*
X180146000Y-87202000I0J75000D01*
G01*
G37*
G36*
G01*
X180646000Y-87202000D02*
X180646000Y-85877000D01*
G75*
G02*
X180721000Y-85802000I75000J0D01*
G01*
X180871000Y-85802000D01*
G75*
G02*
X180946000Y-85877000I0J-75000D01*
G01*
X180946000Y-87202000D01*
G75*
G02*
X180871000Y-87277000I-75000J0D01*
G01*
X180721000Y-87277000D01*
G75*
G02*
X180646000Y-87202000I0J75000D01*
G01*
G37*
G36*
G01*
X181146000Y-87202000D02*
X181146000Y-85877000D01*
G75*
G02*
X181221000Y-85802000I75000J0D01*
G01*
X181371000Y-85802000D01*
G75*
G02*
X181446000Y-85877000I0J-75000D01*
G01*
X181446000Y-87202000D01*
G75*
G02*
X181371000Y-87277000I-75000J0D01*
G01*
X181221000Y-87277000D01*
G75*
G02*
X181146000Y-87202000I0J75000D01*
G01*
G37*
G36*
G01*
X182471000Y-88527000D02*
X182471000Y-88377000D01*
G75*
G02*
X182546000Y-88302000I75000J0D01*
G01*
X183871000Y-88302000D01*
G75*
G02*
X183946000Y-88377000I0J-75000D01*
G01*
X183946000Y-88527000D01*
G75*
G02*
X183871000Y-88602000I-75000J0D01*
G01*
X182546000Y-88602000D01*
G75*
G02*
X182471000Y-88527000I0J75000D01*
G01*
G37*
G36*
G01*
X182471000Y-89027000D02*
X182471000Y-88877000D01*
G75*
G02*
X182546000Y-88802000I75000J0D01*
G01*
X183871000Y-88802000D01*
G75*
G02*
X183946000Y-88877000I0J-75000D01*
G01*
X183946000Y-89027000D01*
G75*
G02*
X183871000Y-89102000I-75000J0D01*
G01*
X182546000Y-89102000D01*
G75*
G02*
X182471000Y-89027000I0J75000D01*
G01*
G37*
G36*
G01*
X182471000Y-89527000D02*
X182471000Y-89377000D01*
G75*
G02*
X182546000Y-89302000I75000J0D01*
G01*
X183871000Y-89302000D01*
G75*
G02*
X183946000Y-89377000I0J-75000D01*
G01*
X183946000Y-89527000D01*
G75*
G02*
X183871000Y-89602000I-75000J0D01*
G01*
X182546000Y-89602000D01*
G75*
G02*
X182471000Y-89527000I0J75000D01*
G01*
G37*
G36*
G01*
X182471000Y-90027000D02*
X182471000Y-89877000D01*
G75*
G02*
X182546000Y-89802000I75000J0D01*
G01*
X183871000Y-89802000D01*
G75*
G02*
X183946000Y-89877000I0J-75000D01*
G01*
X183946000Y-90027000D01*
G75*
G02*
X183871000Y-90102000I-75000J0D01*
G01*
X182546000Y-90102000D01*
G75*
G02*
X182471000Y-90027000I0J75000D01*
G01*
G37*
G36*
G01*
X182471000Y-90527000D02*
X182471000Y-90377000D01*
G75*
G02*
X182546000Y-90302000I75000J0D01*
G01*
X183871000Y-90302000D01*
G75*
G02*
X183946000Y-90377000I0J-75000D01*
G01*
X183946000Y-90527000D01*
G75*
G02*
X183871000Y-90602000I-75000J0D01*
G01*
X182546000Y-90602000D01*
G75*
G02*
X182471000Y-90527000I0J75000D01*
G01*
G37*
G36*
G01*
X182471000Y-91027000D02*
X182471000Y-90877000D01*
G75*
G02*
X182546000Y-90802000I75000J0D01*
G01*
X183871000Y-90802000D01*
G75*
G02*
X183946000Y-90877000I0J-75000D01*
G01*
X183946000Y-91027000D01*
G75*
G02*
X183871000Y-91102000I-75000J0D01*
G01*
X182546000Y-91102000D01*
G75*
G02*
X182471000Y-91027000I0J75000D01*
G01*
G37*
G36*
G01*
X182471000Y-91527000D02*
X182471000Y-91377000D01*
G75*
G02*
X182546000Y-91302000I75000J0D01*
G01*
X183871000Y-91302000D01*
G75*
G02*
X183946000Y-91377000I0J-75000D01*
G01*
X183946000Y-91527000D01*
G75*
G02*
X183871000Y-91602000I-75000J0D01*
G01*
X182546000Y-91602000D01*
G75*
G02*
X182471000Y-91527000I0J75000D01*
G01*
G37*
G36*
G01*
X182471000Y-92027000D02*
X182471000Y-91877000D01*
G75*
G02*
X182546000Y-91802000I75000J0D01*
G01*
X183871000Y-91802000D01*
G75*
G02*
X183946000Y-91877000I0J-75000D01*
G01*
X183946000Y-92027000D01*
G75*
G02*
X183871000Y-92102000I-75000J0D01*
G01*
X182546000Y-92102000D01*
G75*
G02*
X182471000Y-92027000I0J75000D01*
G01*
G37*
G36*
G01*
X182471000Y-92527000D02*
X182471000Y-92377000D01*
G75*
G02*
X182546000Y-92302000I75000J0D01*
G01*
X183871000Y-92302000D01*
G75*
G02*
X183946000Y-92377000I0J-75000D01*
G01*
X183946000Y-92527000D01*
G75*
G02*
X183871000Y-92602000I-75000J0D01*
G01*
X182546000Y-92602000D01*
G75*
G02*
X182471000Y-92527000I0J75000D01*
G01*
G37*
G36*
G01*
X182471000Y-93027000D02*
X182471000Y-92877000D01*
G75*
G02*
X182546000Y-92802000I75000J0D01*
G01*
X183871000Y-92802000D01*
G75*
G02*
X183946000Y-92877000I0J-75000D01*
G01*
X183946000Y-93027000D01*
G75*
G02*
X183871000Y-93102000I-75000J0D01*
G01*
X182546000Y-93102000D01*
G75*
G02*
X182471000Y-93027000I0J75000D01*
G01*
G37*
G36*
G01*
X182471000Y-93527000D02*
X182471000Y-93377000D01*
G75*
G02*
X182546000Y-93302000I75000J0D01*
G01*
X183871000Y-93302000D01*
G75*
G02*
X183946000Y-93377000I0J-75000D01*
G01*
X183946000Y-93527000D01*
G75*
G02*
X183871000Y-93602000I-75000J0D01*
G01*
X182546000Y-93602000D01*
G75*
G02*
X182471000Y-93527000I0J75000D01*
G01*
G37*
G36*
G01*
X182471000Y-94027000D02*
X182471000Y-93877000D01*
G75*
G02*
X182546000Y-93802000I75000J0D01*
G01*
X183871000Y-93802000D01*
G75*
G02*
X183946000Y-93877000I0J-75000D01*
G01*
X183946000Y-94027000D01*
G75*
G02*
X183871000Y-94102000I-75000J0D01*
G01*
X182546000Y-94102000D01*
G75*
G02*
X182471000Y-94027000I0J75000D01*
G01*
G37*
G36*
G01*
X182471000Y-94527000D02*
X182471000Y-94377000D01*
G75*
G02*
X182546000Y-94302000I75000J0D01*
G01*
X183871000Y-94302000D01*
G75*
G02*
X183946000Y-94377000I0J-75000D01*
G01*
X183946000Y-94527000D01*
G75*
G02*
X183871000Y-94602000I-75000J0D01*
G01*
X182546000Y-94602000D01*
G75*
G02*
X182471000Y-94527000I0J75000D01*
G01*
G37*
G36*
G01*
X182471000Y-95027000D02*
X182471000Y-94877000D01*
G75*
G02*
X182546000Y-94802000I75000J0D01*
G01*
X183871000Y-94802000D01*
G75*
G02*
X183946000Y-94877000I0J-75000D01*
G01*
X183946000Y-95027000D01*
G75*
G02*
X183871000Y-95102000I-75000J0D01*
G01*
X182546000Y-95102000D01*
G75*
G02*
X182471000Y-95027000I0J75000D01*
G01*
G37*
G36*
G01*
X182471000Y-95527000D02*
X182471000Y-95377000D01*
G75*
G02*
X182546000Y-95302000I75000J0D01*
G01*
X183871000Y-95302000D01*
G75*
G02*
X183946000Y-95377000I0J-75000D01*
G01*
X183946000Y-95527000D01*
G75*
G02*
X183871000Y-95602000I-75000J0D01*
G01*
X182546000Y-95602000D01*
G75*
G02*
X182471000Y-95527000I0J75000D01*
G01*
G37*
G36*
G01*
X182471000Y-96027000D02*
X182471000Y-95877000D01*
G75*
G02*
X182546000Y-95802000I75000J0D01*
G01*
X183871000Y-95802000D01*
G75*
G02*
X183946000Y-95877000I0J-75000D01*
G01*
X183946000Y-96027000D01*
G75*
G02*
X183871000Y-96102000I-75000J0D01*
G01*
X182546000Y-96102000D01*
G75*
G02*
X182471000Y-96027000I0J75000D01*
G01*
G37*
G36*
G01*
X181146000Y-98527000D02*
X181146000Y-97202000D01*
G75*
G02*
X181221000Y-97127000I75000J0D01*
G01*
X181371000Y-97127000D01*
G75*
G02*
X181446000Y-97202000I0J-75000D01*
G01*
X181446000Y-98527000D01*
G75*
G02*
X181371000Y-98602000I-75000J0D01*
G01*
X181221000Y-98602000D01*
G75*
G02*
X181146000Y-98527000I0J75000D01*
G01*
G37*
G36*
G01*
X180646000Y-98527000D02*
X180646000Y-97202000D01*
G75*
G02*
X180721000Y-97127000I75000J0D01*
G01*
X180871000Y-97127000D01*
G75*
G02*
X180946000Y-97202000I0J-75000D01*
G01*
X180946000Y-98527000D01*
G75*
G02*
X180871000Y-98602000I-75000J0D01*
G01*
X180721000Y-98602000D01*
G75*
G02*
X180646000Y-98527000I0J75000D01*
G01*
G37*
G36*
G01*
X180146000Y-98527000D02*
X180146000Y-97202000D01*
G75*
G02*
X180221000Y-97127000I75000J0D01*
G01*
X180371000Y-97127000D01*
G75*
G02*
X180446000Y-97202000I0J-75000D01*
G01*
X180446000Y-98527000D01*
G75*
G02*
X180371000Y-98602000I-75000J0D01*
G01*
X180221000Y-98602000D01*
G75*
G02*
X180146000Y-98527000I0J75000D01*
G01*
G37*
G36*
G01*
X179646000Y-98527000D02*
X179646000Y-97202000D01*
G75*
G02*
X179721000Y-97127000I75000J0D01*
G01*
X179871000Y-97127000D01*
G75*
G02*
X179946000Y-97202000I0J-75000D01*
G01*
X179946000Y-98527000D01*
G75*
G02*
X179871000Y-98602000I-75000J0D01*
G01*
X179721000Y-98602000D01*
G75*
G02*
X179646000Y-98527000I0J75000D01*
G01*
G37*
G36*
G01*
X179146000Y-98527000D02*
X179146000Y-97202000D01*
G75*
G02*
X179221000Y-97127000I75000J0D01*
G01*
X179371000Y-97127000D01*
G75*
G02*
X179446000Y-97202000I0J-75000D01*
G01*
X179446000Y-98527000D01*
G75*
G02*
X179371000Y-98602000I-75000J0D01*
G01*
X179221000Y-98602000D01*
G75*
G02*
X179146000Y-98527000I0J75000D01*
G01*
G37*
G36*
G01*
X178646000Y-98527000D02*
X178646000Y-97202000D01*
G75*
G02*
X178721000Y-97127000I75000J0D01*
G01*
X178871000Y-97127000D01*
G75*
G02*
X178946000Y-97202000I0J-75000D01*
G01*
X178946000Y-98527000D01*
G75*
G02*
X178871000Y-98602000I-75000J0D01*
G01*
X178721000Y-98602000D01*
G75*
G02*
X178646000Y-98527000I0J75000D01*
G01*
G37*
G36*
G01*
X178146000Y-98527000D02*
X178146000Y-97202000D01*
G75*
G02*
X178221000Y-97127000I75000J0D01*
G01*
X178371000Y-97127000D01*
G75*
G02*
X178446000Y-97202000I0J-75000D01*
G01*
X178446000Y-98527000D01*
G75*
G02*
X178371000Y-98602000I-75000J0D01*
G01*
X178221000Y-98602000D01*
G75*
G02*
X178146000Y-98527000I0J75000D01*
G01*
G37*
G36*
G01*
X177646000Y-98527000D02*
X177646000Y-97202000D01*
G75*
G02*
X177721000Y-97127000I75000J0D01*
G01*
X177871000Y-97127000D01*
G75*
G02*
X177946000Y-97202000I0J-75000D01*
G01*
X177946000Y-98527000D01*
G75*
G02*
X177871000Y-98602000I-75000J0D01*
G01*
X177721000Y-98602000D01*
G75*
G02*
X177646000Y-98527000I0J75000D01*
G01*
G37*
G36*
G01*
X177146000Y-98527000D02*
X177146000Y-97202000D01*
G75*
G02*
X177221000Y-97127000I75000J0D01*
G01*
X177371000Y-97127000D01*
G75*
G02*
X177446000Y-97202000I0J-75000D01*
G01*
X177446000Y-98527000D01*
G75*
G02*
X177371000Y-98602000I-75000J0D01*
G01*
X177221000Y-98602000D01*
G75*
G02*
X177146000Y-98527000I0J75000D01*
G01*
G37*
G36*
G01*
X176646000Y-98527000D02*
X176646000Y-97202000D01*
G75*
G02*
X176721000Y-97127000I75000J0D01*
G01*
X176871000Y-97127000D01*
G75*
G02*
X176946000Y-97202000I0J-75000D01*
G01*
X176946000Y-98527000D01*
G75*
G02*
X176871000Y-98602000I-75000J0D01*
G01*
X176721000Y-98602000D01*
G75*
G02*
X176646000Y-98527000I0J75000D01*
G01*
G37*
G36*
G01*
X176146000Y-98527000D02*
X176146000Y-97202000D01*
G75*
G02*
X176221000Y-97127000I75000J0D01*
G01*
X176371000Y-97127000D01*
G75*
G02*
X176446000Y-97202000I0J-75000D01*
G01*
X176446000Y-98527000D01*
G75*
G02*
X176371000Y-98602000I-75000J0D01*
G01*
X176221000Y-98602000D01*
G75*
G02*
X176146000Y-98527000I0J75000D01*
G01*
G37*
G36*
G01*
X175646000Y-98527000D02*
X175646000Y-97202000D01*
G75*
G02*
X175721000Y-97127000I75000J0D01*
G01*
X175871000Y-97127000D01*
G75*
G02*
X175946000Y-97202000I0J-75000D01*
G01*
X175946000Y-98527000D01*
G75*
G02*
X175871000Y-98602000I-75000J0D01*
G01*
X175721000Y-98602000D01*
G75*
G02*
X175646000Y-98527000I0J75000D01*
G01*
G37*
G36*
G01*
X175146000Y-98527000D02*
X175146000Y-97202000D01*
G75*
G02*
X175221000Y-97127000I75000J0D01*
G01*
X175371000Y-97127000D01*
G75*
G02*
X175446000Y-97202000I0J-75000D01*
G01*
X175446000Y-98527000D01*
G75*
G02*
X175371000Y-98602000I-75000J0D01*
G01*
X175221000Y-98602000D01*
G75*
G02*
X175146000Y-98527000I0J75000D01*
G01*
G37*
G36*
G01*
X174646000Y-98527000D02*
X174646000Y-97202000D01*
G75*
G02*
X174721000Y-97127000I75000J0D01*
G01*
X174871000Y-97127000D01*
G75*
G02*
X174946000Y-97202000I0J-75000D01*
G01*
X174946000Y-98527000D01*
G75*
G02*
X174871000Y-98602000I-75000J0D01*
G01*
X174721000Y-98602000D01*
G75*
G02*
X174646000Y-98527000I0J75000D01*
G01*
G37*
G36*
G01*
X174146000Y-98527000D02*
X174146000Y-97202000D01*
G75*
G02*
X174221000Y-97127000I75000J0D01*
G01*
X174371000Y-97127000D01*
G75*
G02*
X174446000Y-97202000I0J-75000D01*
G01*
X174446000Y-98527000D01*
G75*
G02*
X174371000Y-98602000I-75000J0D01*
G01*
X174221000Y-98602000D01*
G75*
G02*
X174146000Y-98527000I0J75000D01*
G01*
G37*
G36*
G01*
X173646000Y-98527000D02*
X173646000Y-97202000D01*
G75*
G02*
X173721000Y-97127000I75000J0D01*
G01*
X173871000Y-97127000D01*
G75*
G02*
X173946000Y-97202000I0J-75000D01*
G01*
X173946000Y-98527000D01*
G75*
G02*
X173871000Y-98602000I-75000J0D01*
G01*
X173721000Y-98602000D01*
G75*
G02*
X173646000Y-98527000I0J75000D01*
G01*
G37*
G36*
G01*
X171146000Y-96027000D02*
X171146000Y-95877000D01*
G75*
G02*
X171221000Y-95802000I75000J0D01*
G01*
X172546000Y-95802000D01*
G75*
G02*
X172621000Y-95877000I0J-75000D01*
G01*
X172621000Y-96027000D01*
G75*
G02*
X172546000Y-96102000I-75000J0D01*
G01*
X171221000Y-96102000D01*
G75*
G02*
X171146000Y-96027000I0J75000D01*
G01*
G37*
G36*
G01*
X171146000Y-95527000D02*
X171146000Y-95377000D01*
G75*
G02*
X171221000Y-95302000I75000J0D01*
G01*
X172546000Y-95302000D01*
G75*
G02*
X172621000Y-95377000I0J-75000D01*
G01*
X172621000Y-95527000D01*
G75*
G02*
X172546000Y-95602000I-75000J0D01*
G01*
X171221000Y-95602000D01*
G75*
G02*
X171146000Y-95527000I0J75000D01*
G01*
G37*
G36*
G01*
X171146000Y-95027000D02*
X171146000Y-94877000D01*
G75*
G02*
X171221000Y-94802000I75000J0D01*
G01*
X172546000Y-94802000D01*
G75*
G02*
X172621000Y-94877000I0J-75000D01*
G01*
X172621000Y-95027000D01*
G75*
G02*
X172546000Y-95102000I-75000J0D01*
G01*
X171221000Y-95102000D01*
G75*
G02*
X171146000Y-95027000I0J75000D01*
G01*
G37*
G36*
G01*
X171146000Y-94527000D02*
X171146000Y-94377000D01*
G75*
G02*
X171221000Y-94302000I75000J0D01*
G01*
X172546000Y-94302000D01*
G75*
G02*
X172621000Y-94377000I0J-75000D01*
G01*
X172621000Y-94527000D01*
G75*
G02*
X172546000Y-94602000I-75000J0D01*
G01*
X171221000Y-94602000D01*
G75*
G02*
X171146000Y-94527000I0J75000D01*
G01*
G37*
G36*
G01*
X171146000Y-94027000D02*
X171146000Y-93877000D01*
G75*
G02*
X171221000Y-93802000I75000J0D01*
G01*
X172546000Y-93802000D01*
G75*
G02*
X172621000Y-93877000I0J-75000D01*
G01*
X172621000Y-94027000D01*
G75*
G02*
X172546000Y-94102000I-75000J0D01*
G01*
X171221000Y-94102000D01*
G75*
G02*
X171146000Y-94027000I0J75000D01*
G01*
G37*
G36*
G01*
X171146000Y-93527000D02*
X171146000Y-93377000D01*
G75*
G02*
X171221000Y-93302000I75000J0D01*
G01*
X172546000Y-93302000D01*
G75*
G02*
X172621000Y-93377000I0J-75000D01*
G01*
X172621000Y-93527000D01*
G75*
G02*
X172546000Y-93602000I-75000J0D01*
G01*
X171221000Y-93602000D01*
G75*
G02*
X171146000Y-93527000I0J75000D01*
G01*
G37*
G36*
G01*
X171146000Y-93027000D02*
X171146000Y-92877000D01*
G75*
G02*
X171221000Y-92802000I75000J0D01*
G01*
X172546000Y-92802000D01*
G75*
G02*
X172621000Y-92877000I0J-75000D01*
G01*
X172621000Y-93027000D01*
G75*
G02*
X172546000Y-93102000I-75000J0D01*
G01*
X171221000Y-93102000D01*
G75*
G02*
X171146000Y-93027000I0J75000D01*
G01*
G37*
G36*
G01*
X171146000Y-92527000D02*
X171146000Y-92377000D01*
G75*
G02*
X171221000Y-92302000I75000J0D01*
G01*
X172546000Y-92302000D01*
G75*
G02*
X172621000Y-92377000I0J-75000D01*
G01*
X172621000Y-92527000D01*
G75*
G02*
X172546000Y-92602000I-75000J0D01*
G01*
X171221000Y-92602000D01*
G75*
G02*
X171146000Y-92527000I0J75000D01*
G01*
G37*
G36*
G01*
X171146000Y-92027000D02*
X171146000Y-91877000D01*
G75*
G02*
X171221000Y-91802000I75000J0D01*
G01*
X172546000Y-91802000D01*
G75*
G02*
X172621000Y-91877000I0J-75000D01*
G01*
X172621000Y-92027000D01*
G75*
G02*
X172546000Y-92102000I-75000J0D01*
G01*
X171221000Y-92102000D01*
G75*
G02*
X171146000Y-92027000I0J75000D01*
G01*
G37*
G36*
G01*
X171146000Y-91527000D02*
X171146000Y-91377000D01*
G75*
G02*
X171221000Y-91302000I75000J0D01*
G01*
X172546000Y-91302000D01*
G75*
G02*
X172621000Y-91377000I0J-75000D01*
G01*
X172621000Y-91527000D01*
G75*
G02*
X172546000Y-91602000I-75000J0D01*
G01*
X171221000Y-91602000D01*
G75*
G02*
X171146000Y-91527000I0J75000D01*
G01*
G37*
G36*
G01*
X171146000Y-91027000D02*
X171146000Y-90877000D01*
G75*
G02*
X171221000Y-90802000I75000J0D01*
G01*
X172546000Y-90802000D01*
G75*
G02*
X172621000Y-90877000I0J-75000D01*
G01*
X172621000Y-91027000D01*
G75*
G02*
X172546000Y-91102000I-75000J0D01*
G01*
X171221000Y-91102000D01*
G75*
G02*
X171146000Y-91027000I0J75000D01*
G01*
G37*
G36*
G01*
X171146000Y-90527000D02*
X171146000Y-90377000D01*
G75*
G02*
X171221000Y-90302000I75000J0D01*
G01*
X172546000Y-90302000D01*
G75*
G02*
X172621000Y-90377000I0J-75000D01*
G01*
X172621000Y-90527000D01*
G75*
G02*
X172546000Y-90602000I-75000J0D01*
G01*
X171221000Y-90602000D01*
G75*
G02*
X171146000Y-90527000I0J75000D01*
G01*
G37*
G36*
G01*
X171146000Y-90027000D02*
X171146000Y-89877000D01*
G75*
G02*
X171221000Y-89802000I75000J0D01*
G01*
X172546000Y-89802000D01*
G75*
G02*
X172621000Y-89877000I0J-75000D01*
G01*
X172621000Y-90027000D01*
G75*
G02*
X172546000Y-90102000I-75000J0D01*
G01*
X171221000Y-90102000D01*
G75*
G02*
X171146000Y-90027000I0J75000D01*
G01*
G37*
G36*
G01*
X171146000Y-89527000D02*
X171146000Y-89377000D01*
G75*
G02*
X171221000Y-89302000I75000J0D01*
G01*
X172546000Y-89302000D01*
G75*
G02*
X172621000Y-89377000I0J-75000D01*
G01*
X172621000Y-89527000D01*
G75*
G02*
X172546000Y-89602000I-75000J0D01*
G01*
X171221000Y-89602000D01*
G75*
G02*
X171146000Y-89527000I0J75000D01*
G01*
G37*
G36*
G01*
X171146000Y-89027000D02*
X171146000Y-88877000D01*
G75*
G02*
X171221000Y-88802000I75000J0D01*
G01*
X172546000Y-88802000D01*
G75*
G02*
X172621000Y-88877000I0J-75000D01*
G01*
X172621000Y-89027000D01*
G75*
G02*
X172546000Y-89102000I-75000J0D01*
G01*
X171221000Y-89102000D01*
G75*
G02*
X171146000Y-89027000I0J75000D01*
G01*
G37*
G36*
G01*
X171146000Y-88527000D02*
X171146000Y-88377000D01*
G75*
G02*
X171221000Y-88302000I75000J0D01*
G01*
X172546000Y-88302000D01*
G75*
G02*
X172621000Y-88377000I0J-75000D01*
G01*
X172621000Y-88527000D01*
G75*
G02*
X172546000Y-88602000I-75000J0D01*
G01*
X171221000Y-88602000D01*
G75*
G02*
X171146000Y-88527000I0J75000D01*
G01*
G37*
G04 #@! TD*
D26*
G04 #@! TO.C,U3*
X145415000Y-106426000D03*
D27*
X149165000Y-110861000D03*
X148665000Y-110861000D03*
X148165000Y-110861000D03*
X147665000Y-110861000D03*
X147165000Y-110861000D03*
X146665000Y-110861000D03*
X146165000Y-110861000D03*
X145665000Y-110861000D03*
X145165000Y-110861000D03*
X144665000Y-110861000D03*
X144165000Y-110861000D03*
X143665000Y-110861000D03*
X143165000Y-110861000D03*
X142665000Y-110861000D03*
X142165000Y-110861000D03*
X141665000Y-110861000D03*
X141665000Y-101991000D03*
X142165000Y-101991000D03*
X142665000Y-101991000D03*
X143165000Y-101991000D03*
X143665000Y-101991000D03*
X144165000Y-101991000D03*
X144665000Y-101991000D03*
X145165000Y-101991000D03*
X145665000Y-101991000D03*
X146165000Y-101991000D03*
X146665000Y-101991000D03*
X147165000Y-101991000D03*
X147665000Y-101991000D03*
X148165000Y-101991000D03*
X148665000Y-101991000D03*
X149165000Y-101991000D03*
D28*
X149850000Y-102676000D03*
X149850000Y-103176000D03*
X149850000Y-103676000D03*
X149850000Y-104176000D03*
X149850000Y-104676000D03*
X149850000Y-105176000D03*
X149850000Y-105676000D03*
X149850000Y-106176000D03*
X149850000Y-106676000D03*
X149850000Y-107176000D03*
X149850000Y-107676000D03*
X149850000Y-108176000D03*
X149850000Y-108676000D03*
X149850000Y-109176000D03*
X149850000Y-109676000D03*
X149850000Y-110176000D03*
X140980000Y-110176000D03*
X140980000Y-109676000D03*
X140980000Y-109176000D03*
X140980000Y-108676000D03*
X140980000Y-108176000D03*
X140980000Y-107676000D03*
X140980000Y-107176000D03*
X140980000Y-106676000D03*
X140980000Y-106176000D03*
X140980000Y-105676000D03*
X140980000Y-105176000D03*
X140980000Y-104676000D03*
X140980000Y-104176000D03*
X140980000Y-103676000D03*
X140980000Y-103176000D03*
X140980000Y-102676000D03*
G04 #@! TD*
D29*
G04 #@! TO.C,U2*
X195122800Y-109575600D03*
D30*
X194094100Y-110225586D03*
X194094100Y-109575600D03*
X194094100Y-108925614D03*
X196151500Y-108925614D03*
X196151500Y-109575600D03*
X196151500Y-110225586D03*
G04 #@! TD*
D29*
G04 #@! TO.C,U1*
X195122800Y-112877600D03*
D30*
X194094100Y-113527586D03*
X194094100Y-112877600D03*
X194094100Y-112227614D03*
X196151500Y-112227614D03*
X196151500Y-112877600D03*
X196151500Y-113527586D03*
G04 #@! TD*
D12*
G04 #@! TO.C,TP5*
X207550000Y-92300000D03*
G04 #@! TD*
G04 #@! TO.C,TP4*
X193344800Y-116179600D03*
G04 #@! TD*
G04 #@! TO.C,TP3*
X195630800Y-116179600D03*
G04 #@! TD*
G04 #@! TO.C,TP2*
X189788800Y-112433100D03*
G04 #@! TD*
D31*
G04 #@! TO.C,SW1*
X188130000Y-71120000D03*
X182880000Y-71120000D03*
X182880000Y-72820000D03*
X188130000Y-72820000D03*
G04 #@! TD*
G04 #@! TO.C,R25*
G36*
G01*
X207900000Y-89006250D02*
X207900000Y-88493750D01*
G75*
G02*
X208118750Y-88275000I218750J0D01*
G01*
X208556250Y-88275000D01*
G75*
G02*
X208775000Y-88493750I0J-218750D01*
G01*
X208775000Y-89006250D01*
G75*
G02*
X208556250Y-89225000I-218750J0D01*
G01*
X208118750Y-89225000D01*
G75*
G02*
X207900000Y-89006250I0J218750D01*
G01*
G37*
G36*
G01*
X206325000Y-89006250D02*
X206325000Y-88493750D01*
G75*
G02*
X206543750Y-88275000I218750J0D01*
G01*
X206981250Y-88275000D01*
G75*
G02*
X207200000Y-88493750I0J-218750D01*
G01*
X207200000Y-89006250D01*
G75*
G02*
X206981250Y-89225000I-218750J0D01*
G01*
X206543750Y-89225000D01*
G75*
G02*
X206325000Y-89006250I0J218750D01*
G01*
G37*
G04 #@! TD*
G04 #@! TO.C,R24*
G36*
G01*
X166677050Y-73030700D02*
X166164550Y-73030700D01*
G75*
G02*
X165945800Y-72811950I0J218750D01*
G01*
X165945800Y-72374450D01*
G75*
G02*
X166164550Y-72155700I218750J0D01*
G01*
X166677050Y-72155700D01*
G75*
G02*
X166895800Y-72374450I0J-218750D01*
G01*
X166895800Y-72811950D01*
G75*
G02*
X166677050Y-73030700I-218750J0D01*
G01*
G37*
G36*
G01*
X166677050Y-74605700D02*
X166164550Y-74605700D01*
G75*
G02*
X165945800Y-74386950I0J218750D01*
G01*
X165945800Y-73949450D01*
G75*
G02*
X166164550Y-73730700I218750J0D01*
G01*
X166677050Y-73730700D01*
G75*
G02*
X166895800Y-73949450I0J-218750D01*
G01*
X166895800Y-74386950D01*
G75*
G02*
X166677050Y-74605700I-218750J0D01*
G01*
G37*
G04 #@! TD*
G04 #@! TO.C,R23*
G36*
G01*
X167558300Y-76075250D02*
X167558300Y-75562750D01*
G75*
G02*
X167777050Y-75344000I218750J0D01*
G01*
X168214550Y-75344000D01*
G75*
G02*
X168433300Y-75562750I0J-218750D01*
G01*
X168433300Y-76075250D01*
G75*
G02*
X168214550Y-76294000I-218750J0D01*
G01*
X167777050Y-76294000D01*
G75*
G02*
X167558300Y-76075250I0J218750D01*
G01*
G37*
G36*
G01*
X165983300Y-76075250D02*
X165983300Y-75562750D01*
G75*
G02*
X166202050Y-75344000I218750J0D01*
G01*
X166639550Y-75344000D01*
G75*
G02*
X166858300Y-75562750I0J-218750D01*
G01*
X166858300Y-76075250D01*
G75*
G02*
X166639550Y-76294000I-218750J0D01*
G01*
X166202050Y-76294000D01*
G75*
G02*
X165983300Y-76075250I0J218750D01*
G01*
G37*
G04 #@! TD*
G04 #@! TO.C,R22*
G36*
G01*
X188589400Y-79859850D02*
X188589400Y-79347350D01*
G75*
G02*
X188808150Y-79128600I218750J0D01*
G01*
X189245650Y-79128600D01*
G75*
G02*
X189464400Y-79347350I0J-218750D01*
G01*
X189464400Y-79859850D01*
G75*
G02*
X189245650Y-80078600I-218750J0D01*
G01*
X188808150Y-80078600D01*
G75*
G02*
X188589400Y-79859850I0J218750D01*
G01*
G37*
G36*
G01*
X187014400Y-79859850D02*
X187014400Y-79347350D01*
G75*
G02*
X187233150Y-79128600I218750J0D01*
G01*
X187670650Y-79128600D01*
G75*
G02*
X187889400Y-79347350I0J-218750D01*
G01*
X187889400Y-79859850D01*
G75*
G02*
X187670650Y-80078600I-218750J0D01*
G01*
X187233150Y-80078600D01*
G75*
G02*
X187014400Y-79859850I0J218750D01*
G01*
G37*
G04 #@! TD*
G04 #@! TO.C,R21*
G36*
G01*
X192991450Y-84714700D02*
X192478950Y-84714700D01*
G75*
G02*
X192260200Y-84495950I0J218750D01*
G01*
X192260200Y-84058450D01*
G75*
G02*
X192478950Y-83839700I218750J0D01*
G01*
X192991450Y-83839700D01*
G75*
G02*
X193210200Y-84058450I0J-218750D01*
G01*
X193210200Y-84495950D01*
G75*
G02*
X192991450Y-84714700I-218750J0D01*
G01*
G37*
G36*
G01*
X192991450Y-86289700D02*
X192478950Y-86289700D01*
G75*
G02*
X192260200Y-86070950I0J218750D01*
G01*
X192260200Y-85633450D01*
G75*
G02*
X192478950Y-85414700I218750J0D01*
G01*
X192991450Y-85414700D01*
G75*
G02*
X193210200Y-85633450I0J-218750D01*
G01*
X193210200Y-86070950D01*
G75*
G02*
X192991450Y-86289700I-218750J0D01*
G01*
G37*
G04 #@! TD*
G04 #@! TO.C,R20*
G36*
G01*
X194485550Y-85414700D02*
X194998050Y-85414700D01*
G75*
G02*
X195216800Y-85633450I0J-218750D01*
G01*
X195216800Y-86070950D01*
G75*
G02*
X194998050Y-86289700I-218750J0D01*
G01*
X194485550Y-86289700D01*
G75*
G02*
X194266800Y-86070950I0J218750D01*
G01*
X194266800Y-85633450D01*
G75*
G02*
X194485550Y-85414700I218750J0D01*
G01*
G37*
G36*
G01*
X194485550Y-83839700D02*
X194998050Y-83839700D01*
G75*
G02*
X195216800Y-84058450I0J-218750D01*
G01*
X195216800Y-84495950D01*
G75*
G02*
X194998050Y-84714700I-218750J0D01*
G01*
X194485550Y-84714700D01*
G75*
G02*
X194266800Y-84495950I0J218750D01*
G01*
X194266800Y-84058450D01*
G75*
G02*
X194485550Y-83839700I218750J0D01*
G01*
G37*
G04 #@! TD*
G04 #@! TO.C,R19*
G36*
G01*
X190472350Y-85414700D02*
X190984850Y-85414700D01*
G75*
G02*
X191203600Y-85633450I0J-218750D01*
G01*
X191203600Y-86070950D01*
G75*
G02*
X190984850Y-86289700I-218750J0D01*
G01*
X190472350Y-86289700D01*
G75*
G02*
X190253600Y-86070950I0J218750D01*
G01*
X190253600Y-85633450D01*
G75*
G02*
X190472350Y-85414700I218750J0D01*
G01*
G37*
G36*
G01*
X190472350Y-83839700D02*
X190984850Y-83839700D01*
G75*
G02*
X191203600Y-84058450I0J-218750D01*
G01*
X191203600Y-84495950D01*
G75*
G02*
X190984850Y-84714700I-218750J0D01*
G01*
X190472350Y-84714700D01*
G75*
G02*
X190253600Y-84495950I0J218750D01*
G01*
X190253600Y-84058450D01*
G75*
G02*
X190472350Y-83839700I218750J0D01*
G01*
G37*
G04 #@! TD*
G04 #@! TO.C,R18*
G36*
G01*
X179732650Y-76129300D02*
X179220150Y-76129300D01*
G75*
G02*
X179001400Y-75910550I0J218750D01*
G01*
X179001400Y-75473050D01*
G75*
G02*
X179220150Y-75254300I218750J0D01*
G01*
X179732650Y-75254300D01*
G75*
G02*
X179951400Y-75473050I0J-218750D01*
G01*
X179951400Y-75910550D01*
G75*
G02*
X179732650Y-76129300I-218750J0D01*
G01*
G37*
G36*
G01*
X179732650Y-77704300D02*
X179220150Y-77704300D01*
G75*
G02*
X179001400Y-77485550I0J218750D01*
G01*
X179001400Y-77048050D01*
G75*
G02*
X179220150Y-76829300I218750J0D01*
G01*
X179732650Y-76829300D01*
G75*
G02*
X179951400Y-77048050I0J-218750D01*
G01*
X179951400Y-77485550D01*
G75*
G02*
X179732650Y-77704300I-218750J0D01*
G01*
G37*
G04 #@! TD*
G04 #@! TO.C,R17*
G36*
G01*
X177243450Y-76078500D02*
X176730950Y-76078500D01*
G75*
G02*
X176512200Y-75859750I0J218750D01*
G01*
X176512200Y-75422250D01*
G75*
G02*
X176730950Y-75203500I218750J0D01*
G01*
X177243450Y-75203500D01*
G75*
G02*
X177462200Y-75422250I0J-218750D01*
G01*
X177462200Y-75859750D01*
G75*
G02*
X177243450Y-76078500I-218750J0D01*
G01*
G37*
G36*
G01*
X177243450Y-77653500D02*
X176730950Y-77653500D01*
G75*
G02*
X176512200Y-77434750I0J218750D01*
G01*
X176512200Y-76997250D01*
G75*
G02*
X176730950Y-76778500I218750J0D01*
G01*
X177243450Y-76778500D01*
G75*
G02*
X177462200Y-76997250I0J-218750D01*
G01*
X177462200Y-77434750D01*
G75*
G02*
X177243450Y-77653500I-218750J0D01*
G01*
G37*
G04 #@! TD*
G04 #@! TO.C,R16*
G36*
G01*
X186692250Y-76129500D02*
X186179750Y-76129500D01*
G75*
G02*
X185961000Y-75910750I0J218750D01*
G01*
X185961000Y-75473250D01*
G75*
G02*
X186179750Y-75254500I218750J0D01*
G01*
X186692250Y-75254500D01*
G75*
G02*
X186911000Y-75473250I0J-218750D01*
G01*
X186911000Y-75910750D01*
G75*
G02*
X186692250Y-76129500I-218750J0D01*
G01*
G37*
G36*
G01*
X186692250Y-77704500D02*
X186179750Y-77704500D01*
G75*
G02*
X185961000Y-77485750I0J218750D01*
G01*
X185961000Y-77048250D01*
G75*
G02*
X186179750Y-76829500I218750J0D01*
G01*
X186692250Y-76829500D01*
G75*
G02*
X186911000Y-77048250I0J-218750D01*
G01*
X186911000Y-77485750D01*
G75*
G02*
X186692250Y-77704500I-218750J0D01*
G01*
G37*
G04 #@! TD*
G04 #@! TO.C,R15*
G36*
G01*
X183317500Y-75181750D02*
X183317500Y-75694250D01*
G75*
G02*
X183098750Y-75913000I-218750J0D01*
G01*
X182661250Y-75913000D01*
G75*
G02*
X182442500Y-75694250I0J218750D01*
G01*
X182442500Y-75181750D01*
G75*
G02*
X182661250Y-74963000I218750J0D01*
G01*
X183098750Y-74963000D01*
G75*
G02*
X183317500Y-75181750I0J-218750D01*
G01*
G37*
G36*
G01*
X184892500Y-75181750D02*
X184892500Y-75694250D01*
G75*
G02*
X184673750Y-75913000I-218750J0D01*
G01*
X184236250Y-75913000D01*
G75*
G02*
X184017500Y-75694250I0J218750D01*
G01*
X184017500Y-75181750D01*
G75*
G02*
X184236250Y-74963000I218750J0D01*
G01*
X184673750Y-74963000D01*
G75*
G02*
X184892500Y-75181750I0J-218750D01*
G01*
G37*
G04 #@! TD*
G04 #@! TO.C,R14*
G36*
G01*
X151956250Y-103437500D02*
X151443750Y-103437500D01*
G75*
G02*
X151225000Y-103218750I0J218750D01*
G01*
X151225000Y-102781250D01*
G75*
G02*
X151443750Y-102562500I218750J0D01*
G01*
X151956250Y-102562500D01*
G75*
G02*
X152175000Y-102781250I0J-218750D01*
G01*
X152175000Y-103218750D01*
G75*
G02*
X151956250Y-103437500I-218750J0D01*
G01*
G37*
G36*
G01*
X151956250Y-105012500D02*
X151443750Y-105012500D01*
G75*
G02*
X151225000Y-104793750I0J218750D01*
G01*
X151225000Y-104356250D01*
G75*
G02*
X151443750Y-104137500I218750J0D01*
G01*
X151956250Y-104137500D01*
G75*
G02*
X152175000Y-104356250I0J-218750D01*
G01*
X152175000Y-104793750D01*
G75*
G02*
X151956250Y-105012500I-218750J0D01*
G01*
G37*
G04 #@! TD*
G04 #@! TO.C,R13*
G36*
G01*
X138862500Y-106856250D02*
X138862500Y-106343750D01*
G75*
G02*
X139081250Y-106125000I218750J0D01*
G01*
X139518750Y-106125000D01*
G75*
G02*
X139737500Y-106343750I0J-218750D01*
G01*
X139737500Y-106856250D01*
G75*
G02*
X139518750Y-107075000I-218750J0D01*
G01*
X139081250Y-107075000D01*
G75*
G02*
X138862500Y-106856250I0J218750D01*
G01*
G37*
G36*
G01*
X137287500Y-106856250D02*
X137287500Y-106343750D01*
G75*
G02*
X137506250Y-106125000I218750J0D01*
G01*
X137943750Y-106125000D01*
G75*
G02*
X138162500Y-106343750I0J-218750D01*
G01*
X138162500Y-106856250D01*
G75*
G02*
X137943750Y-107075000I-218750J0D01*
G01*
X137506250Y-107075000D01*
G75*
G02*
X137287500Y-106856250I0J218750D01*
G01*
G37*
G04 #@! TD*
G04 #@! TO.C,R12*
G36*
G01*
X139843750Y-114312500D02*
X140356250Y-114312500D01*
G75*
G02*
X140575000Y-114531250I0J-218750D01*
G01*
X140575000Y-114968750D01*
G75*
G02*
X140356250Y-115187500I-218750J0D01*
G01*
X139843750Y-115187500D01*
G75*
G02*
X139625000Y-114968750I0J218750D01*
G01*
X139625000Y-114531250D01*
G75*
G02*
X139843750Y-114312500I218750J0D01*
G01*
G37*
G36*
G01*
X139843750Y-112737500D02*
X140356250Y-112737500D01*
G75*
G02*
X140575000Y-112956250I0J-218750D01*
G01*
X140575000Y-113393750D01*
G75*
G02*
X140356250Y-113612500I-218750J0D01*
G01*
X139843750Y-113612500D01*
G75*
G02*
X139625000Y-113393750I0J218750D01*
G01*
X139625000Y-112956250D01*
G75*
G02*
X139843750Y-112737500I218750J0D01*
G01*
G37*
G04 #@! TD*
G04 #@! TO.C,R11*
G36*
G01*
X155337500Y-98856250D02*
X155337500Y-98343750D01*
G75*
G02*
X155556250Y-98125000I218750J0D01*
G01*
X155993750Y-98125000D01*
G75*
G02*
X156212500Y-98343750I0J-218750D01*
G01*
X156212500Y-98856250D01*
G75*
G02*
X155993750Y-99075000I-218750J0D01*
G01*
X155556250Y-99075000D01*
G75*
G02*
X155337500Y-98856250I0J218750D01*
G01*
G37*
G36*
G01*
X153762500Y-98856250D02*
X153762500Y-98343750D01*
G75*
G02*
X153981250Y-98125000I218750J0D01*
G01*
X154418750Y-98125000D01*
G75*
G02*
X154637500Y-98343750I0J-218750D01*
G01*
X154637500Y-98856250D01*
G75*
G02*
X154418750Y-99075000I-218750J0D01*
G01*
X153981250Y-99075000D01*
G75*
G02*
X153762500Y-98856250I0J218750D01*
G01*
G37*
G04 #@! TD*
G04 #@! TO.C,R10*
G36*
G01*
X151894250Y-113162500D02*
X151381750Y-113162500D01*
G75*
G02*
X151163000Y-112943750I0J218750D01*
G01*
X151163000Y-112506250D01*
G75*
G02*
X151381750Y-112287500I218750J0D01*
G01*
X151894250Y-112287500D01*
G75*
G02*
X152113000Y-112506250I0J-218750D01*
G01*
X152113000Y-112943750D01*
G75*
G02*
X151894250Y-113162500I-218750J0D01*
G01*
G37*
G36*
G01*
X151894250Y-114737500D02*
X151381750Y-114737500D01*
G75*
G02*
X151163000Y-114518750I0J218750D01*
G01*
X151163000Y-114081250D01*
G75*
G02*
X151381750Y-113862500I218750J0D01*
G01*
X151894250Y-113862500D01*
G75*
G02*
X152113000Y-114081250I0J-218750D01*
G01*
X152113000Y-114518750D01*
G75*
G02*
X151894250Y-114737500I-218750J0D01*
G01*
G37*
G04 #@! TD*
G04 #@! TO.C,R9*
G36*
G01*
X168143750Y-109437500D02*
X168656250Y-109437500D01*
G75*
G02*
X168875000Y-109656250I0J-218750D01*
G01*
X168875000Y-110093750D01*
G75*
G02*
X168656250Y-110312500I-218750J0D01*
G01*
X168143750Y-110312500D01*
G75*
G02*
X167925000Y-110093750I0J218750D01*
G01*
X167925000Y-109656250D01*
G75*
G02*
X168143750Y-109437500I218750J0D01*
G01*
G37*
G36*
G01*
X168143750Y-107862500D02*
X168656250Y-107862500D01*
G75*
G02*
X168875000Y-108081250I0J-218750D01*
G01*
X168875000Y-108518750D01*
G75*
G02*
X168656250Y-108737500I-218750J0D01*
G01*
X168143750Y-108737500D01*
G75*
G02*
X167925000Y-108518750I0J218750D01*
G01*
X167925000Y-108081250D01*
G75*
G02*
X168143750Y-107862500I218750J0D01*
G01*
G37*
G04 #@! TD*
G04 #@! TO.C,R8*
G36*
G01*
X169993750Y-109287500D02*
X170506250Y-109287500D01*
G75*
G02*
X170725000Y-109506250I0J-218750D01*
G01*
X170725000Y-109943750D01*
G75*
G02*
X170506250Y-110162500I-218750J0D01*
G01*
X169993750Y-110162500D01*
G75*
G02*
X169775000Y-109943750I0J218750D01*
G01*
X169775000Y-109506250D01*
G75*
G02*
X169993750Y-109287500I218750J0D01*
G01*
G37*
G36*
G01*
X169993750Y-107712500D02*
X170506250Y-107712500D01*
G75*
G02*
X170725000Y-107931250I0J-218750D01*
G01*
X170725000Y-108368750D01*
G75*
G02*
X170506250Y-108587500I-218750J0D01*
G01*
X169993750Y-108587500D01*
G75*
G02*
X169775000Y-108368750I0J218750D01*
G01*
X169775000Y-107931250D01*
G75*
G02*
X169993750Y-107712500I218750J0D01*
G01*
G37*
G04 #@! TD*
G04 #@! TO.C,R7*
G36*
G01*
X113543750Y-93062500D02*
X114056250Y-93062500D01*
G75*
G02*
X114275000Y-93281250I0J-218750D01*
G01*
X114275000Y-93718750D01*
G75*
G02*
X114056250Y-93937500I-218750J0D01*
G01*
X113543750Y-93937500D01*
G75*
G02*
X113325000Y-93718750I0J218750D01*
G01*
X113325000Y-93281250D01*
G75*
G02*
X113543750Y-93062500I218750J0D01*
G01*
G37*
G36*
G01*
X113543750Y-91487500D02*
X114056250Y-91487500D01*
G75*
G02*
X114275000Y-91706250I0J-218750D01*
G01*
X114275000Y-92143750D01*
G75*
G02*
X114056250Y-92362500I-218750J0D01*
G01*
X113543750Y-92362500D01*
G75*
G02*
X113325000Y-92143750I0J218750D01*
G01*
X113325000Y-91706250D01*
G75*
G02*
X113543750Y-91487500I218750J0D01*
G01*
G37*
G04 #@! TD*
G04 #@! TO.C,R6*
G36*
G01*
X151993750Y-79337500D02*
X152506250Y-79337500D01*
G75*
G02*
X152725000Y-79556250I0J-218750D01*
G01*
X152725000Y-79993750D01*
G75*
G02*
X152506250Y-80212500I-218750J0D01*
G01*
X151993750Y-80212500D01*
G75*
G02*
X151775000Y-79993750I0J218750D01*
G01*
X151775000Y-79556250D01*
G75*
G02*
X151993750Y-79337500I218750J0D01*
G01*
G37*
G36*
G01*
X151993750Y-77762500D02*
X152506250Y-77762500D01*
G75*
G02*
X152725000Y-77981250I0J-218750D01*
G01*
X152725000Y-78418750D01*
G75*
G02*
X152506250Y-78637500I-218750J0D01*
G01*
X151993750Y-78637500D01*
G75*
G02*
X151775000Y-78418750I0J218750D01*
G01*
X151775000Y-77981250D01*
G75*
G02*
X151993750Y-77762500I218750J0D01*
G01*
G37*
G04 #@! TD*
G04 #@! TO.C,R5*
G36*
G01*
X138081250Y-97612500D02*
X137568750Y-97612500D01*
G75*
G02*
X137350000Y-97393750I0J218750D01*
G01*
X137350000Y-96956250D01*
G75*
G02*
X137568750Y-96737500I218750J0D01*
G01*
X138081250Y-96737500D01*
G75*
G02*
X138300000Y-96956250I0J-218750D01*
G01*
X138300000Y-97393750D01*
G75*
G02*
X138081250Y-97612500I-218750J0D01*
G01*
G37*
G36*
G01*
X138081250Y-99187500D02*
X137568750Y-99187500D01*
G75*
G02*
X137350000Y-98968750I0J218750D01*
G01*
X137350000Y-98531250D01*
G75*
G02*
X137568750Y-98312500I218750J0D01*
G01*
X138081250Y-98312500D01*
G75*
G02*
X138300000Y-98531250I0J-218750D01*
G01*
X138300000Y-98968750D01*
G75*
G02*
X138081250Y-99187500I-218750J0D01*
G01*
G37*
G04 #@! TD*
G04 #@! TO.C,R4*
G36*
G01*
X162643750Y-108387500D02*
X163156250Y-108387500D01*
G75*
G02*
X163375000Y-108606250I0J-218750D01*
G01*
X163375000Y-109043750D01*
G75*
G02*
X163156250Y-109262500I-218750J0D01*
G01*
X162643750Y-109262500D01*
G75*
G02*
X162425000Y-109043750I0J218750D01*
G01*
X162425000Y-108606250D01*
G75*
G02*
X162643750Y-108387500I218750J0D01*
G01*
G37*
G36*
G01*
X162643750Y-109962500D02*
X163156250Y-109962500D01*
G75*
G02*
X163375000Y-110181250I0J-218750D01*
G01*
X163375000Y-110618750D01*
G75*
G02*
X163156250Y-110837500I-218750J0D01*
G01*
X162643750Y-110837500D01*
G75*
G02*
X162425000Y-110618750I0J218750D01*
G01*
X162425000Y-110181250D01*
G75*
G02*
X162643750Y-109962500I218750J0D01*
G01*
G37*
G04 #@! TD*
G04 #@! TO.C,R3*
G36*
G01*
X164312500Y-108506250D02*
X164312500Y-107993750D01*
G75*
G02*
X164531250Y-107775000I218750J0D01*
G01*
X164968750Y-107775000D01*
G75*
G02*
X165187500Y-107993750I0J-218750D01*
G01*
X165187500Y-108506250D01*
G75*
G02*
X164968750Y-108725000I-218750J0D01*
G01*
X164531250Y-108725000D01*
G75*
G02*
X164312500Y-108506250I0J218750D01*
G01*
G37*
G36*
G01*
X165887500Y-108506250D02*
X165887500Y-107993750D01*
G75*
G02*
X166106250Y-107775000I218750J0D01*
G01*
X166543750Y-107775000D01*
G75*
G02*
X166762500Y-107993750I0J-218750D01*
G01*
X166762500Y-108506250D01*
G75*
G02*
X166543750Y-108725000I-218750J0D01*
G01*
X166106250Y-108725000D01*
G75*
G02*
X165887500Y-108506250I0J218750D01*
G01*
G37*
G04 #@! TD*
G04 #@! TO.C,R2*
G36*
G01*
X189351300Y-114911850D02*
X189351300Y-114399350D01*
G75*
G02*
X189570050Y-114180600I218750J0D01*
G01*
X190007550Y-114180600D01*
G75*
G02*
X190226300Y-114399350I0J-218750D01*
G01*
X190226300Y-114911850D01*
G75*
G02*
X190007550Y-115130600I-218750J0D01*
G01*
X189570050Y-115130600D01*
G75*
G02*
X189351300Y-114911850I0J218750D01*
G01*
G37*
G36*
G01*
X187776300Y-114911850D02*
X187776300Y-114399350D01*
G75*
G02*
X187995050Y-114180600I218750J0D01*
G01*
X188432550Y-114180600D01*
G75*
G02*
X188651300Y-114399350I0J-218750D01*
G01*
X188651300Y-114911850D01*
G75*
G02*
X188432550Y-115130600I-218750J0D01*
G01*
X187995050Y-115130600D01*
G75*
G02*
X187776300Y-114911850I0J218750D01*
G01*
G37*
G04 #@! TD*
G04 #@! TO.C,R1*
G36*
G01*
X169893750Y-110987500D02*
X170406250Y-110987500D01*
G75*
G02*
X170625000Y-111206250I0J-218750D01*
G01*
X170625000Y-111643750D01*
G75*
G02*
X170406250Y-111862500I-218750J0D01*
G01*
X169893750Y-111862500D01*
G75*
G02*
X169675000Y-111643750I0J218750D01*
G01*
X169675000Y-111206250D01*
G75*
G02*
X169893750Y-110987500I218750J0D01*
G01*
G37*
G36*
G01*
X169893750Y-112562500D02*
X170406250Y-112562500D01*
G75*
G02*
X170625000Y-112781250I0J-218750D01*
G01*
X170625000Y-113218750D01*
G75*
G02*
X170406250Y-113437500I-218750J0D01*
G01*
X169893750Y-113437500D01*
G75*
G02*
X169675000Y-113218750I0J218750D01*
G01*
X169675000Y-112781250D01*
G75*
G02*
X169893750Y-112562500I218750J0D01*
G01*
G37*
G04 #@! TD*
D32*
G04 #@! TO.C,Q1*
X207900000Y-87450000D03*
X207250000Y-85350000D03*
X208550000Y-85350000D03*
G04 #@! TD*
D18*
G04 #@! TO.C,M1*
X160840000Y-73000000D03*
D19*
X158300000Y-73000000D03*
G04 #@! TD*
D33*
G04 #@! TO.C,L2*
X205000000Y-93500000D03*
X202450000Y-93500000D03*
G04 #@! TD*
G04 #@! TO.C,L1*
X180248400Y-81635600D03*
X177698400Y-81635600D03*
G04 #@! TD*
D34*
G04 #@! TO.C,JP3*
G36*
X171768200Y-78117000D02*
G01*
X172318200Y-78117000D01*
X172318200Y-78117602D01*
X172342734Y-78117602D01*
X172391565Y-78122412D01*
X172439690Y-78131984D01*
X172486645Y-78146228D01*
X172531978Y-78165005D01*
X172575251Y-78188136D01*
X172616050Y-78215396D01*
X172653979Y-78246524D01*
X172688676Y-78281221D01*
X172719804Y-78319150D01*
X172747064Y-78359949D01*
X172770195Y-78403222D01*
X172788972Y-78448555D01*
X172803216Y-78495510D01*
X172812788Y-78543635D01*
X172817598Y-78592466D01*
X172817598Y-78617000D01*
X172818200Y-78617000D01*
X172818200Y-79117000D01*
X172817598Y-79117000D01*
X172817598Y-79141534D01*
X172812788Y-79190365D01*
X172803216Y-79238490D01*
X172788972Y-79285445D01*
X172770195Y-79330778D01*
X172747064Y-79374051D01*
X172719804Y-79414850D01*
X172688676Y-79452779D01*
X172653979Y-79487476D01*
X172616050Y-79518604D01*
X172575251Y-79545864D01*
X172531978Y-79568995D01*
X172486645Y-79587772D01*
X172439690Y-79602016D01*
X172391565Y-79611588D01*
X172342734Y-79616398D01*
X172318200Y-79616398D01*
X172318200Y-79617000D01*
X171768200Y-79617000D01*
X171768200Y-78117000D01*
G37*
D35*
X171018200Y-78867000D03*
D34*
G36*
X169718200Y-79616398D02*
G01*
X169693666Y-79616398D01*
X169644835Y-79611588D01*
X169596710Y-79602016D01*
X169549755Y-79587772D01*
X169504422Y-79568995D01*
X169461149Y-79545864D01*
X169420350Y-79518604D01*
X169382421Y-79487476D01*
X169347724Y-79452779D01*
X169316596Y-79414850D01*
X169289336Y-79374051D01*
X169266205Y-79330778D01*
X169247428Y-79285445D01*
X169233184Y-79238490D01*
X169223612Y-79190365D01*
X169218802Y-79141534D01*
X169218802Y-79117000D01*
X169218200Y-79117000D01*
X169218200Y-78617000D01*
X169218802Y-78617000D01*
X169218802Y-78592466D01*
X169223612Y-78543635D01*
X169233184Y-78495510D01*
X169247428Y-78448555D01*
X169266205Y-78403222D01*
X169289336Y-78359949D01*
X169316596Y-78319150D01*
X169347724Y-78281221D01*
X169382421Y-78246524D01*
X169420350Y-78215396D01*
X169461149Y-78188136D01*
X169504422Y-78165005D01*
X169549755Y-78146228D01*
X169596710Y-78131984D01*
X169644835Y-78122412D01*
X169693666Y-78117602D01*
X169718200Y-78117602D01*
X169718200Y-78117000D01*
X170268200Y-78117000D01*
X170268200Y-79617000D01*
X169718200Y-79617000D01*
X169718200Y-79616398D01*
G37*
G04 #@! TD*
G04 #@! TO.C,JP2*
G36*
X202984800Y-110121600D02*
G01*
X202984800Y-110621600D01*
X202984198Y-110621600D01*
X202984198Y-110646134D01*
X202979388Y-110694965D01*
X202969816Y-110743090D01*
X202955572Y-110790045D01*
X202936795Y-110835378D01*
X202913664Y-110878651D01*
X202886404Y-110919450D01*
X202855276Y-110957379D01*
X202820579Y-110992076D01*
X202782650Y-111023204D01*
X202741851Y-111050464D01*
X202698578Y-111073595D01*
X202653245Y-111092372D01*
X202606290Y-111106616D01*
X202558165Y-111116188D01*
X202509334Y-111120998D01*
X202484800Y-111120998D01*
X202484800Y-111121600D01*
X201984800Y-111121600D01*
X201984800Y-111120998D01*
X201960266Y-111120998D01*
X201911435Y-111116188D01*
X201863310Y-111106616D01*
X201816355Y-111092372D01*
X201771022Y-111073595D01*
X201727749Y-111050464D01*
X201686950Y-111023204D01*
X201649021Y-110992076D01*
X201614324Y-110957379D01*
X201583196Y-110919450D01*
X201555936Y-110878651D01*
X201532805Y-110835378D01*
X201514028Y-110790045D01*
X201499784Y-110743090D01*
X201490212Y-110694965D01*
X201485402Y-110646134D01*
X201485402Y-110621600D01*
X201484800Y-110621600D01*
X201484800Y-110121600D01*
X202984800Y-110121600D01*
G37*
G36*
X201485402Y-109321600D02*
G01*
X201485402Y-109297066D01*
X201490212Y-109248235D01*
X201499784Y-109200110D01*
X201514028Y-109153155D01*
X201532805Y-109107822D01*
X201555936Y-109064549D01*
X201583196Y-109023750D01*
X201614324Y-108985821D01*
X201649021Y-108951124D01*
X201686950Y-108919996D01*
X201727749Y-108892736D01*
X201771022Y-108869605D01*
X201816355Y-108850828D01*
X201863310Y-108836584D01*
X201911435Y-108827012D01*
X201960266Y-108822202D01*
X201984800Y-108822202D01*
X201984800Y-108821600D01*
X202484800Y-108821600D01*
X202484800Y-108822202D01*
X202509334Y-108822202D01*
X202558165Y-108827012D01*
X202606290Y-108836584D01*
X202653245Y-108850828D01*
X202698578Y-108869605D01*
X202741851Y-108892736D01*
X202782650Y-108919996D01*
X202820579Y-108951124D01*
X202855276Y-108985821D01*
X202886404Y-109023750D01*
X202913664Y-109064549D01*
X202936795Y-109107822D01*
X202955572Y-109153155D01*
X202969816Y-109200110D01*
X202979388Y-109248235D01*
X202984198Y-109297066D01*
X202984198Y-109321600D01*
X202984800Y-109321600D01*
X202984800Y-109821600D01*
X201484800Y-109821600D01*
X201484800Y-109321600D01*
X201485402Y-109321600D01*
G37*
G04 #@! TD*
G04 #@! TO.C,JP1*
G36*
X203238800Y-115709600D02*
G01*
X203238800Y-116209600D01*
X203238198Y-116209600D01*
X203238198Y-116234134D01*
X203233388Y-116282965D01*
X203223816Y-116331090D01*
X203209572Y-116378045D01*
X203190795Y-116423378D01*
X203167664Y-116466651D01*
X203140404Y-116507450D01*
X203109276Y-116545379D01*
X203074579Y-116580076D01*
X203036650Y-116611204D01*
X202995851Y-116638464D01*
X202952578Y-116661595D01*
X202907245Y-116680372D01*
X202860290Y-116694616D01*
X202812165Y-116704188D01*
X202763334Y-116708998D01*
X202738800Y-116708998D01*
X202738800Y-116709600D01*
X202238800Y-116709600D01*
X202238800Y-116708998D01*
X202214266Y-116708998D01*
X202165435Y-116704188D01*
X202117310Y-116694616D01*
X202070355Y-116680372D01*
X202025022Y-116661595D01*
X201981749Y-116638464D01*
X201940950Y-116611204D01*
X201903021Y-116580076D01*
X201868324Y-116545379D01*
X201837196Y-116507450D01*
X201809936Y-116466651D01*
X201786805Y-116423378D01*
X201768028Y-116378045D01*
X201753784Y-116331090D01*
X201744212Y-116282965D01*
X201739402Y-116234134D01*
X201739402Y-116209600D01*
X201738800Y-116209600D01*
X201738800Y-115709600D01*
X203238800Y-115709600D01*
G37*
G36*
X201739402Y-114909600D02*
G01*
X201739402Y-114885066D01*
X201744212Y-114836235D01*
X201753784Y-114788110D01*
X201768028Y-114741155D01*
X201786805Y-114695822D01*
X201809936Y-114652549D01*
X201837196Y-114611750D01*
X201868324Y-114573821D01*
X201903021Y-114539124D01*
X201940950Y-114507996D01*
X201981749Y-114480736D01*
X202025022Y-114457605D01*
X202070355Y-114438828D01*
X202117310Y-114424584D01*
X202165435Y-114415012D01*
X202214266Y-114410202D01*
X202238800Y-114410202D01*
X202238800Y-114409600D01*
X202738800Y-114409600D01*
X202738800Y-114410202D01*
X202763334Y-114410202D01*
X202812165Y-114415012D01*
X202860290Y-114424584D01*
X202907245Y-114438828D01*
X202952578Y-114457605D01*
X202995851Y-114480736D01*
X203036650Y-114507996D01*
X203074579Y-114539124D01*
X203109276Y-114573821D01*
X203140404Y-114611750D01*
X203167664Y-114652549D01*
X203190795Y-114695822D01*
X203209572Y-114741155D01*
X203223816Y-114788110D01*
X203233388Y-114836235D01*
X203238198Y-114885066D01*
X203238198Y-114909600D01*
X203238800Y-114909600D01*
X203238800Y-115409600D01*
X201738800Y-115409600D01*
X201738800Y-114909600D01*
X201739402Y-114909600D01*
G37*
G04 #@! TD*
D36*
G04 #@! TO.C,J13*
X213360000Y-101630000D03*
X213360000Y-86330000D03*
D37*
X210110000Y-88230000D03*
X210110000Y-88730000D03*
X210110000Y-89230000D03*
X210110000Y-89730000D03*
X210110000Y-90230000D03*
X210110000Y-90730000D03*
X210110000Y-91230000D03*
X210110000Y-91730000D03*
X210110000Y-92230000D03*
X210110000Y-92730000D03*
X210110000Y-93230000D03*
X210110000Y-93730000D03*
X210110000Y-94230000D03*
X210110000Y-94730000D03*
X210110000Y-95230000D03*
X210110000Y-95730000D03*
X210110000Y-96230000D03*
X210110000Y-96730000D03*
X210110000Y-97230000D03*
X210110000Y-97730000D03*
X210110000Y-98230000D03*
X210110000Y-98730000D03*
X210110000Y-99230000D03*
X210110000Y-99730000D03*
G04 #@! TD*
D18*
G04 #@! TO.C,J10*
X179476400Y-72948800D03*
D19*
X176936400Y-72948800D03*
G04 #@! TD*
D38*
G04 #@! TO.C,J9*
X192602200Y-80340200D03*
X196672200Y-80340200D03*
X192602200Y-81610200D03*
X196672200Y-81610200D03*
X192602200Y-76530200D03*
X196672200Y-76530200D03*
X192602200Y-77800200D03*
X196672200Y-77800200D03*
X192602200Y-79070200D03*
X196672200Y-79070200D03*
G04 #@! TD*
D11*
G04 #@! TO.C,J8*
X120780000Y-91850000D03*
X120780000Y-89850000D03*
X120780000Y-87850000D03*
X120780000Y-85850000D03*
X120780000Y-83850000D03*
X119380000Y-91350000D03*
X119380000Y-88850000D03*
X119380000Y-86850000D03*
X119380000Y-84350000D03*
D39*
X119380000Y-94420000D03*
X119380000Y-81280000D03*
G04 #@! TD*
D11*
G04 #@! TO.C,J7*
X157200000Y-83770000D03*
X157200000Y-85770000D03*
X157200000Y-87770000D03*
X157200000Y-89770000D03*
X157200000Y-91770000D03*
X158600000Y-84270000D03*
X158600000Y-86770000D03*
X158600000Y-88770000D03*
X158600000Y-91270000D03*
D39*
X158600000Y-81200000D03*
X158600000Y-94340000D03*
G04 #@! TD*
D11*
G04 #@! TO.C,J3*
X138560000Y-91850000D03*
X138560000Y-89850000D03*
X138560000Y-87850000D03*
X138560000Y-85850000D03*
X138560000Y-83850000D03*
X137160000Y-91350000D03*
X137160000Y-88850000D03*
X137160000Y-86850000D03*
X137160000Y-84350000D03*
D39*
X137160000Y-94420000D03*
X137160000Y-81280000D03*
G04 #@! TD*
D40*
G04 #@! TO.C,J2*
X158410000Y-114552600D03*
X157760000Y-114552600D03*
X157110000Y-114552600D03*
X159060000Y-114552600D03*
X159710000Y-114552600D03*
X163810000Y-114552600D03*
X165110000Y-114552600D03*
X165760000Y-114552600D03*
X166410000Y-114552600D03*
D41*
X154680000Y-116052600D03*
X170180000Y-116052600D03*
D40*
X164460000Y-114552600D03*
D42*
X162890000Y-117132600D03*
D16*
X162430000Y-116242600D03*
G04 #@! TD*
G04 #@! TO.C,J1*
G36*
G01*
X179199999Y-115650000D02*
X176400001Y-115650000D01*
G75*
G02*
X176150000Y-115399999I0J250001D01*
G01*
X176150000Y-113200001D01*
G75*
G02*
X176400001Y-112950000I250001J0D01*
G01*
X179199999Y-112950000D01*
G75*
G02*
X179450000Y-113200001I0J-250001D01*
G01*
X179450000Y-115399999D01*
G75*
G02*
X179199999Y-115650000I-250001J0D01*
G01*
G37*
D43*
X183300000Y-114300000D03*
G04 #@! TD*
D16*
G04 #@! TO.C,H4*
X94822944Y-75357056D03*
X96520000Y-76060000D03*
X98217056Y-75357056D03*
X98920000Y-73660000D03*
X98217056Y-71962944D03*
X96520000Y-71260000D03*
X94822944Y-71962944D03*
X94120000Y-73660000D03*
D17*
X96520000Y-73660000D03*
G04 #@! TD*
D16*
G04 #@! TO.C,H3*
X98217056Y-115997056D03*
X98920000Y-114300000D03*
X98217056Y-112602944D03*
X96520000Y-111900000D03*
X94822944Y-112602944D03*
X94120000Y-114300000D03*
X94822944Y-115997056D03*
X96520000Y-116700000D03*
D17*
X96520000Y-114300000D03*
G04 #@! TD*
D16*
G04 #@! TO.C,H2*
X209122944Y-115997056D03*
X210820000Y-116700000D03*
X212517056Y-115997056D03*
X213220000Y-114300000D03*
X212517056Y-112602944D03*
X210820000Y-111900000D03*
X209122944Y-112602944D03*
X208420000Y-114300000D03*
D17*
X210820000Y-114300000D03*
G04 #@! TD*
D16*
G04 #@! TO.C,H1*
X209122944Y-75357056D03*
X210820000Y-76060000D03*
X212517056Y-75357056D03*
X213220000Y-73660000D03*
X212517056Y-71962944D03*
X210820000Y-71260000D03*
X209122944Y-71962944D03*
X208420000Y-73660000D03*
D17*
X210820000Y-73660000D03*
G04 #@! TD*
G04 #@! TO.C,FB3*
G36*
G01*
X166113750Y-93161500D02*
X166626250Y-93161500D01*
G75*
G02*
X166845000Y-93380250I0J-218750D01*
G01*
X166845000Y-93817750D01*
G75*
G02*
X166626250Y-94036500I-218750J0D01*
G01*
X166113750Y-94036500D01*
G75*
G02*
X165895000Y-93817750I0J218750D01*
G01*
X165895000Y-93380250D01*
G75*
G02*
X166113750Y-93161500I218750J0D01*
G01*
G37*
G36*
G01*
X166113750Y-91586500D02*
X166626250Y-91586500D01*
G75*
G02*
X166845000Y-91805250I0J-218750D01*
G01*
X166845000Y-92242750D01*
G75*
G02*
X166626250Y-92461500I-218750J0D01*
G01*
X166113750Y-92461500D01*
G75*
G02*
X165895000Y-92242750I0J218750D01*
G01*
X165895000Y-91805250D01*
G75*
G02*
X166113750Y-91586500I218750J0D01*
G01*
G37*
G04 #@! TD*
G04 #@! TO.C,FB2*
G36*
G01*
X146433250Y-113340500D02*
X145920750Y-113340500D01*
G75*
G02*
X145702000Y-113121750I0J218750D01*
G01*
X145702000Y-112684250D01*
G75*
G02*
X145920750Y-112465500I218750J0D01*
G01*
X146433250Y-112465500D01*
G75*
G02*
X146652000Y-112684250I0J-218750D01*
G01*
X146652000Y-113121750D01*
G75*
G02*
X146433250Y-113340500I-218750J0D01*
G01*
G37*
G36*
G01*
X146433250Y-114915500D02*
X145920750Y-114915500D01*
G75*
G02*
X145702000Y-114696750I0J218750D01*
G01*
X145702000Y-114259250D01*
G75*
G02*
X145920750Y-114040500I218750J0D01*
G01*
X146433250Y-114040500D01*
G75*
G02*
X146652000Y-114259250I0J-218750D01*
G01*
X146652000Y-114696750D01*
G75*
G02*
X146433250Y-114915500I-218750J0D01*
G01*
G37*
G04 #@! TD*
G04 #@! TO.C,FB1*
G36*
G01*
X148084250Y-113416500D02*
X147571750Y-113416500D01*
G75*
G02*
X147353000Y-113197750I0J218750D01*
G01*
X147353000Y-112760250D01*
G75*
G02*
X147571750Y-112541500I218750J0D01*
G01*
X148084250Y-112541500D01*
G75*
G02*
X148303000Y-112760250I0J-218750D01*
G01*
X148303000Y-113197750D01*
G75*
G02*
X148084250Y-113416500I-218750J0D01*
G01*
G37*
G36*
G01*
X148084250Y-114991500D02*
X147571750Y-114991500D01*
G75*
G02*
X147353000Y-114772750I0J218750D01*
G01*
X147353000Y-114335250D01*
G75*
G02*
X147571750Y-114116500I218750J0D01*
G01*
X148084250Y-114116500D01*
G75*
G02*
X148303000Y-114335250I0J-218750D01*
G01*
X148303000Y-114772750D01*
G75*
G02*
X148084250Y-114991500I-218750J0D01*
G01*
G37*
G04 #@! TD*
G04 #@! TO.C,F1*
G36*
G01*
X188905300Y-108620850D02*
X188905300Y-109133350D01*
G75*
G02*
X188686550Y-109352100I-218750J0D01*
G01*
X188249050Y-109352100D01*
G75*
G02*
X188030300Y-109133350I0J218750D01*
G01*
X188030300Y-108620850D01*
G75*
G02*
X188249050Y-108402100I218750J0D01*
G01*
X188686550Y-108402100D01*
G75*
G02*
X188905300Y-108620850I0J-218750D01*
G01*
G37*
G36*
G01*
X190480300Y-108620850D02*
X190480300Y-109133350D01*
G75*
G02*
X190261550Y-109352100I-218750J0D01*
G01*
X189824050Y-109352100D01*
G75*
G02*
X189605300Y-109133350I0J218750D01*
G01*
X189605300Y-108620850D01*
G75*
G02*
X189824050Y-108402100I218750J0D01*
G01*
X190261550Y-108402100D01*
G75*
G02*
X190480300Y-108620850I0J-218750D01*
G01*
G37*
G04 #@! TD*
D14*
G04 #@! TO.C,D5*
X204650000Y-88000000D03*
X204650000Y-90800000D03*
G04 #@! TD*
G04 #@! TO.C,D3*
X201650000Y-102100000D03*
X201650000Y-99300000D03*
G04 #@! TD*
G04 #@! TO.C,D2*
G36*
G01*
X188636300Y-82117250D02*
X188636300Y-81204750D01*
G75*
G02*
X188880050Y-80961000I243750J0D01*
G01*
X189367550Y-80961000D01*
G75*
G02*
X189611300Y-81204750I0J-243750D01*
G01*
X189611300Y-82117250D01*
G75*
G02*
X189367550Y-82361000I-243750J0D01*
G01*
X188880050Y-82361000D01*
G75*
G02*
X188636300Y-82117250I0J243750D01*
G01*
G37*
G36*
G01*
X186761300Y-82117250D02*
X186761300Y-81204750D01*
G75*
G02*
X187005050Y-80961000I243750J0D01*
G01*
X187492550Y-80961000D01*
G75*
G02*
X187736300Y-81204750I0J-243750D01*
G01*
X187736300Y-82117250D01*
G75*
G02*
X187492550Y-82361000I-243750J0D01*
G01*
X187005050Y-82361000D01*
G75*
G02*
X186761300Y-82117250I0J243750D01*
G01*
G37*
G04 #@! TD*
G04 #@! TO.C,D1*
G36*
G01*
X189555300Y-117143850D02*
X189555300Y-116231350D01*
G75*
G02*
X189799050Y-115987600I243750J0D01*
G01*
X190286550Y-115987600D01*
G75*
G02*
X190530300Y-116231350I0J-243750D01*
G01*
X190530300Y-117143850D01*
G75*
G02*
X190286550Y-117387600I-243750J0D01*
G01*
X189799050Y-117387600D01*
G75*
G02*
X189555300Y-117143850I0J243750D01*
G01*
G37*
G36*
G01*
X187680300Y-117143850D02*
X187680300Y-116231350D01*
G75*
G02*
X187924050Y-115987600I243750J0D01*
G01*
X188411550Y-115987600D01*
G75*
G02*
X188655300Y-116231350I0J-243750D01*
G01*
X188655300Y-117143850D01*
G75*
G02*
X188411550Y-117387600I-243750J0D01*
G01*
X187924050Y-117387600D01*
G75*
G02*
X187680300Y-117143850I0J243750D01*
G01*
G37*
G04 #@! TD*
G04 #@! TO.C,C62*
G36*
G01*
X207212500Y-90093750D02*
X207212500Y-90606250D01*
G75*
G02*
X206993750Y-90825000I-218750J0D01*
G01*
X206556250Y-90825000D01*
G75*
G02*
X206337500Y-90606250I0J218750D01*
G01*
X206337500Y-90093750D01*
G75*
G02*
X206556250Y-89875000I218750J0D01*
G01*
X206993750Y-89875000D01*
G75*
G02*
X207212500Y-90093750I0J-218750D01*
G01*
G37*
G36*
G01*
X208787500Y-90093750D02*
X208787500Y-90606250D01*
G75*
G02*
X208568750Y-90825000I-218750J0D01*
G01*
X208131250Y-90825000D01*
G75*
G02*
X207912500Y-90606250I0J218750D01*
G01*
X207912500Y-90093750D01*
G75*
G02*
X208131250Y-89875000I218750J0D01*
G01*
X208568750Y-89875000D01*
G75*
G02*
X208787500Y-90093750I0J-218750D01*
G01*
G37*
G04 #@! TD*
G04 #@! TO.C,C61*
G36*
G01*
X207262500Y-102943750D02*
X207262500Y-103456250D01*
G75*
G02*
X207043750Y-103675000I-218750J0D01*
G01*
X206606250Y-103675000D01*
G75*
G02*
X206387500Y-103456250I0J218750D01*
G01*
X206387500Y-102943750D01*
G75*
G02*
X206606250Y-102725000I218750J0D01*
G01*
X207043750Y-102725000D01*
G75*
G02*
X207262500Y-102943750I0J-218750D01*
G01*
G37*
G36*
G01*
X208837500Y-102943750D02*
X208837500Y-103456250D01*
G75*
G02*
X208618750Y-103675000I-218750J0D01*
G01*
X208181250Y-103675000D01*
G75*
G02*
X207962500Y-103456250I0J218750D01*
G01*
X207962500Y-102943750D01*
G75*
G02*
X208181250Y-102725000I218750J0D01*
G01*
X208618750Y-102725000D01*
G75*
G02*
X208837500Y-102943750I0J-218750D01*
G01*
G37*
G04 #@! TD*
G04 #@! TO.C,C60*
G36*
G01*
X204062500Y-98793750D02*
X204062500Y-99306250D01*
G75*
G02*
X203843750Y-99525000I-218750J0D01*
G01*
X203406250Y-99525000D01*
G75*
G02*
X203187500Y-99306250I0J218750D01*
G01*
X203187500Y-98793750D01*
G75*
G02*
X203406250Y-98575000I218750J0D01*
G01*
X203843750Y-98575000D01*
G75*
G02*
X204062500Y-98793750I0J-218750D01*
G01*
G37*
G36*
G01*
X205637500Y-98793750D02*
X205637500Y-99306250D01*
G75*
G02*
X205418750Y-99525000I-218750J0D01*
G01*
X204981250Y-99525000D01*
G75*
G02*
X204762500Y-99306250I0J218750D01*
G01*
X204762500Y-98793750D01*
G75*
G02*
X204981250Y-98575000I218750J0D01*
G01*
X205418750Y-98575000D01*
G75*
G02*
X205637500Y-98793750I0J-218750D01*
G01*
G37*
G04 #@! TD*
G04 #@! TO.C,C59*
G36*
G01*
X207912500Y-97706250D02*
X207912500Y-97193750D01*
G75*
G02*
X208131250Y-96975000I218750J0D01*
G01*
X208568750Y-96975000D01*
G75*
G02*
X208787500Y-97193750I0J-218750D01*
G01*
X208787500Y-97706250D01*
G75*
G02*
X208568750Y-97925000I-218750J0D01*
G01*
X208131250Y-97925000D01*
G75*
G02*
X207912500Y-97706250I0J218750D01*
G01*
G37*
G36*
G01*
X206337500Y-97706250D02*
X206337500Y-97193750D01*
G75*
G02*
X206556250Y-96975000I218750J0D01*
G01*
X206993750Y-96975000D01*
G75*
G02*
X207212500Y-97193750I0J-218750D01*
G01*
X207212500Y-97706250D01*
G75*
G02*
X206993750Y-97925000I-218750J0D01*
G01*
X206556250Y-97925000D01*
G75*
G02*
X206337500Y-97706250I0J218750D01*
G01*
G37*
G04 #@! TD*
G04 #@! TO.C,C58*
G36*
G01*
X204762500Y-96106250D02*
X204762500Y-95593750D01*
G75*
G02*
X204981250Y-95375000I218750J0D01*
G01*
X205418750Y-95375000D01*
G75*
G02*
X205637500Y-95593750I0J-218750D01*
G01*
X205637500Y-96106250D01*
G75*
G02*
X205418750Y-96325000I-218750J0D01*
G01*
X204981250Y-96325000D01*
G75*
G02*
X204762500Y-96106250I0J218750D01*
G01*
G37*
G36*
G01*
X203187500Y-96106250D02*
X203187500Y-95593750D01*
G75*
G02*
X203406250Y-95375000I218750J0D01*
G01*
X203843750Y-95375000D01*
G75*
G02*
X204062500Y-95593750I0J-218750D01*
G01*
X204062500Y-96106250D01*
G75*
G02*
X203843750Y-96325000I-218750J0D01*
G01*
X203406250Y-96325000D01*
G75*
G02*
X203187500Y-96106250I0J218750D01*
G01*
G37*
G04 #@! TD*
G04 #@! TO.C,C57*
G36*
G01*
X204062500Y-97193750D02*
X204062500Y-97706250D01*
G75*
G02*
X203843750Y-97925000I-218750J0D01*
G01*
X203406250Y-97925000D01*
G75*
G02*
X203187500Y-97706250I0J218750D01*
G01*
X203187500Y-97193750D01*
G75*
G02*
X203406250Y-96975000I218750J0D01*
G01*
X203843750Y-96975000D01*
G75*
G02*
X204062500Y-97193750I0J-218750D01*
G01*
G37*
G36*
G01*
X205637500Y-97193750D02*
X205637500Y-97706250D01*
G75*
G02*
X205418750Y-97925000I-218750J0D01*
G01*
X204981250Y-97925000D01*
G75*
G02*
X204762500Y-97706250I0J218750D01*
G01*
X204762500Y-97193750D01*
G75*
G02*
X204981250Y-96975000I218750J0D01*
G01*
X205418750Y-96975000D01*
G75*
G02*
X205637500Y-97193750I0J-218750D01*
G01*
G37*
G04 #@! TD*
G04 #@! TO.C,C56*
G36*
G01*
X207212500Y-98793750D02*
X207212500Y-99306250D01*
G75*
G02*
X206993750Y-99525000I-218750J0D01*
G01*
X206556250Y-99525000D01*
G75*
G02*
X206337500Y-99306250I0J218750D01*
G01*
X206337500Y-98793750D01*
G75*
G02*
X206556250Y-98575000I218750J0D01*
G01*
X206993750Y-98575000D01*
G75*
G02*
X207212500Y-98793750I0J-218750D01*
G01*
G37*
G36*
G01*
X208787500Y-98793750D02*
X208787500Y-99306250D01*
G75*
G02*
X208568750Y-99525000I-218750J0D01*
G01*
X208131250Y-99525000D01*
G75*
G02*
X207912500Y-99306250I0J218750D01*
G01*
X207912500Y-98793750D01*
G75*
G02*
X208131250Y-98575000I218750J0D01*
G01*
X208568750Y-98575000D01*
G75*
G02*
X208787500Y-98793750I0J-218750D01*
G01*
G37*
G04 #@! TD*
G04 #@! TO.C,C54*
G36*
G01*
X171241300Y-76938850D02*
X171241300Y-76426350D01*
G75*
G02*
X171460050Y-76207600I218750J0D01*
G01*
X171897550Y-76207600D01*
G75*
G02*
X172116300Y-76426350I0J-218750D01*
G01*
X172116300Y-76938850D01*
G75*
G02*
X171897550Y-77157600I-218750J0D01*
G01*
X171460050Y-77157600D01*
G75*
G02*
X171241300Y-76938850I0J218750D01*
G01*
G37*
G36*
G01*
X169666300Y-76938850D02*
X169666300Y-76426350D01*
G75*
G02*
X169885050Y-76207600I218750J0D01*
G01*
X170322550Y-76207600D01*
G75*
G02*
X170541300Y-76426350I0J-218750D01*
G01*
X170541300Y-76938850D01*
G75*
G02*
X170322550Y-77157600I-218750J0D01*
G01*
X169885050Y-77157600D01*
G75*
G02*
X169666300Y-76938850I0J218750D01*
G01*
G37*
G04 #@! TD*
G04 #@! TO.C,C52*
G36*
G01*
X207187500Y-93993750D02*
X207187500Y-94506250D01*
G75*
G02*
X206968750Y-94725000I-218750J0D01*
G01*
X206531250Y-94725000D01*
G75*
G02*
X206312500Y-94506250I0J218750D01*
G01*
X206312500Y-93993750D01*
G75*
G02*
X206531250Y-93775000I218750J0D01*
G01*
X206968750Y-93775000D01*
G75*
G02*
X207187500Y-93993750I0J-218750D01*
G01*
G37*
G36*
G01*
X208762500Y-93993750D02*
X208762500Y-94506250D01*
G75*
G02*
X208543750Y-94725000I-218750J0D01*
G01*
X208106250Y-94725000D01*
G75*
G02*
X207887500Y-94506250I0J218750D01*
G01*
X207887500Y-93993750D01*
G75*
G02*
X208106250Y-93775000I218750J0D01*
G01*
X208543750Y-93775000D01*
G75*
G02*
X208762500Y-93993750I0J-218750D01*
G01*
G37*
G04 #@! TD*
G04 #@! TO.C,C51*
G36*
G01*
X168251850Y-72979900D02*
X167739350Y-72979900D01*
G75*
G02*
X167520600Y-72761150I0J218750D01*
G01*
X167520600Y-72323650D01*
G75*
G02*
X167739350Y-72104900I218750J0D01*
G01*
X168251850Y-72104900D01*
G75*
G02*
X168470600Y-72323650I0J-218750D01*
G01*
X168470600Y-72761150D01*
G75*
G02*
X168251850Y-72979900I-218750J0D01*
G01*
G37*
G36*
G01*
X168251850Y-74554900D02*
X167739350Y-74554900D01*
G75*
G02*
X167520600Y-74336150I0J218750D01*
G01*
X167520600Y-73898650D01*
G75*
G02*
X167739350Y-73679900I218750J0D01*
G01*
X168251850Y-73679900D01*
G75*
G02*
X168470600Y-73898650I0J-218750D01*
G01*
X168470600Y-74336150D01*
G75*
G02*
X168251850Y-74554900I-218750J0D01*
G01*
G37*
G04 #@! TD*
G04 #@! TO.C,C50*
G36*
G01*
X173809950Y-73806900D02*
X174322450Y-73806900D01*
G75*
G02*
X174541200Y-74025650I0J-218750D01*
G01*
X174541200Y-74463150D01*
G75*
G02*
X174322450Y-74681900I-218750J0D01*
G01*
X173809950Y-74681900D01*
G75*
G02*
X173591200Y-74463150I0J218750D01*
G01*
X173591200Y-74025650D01*
G75*
G02*
X173809950Y-73806900I218750J0D01*
G01*
G37*
G36*
G01*
X173809950Y-72231900D02*
X174322450Y-72231900D01*
G75*
G02*
X174541200Y-72450650I0J-218750D01*
G01*
X174541200Y-72888150D01*
G75*
G02*
X174322450Y-73106900I-218750J0D01*
G01*
X173809950Y-73106900D01*
G75*
G02*
X173591200Y-72888150I0J218750D01*
G01*
X173591200Y-72450650D01*
G75*
G02*
X173809950Y-72231900I218750J0D01*
G01*
G37*
G04 #@! TD*
G04 #@! TO.C,C49*
G36*
G01*
X186379500Y-88711750D02*
X186379500Y-88199250D01*
G75*
G02*
X186598250Y-87980500I218750J0D01*
G01*
X187035750Y-87980500D01*
G75*
G02*
X187254500Y-88199250I0J-218750D01*
G01*
X187254500Y-88711750D01*
G75*
G02*
X187035750Y-88930500I-218750J0D01*
G01*
X186598250Y-88930500D01*
G75*
G02*
X186379500Y-88711750I0J218750D01*
G01*
G37*
G36*
G01*
X184804500Y-88711750D02*
X184804500Y-88199250D01*
G75*
G02*
X185023250Y-87980500I218750J0D01*
G01*
X185460750Y-87980500D01*
G75*
G02*
X185679500Y-88199250I0J-218750D01*
G01*
X185679500Y-88711750D01*
G75*
G02*
X185460750Y-88930500I-218750J0D01*
G01*
X185023250Y-88930500D01*
G75*
G02*
X184804500Y-88711750I0J218750D01*
G01*
G37*
G04 #@! TD*
G04 #@! TO.C,C48*
G36*
G01*
X186125500Y-101284750D02*
X186125500Y-100772250D01*
G75*
G02*
X186344250Y-100553500I218750J0D01*
G01*
X186781750Y-100553500D01*
G75*
G02*
X187000500Y-100772250I0J-218750D01*
G01*
X187000500Y-101284750D01*
G75*
G02*
X186781750Y-101503500I-218750J0D01*
G01*
X186344250Y-101503500D01*
G75*
G02*
X186125500Y-101284750I0J218750D01*
G01*
G37*
G36*
G01*
X184550500Y-101284750D02*
X184550500Y-100772250D01*
G75*
G02*
X184769250Y-100553500I218750J0D01*
G01*
X185206750Y-100553500D01*
G75*
G02*
X185425500Y-100772250I0J-218750D01*
G01*
X185425500Y-101284750D01*
G75*
G02*
X185206750Y-101503500I-218750J0D01*
G01*
X184769250Y-101503500D01*
G75*
G02*
X184550500Y-101284750I0J218750D01*
G01*
G37*
G04 #@! TD*
G04 #@! TO.C,C47*
G36*
G01*
X176637100Y-84198750D02*
X176637100Y-84711250D01*
G75*
G02*
X176418350Y-84930000I-218750J0D01*
G01*
X175980850Y-84930000D01*
G75*
G02*
X175762100Y-84711250I0J218750D01*
G01*
X175762100Y-84198750D01*
G75*
G02*
X175980850Y-83980000I218750J0D01*
G01*
X176418350Y-83980000D01*
G75*
G02*
X176637100Y-84198750I0J-218750D01*
G01*
G37*
G36*
G01*
X178212100Y-84198750D02*
X178212100Y-84711250D01*
G75*
G02*
X177993350Y-84930000I-218750J0D01*
G01*
X177555850Y-84930000D01*
G75*
G02*
X177337100Y-84711250I0J218750D01*
G01*
X177337100Y-84198750D01*
G75*
G02*
X177555850Y-83980000I218750J0D01*
G01*
X177993350Y-83980000D01*
G75*
G02*
X178212100Y-84198750I0J-218750D01*
G01*
G37*
G04 #@! TD*
G04 #@! TO.C,C46*
G36*
G01*
X188275250Y-98622500D02*
X188787750Y-98622500D01*
G75*
G02*
X189006500Y-98841250I0J-218750D01*
G01*
X189006500Y-99278750D01*
G75*
G02*
X188787750Y-99497500I-218750J0D01*
G01*
X188275250Y-99497500D01*
G75*
G02*
X188056500Y-99278750I0J218750D01*
G01*
X188056500Y-98841250D01*
G75*
G02*
X188275250Y-98622500I218750J0D01*
G01*
G37*
G36*
G01*
X188275250Y-97047500D02*
X188787750Y-97047500D01*
G75*
G02*
X189006500Y-97266250I0J-218750D01*
G01*
X189006500Y-97703750D01*
G75*
G02*
X188787750Y-97922500I-218750J0D01*
G01*
X188275250Y-97922500D01*
G75*
G02*
X188056500Y-97703750I0J218750D01*
G01*
X188056500Y-97266250D01*
G75*
G02*
X188275250Y-97047500I218750J0D01*
G01*
G37*
G04 #@! TD*
G04 #@! TO.C,C45*
G36*
G01*
X175575250Y-101035500D02*
X176087750Y-101035500D01*
G75*
G02*
X176306500Y-101254250I0J-218750D01*
G01*
X176306500Y-101691750D01*
G75*
G02*
X176087750Y-101910500I-218750J0D01*
G01*
X175575250Y-101910500D01*
G75*
G02*
X175356500Y-101691750I0J218750D01*
G01*
X175356500Y-101254250D01*
G75*
G02*
X175575250Y-101035500I218750J0D01*
G01*
G37*
G36*
G01*
X175575250Y-99460500D02*
X176087750Y-99460500D01*
G75*
G02*
X176306500Y-99679250I0J-218750D01*
G01*
X176306500Y-100116750D01*
G75*
G02*
X176087750Y-100335500I-218750J0D01*
G01*
X175575250Y-100335500D01*
G75*
G02*
X175356500Y-100116750I0J218750D01*
G01*
X175356500Y-99679250D01*
G75*
G02*
X175575250Y-99460500I218750J0D01*
G01*
G37*
G04 #@! TD*
G04 #@! TO.C,C44*
G36*
G01*
X186252500Y-95696750D02*
X186252500Y-95184250D01*
G75*
G02*
X186471250Y-94965500I218750J0D01*
G01*
X186908750Y-94965500D01*
G75*
G02*
X187127500Y-95184250I0J-218750D01*
G01*
X187127500Y-95696750D01*
G75*
G02*
X186908750Y-95915500I-218750J0D01*
G01*
X186471250Y-95915500D01*
G75*
G02*
X186252500Y-95696750I0J218750D01*
G01*
G37*
G36*
G01*
X184677500Y-95696750D02*
X184677500Y-95184250D01*
G75*
G02*
X184896250Y-94965500I218750J0D01*
G01*
X185333750Y-94965500D01*
G75*
G02*
X185552500Y-95184250I0J-218750D01*
G01*
X185552500Y-95696750D01*
G75*
G02*
X185333750Y-95915500I-218750J0D01*
G01*
X184896250Y-95915500D01*
G75*
G02*
X184677500Y-95696750I0J218750D01*
G01*
G37*
G04 #@! TD*
G04 #@! TO.C,C43*
G36*
G01*
X164018250Y-93276000D02*
X164530750Y-93276000D01*
G75*
G02*
X164749500Y-93494750I0J-218750D01*
G01*
X164749500Y-93932250D01*
G75*
G02*
X164530750Y-94151000I-218750J0D01*
G01*
X164018250Y-94151000D01*
G75*
G02*
X163799500Y-93932250I0J218750D01*
G01*
X163799500Y-93494750D01*
G75*
G02*
X164018250Y-93276000I218750J0D01*
G01*
G37*
G36*
G01*
X164018250Y-91701000D02*
X164530750Y-91701000D01*
G75*
G02*
X164749500Y-91919750I0J-218750D01*
G01*
X164749500Y-92357250D01*
G75*
G02*
X164530750Y-92576000I-218750J0D01*
G01*
X164018250Y-92576000D01*
G75*
G02*
X163799500Y-92357250I0J218750D01*
G01*
X163799500Y-91919750D01*
G75*
G02*
X164018250Y-91701000I218750J0D01*
G01*
G37*
G04 #@! TD*
G04 #@! TO.C,C42*
G36*
G01*
X168585500Y-93406250D02*
X168585500Y-93918750D01*
G75*
G02*
X168366750Y-94137500I-218750J0D01*
G01*
X167929250Y-94137500D01*
G75*
G02*
X167710500Y-93918750I0J218750D01*
G01*
X167710500Y-93406250D01*
G75*
G02*
X167929250Y-93187500I218750J0D01*
G01*
X168366750Y-93187500D01*
G75*
G02*
X168585500Y-93406250I0J-218750D01*
G01*
G37*
G36*
G01*
X170160500Y-93406250D02*
X170160500Y-93918750D01*
G75*
G02*
X169941750Y-94137500I-218750J0D01*
G01*
X169504250Y-94137500D01*
G75*
G02*
X169285500Y-93918750I0J218750D01*
G01*
X169285500Y-93406250D01*
G75*
G02*
X169504250Y-93187500I218750J0D01*
G01*
X169941750Y-93187500D01*
G75*
G02*
X170160500Y-93406250I0J-218750D01*
G01*
G37*
G04 #@! TD*
G04 #@! TO.C,C41*
G36*
G01*
X168522000Y-91691750D02*
X168522000Y-92204250D01*
G75*
G02*
X168303250Y-92423000I-218750J0D01*
G01*
X167865750Y-92423000D01*
G75*
G02*
X167647000Y-92204250I0J218750D01*
G01*
X167647000Y-91691750D01*
G75*
G02*
X167865750Y-91473000I218750J0D01*
G01*
X168303250Y-91473000D01*
G75*
G02*
X168522000Y-91691750I0J-218750D01*
G01*
G37*
G36*
G01*
X170097000Y-91691750D02*
X170097000Y-92204250D01*
G75*
G02*
X169878250Y-92423000I-218750J0D01*
G01*
X169440750Y-92423000D01*
G75*
G02*
X169222000Y-92204250I0J218750D01*
G01*
X169222000Y-91691750D01*
G75*
G02*
X169440750Y-91473000I218750J0D01*
G01*
X169878250Y-91473000D01*
G75*
G02*
X170097000Y-91691750I0J-218750D01*
G01*
G37*
G04 #@! TD*
G04 #@! TO.C,C40*
G36*
G01*
X188084750Y-92895000D02*
X188597250Y-92895000D01*
G75*
G02*
X188816000Y-93113750I0J-218750D01*
G01*
X188816000Y-93551250D01*
G75*
G02*
X188597250Y-93770000I-218750J0D01*
G01*
X188084750Y-93770000D01*
G75*
G02*
X187866000Y-93551250I0J218750D01*
G01*
X187866000Y-93113750D01*
G75*
G02*
X188084750Y-92895000I218750J0D01*
G01*
G37*
G36*
G01*
X188084750Y-91320000D02*
X188597250Y-91320000D01*
G75*
G02*
X188816000Y-91538750I0J-218750D01*
G01*
X188816000Y-91976250D01*
G75*
G02*
X188597250Y-92195000I-218750J0D01*
G01*
X188084750Y-92195000D01*
G75*
G02*
X187866000Y-91976250I0J218750D01*
G01*
X187866000Y-91538750D01*
G75*
G02*
X188084750Y-91320000I218750J0D01*
G01*
G37*
G04 #@! TD*
G04 #@! TO.C,C39*
G36*
G01*
X183534800Y-83034850D02*
X183534800Y-82522350D01*
G75*
G02*
X183753550Y-82303600I218750J0D01*
G01*
X184191050Y-82303600D01*
G75*
G02*
X184409800Y-82522350I0J-218750D01*
G01*
X184409800Y-83034850D01*
G75*
G02*
X184191050Y-83253600I-218750J0D01*
G01*
X183753550Y-83253600D01*
G75*
G02*
X183534800Y-83034850I0J218750D01*
G01*
G37*
G36*
G01*
X181959800Y-83034850D02*
X181959800Y-82522350D01*
G75*
G02*
X182178550Y-82303600I218750J0D01*
G01*
X182616050Y-82303600D01*
G75*
G02*
X182834800Y-82522350I0J-218750D01*
G01*
X182834800Y-83034850D01*
G75*
G02*
X182616050Y-83253600I-218750J0D01*
G01*
X182178550Y-83253600D01*
G75*
G02*
X181959800Y-83034850I0J218750D01*
G01*
G37*
G04 #@! TD*
G04 #@! TO.C,C38*
G36*
G01*
X183611100Y-81256850D02*
X183611100Y-80744350D01*
G75*
G02*
X183829850Y-80525600I218750J0D01*
G01*
X184267350Y-80525600D01*
G75*
G02*
X184486100Y-80744350I0J-218750D01*
G01*
X184486100Y-81256850D01*
G75*
G02*
X184267350Y-81475600I-218750J0D01*
G01*
X183829850Y-81475600D01*
G75*
G02*
X183611100Y-81256850I0J218750D01*
G01*
G37*
G36*
G01*
X182036100Y-81256850D02*
X182036100Y-80744350D01*
G75*
G02*
X182254850Y-80525600I218750J0D01*
G01*
X182692350Y-80525600D01*
G75*
G02*
X182911100Y-80744350I0J-218750D01*
G01*
X182911100Y-81256850D01*
G75*
G02*
X182692350Y-81475600I-218750J0D01*
G01*
X182254850Y-81475600D01*
G75*
G02*
X182036100Y-81256850I0J218750D01*
G01*
G37*
G04 #@! TD*
G04 #@! TO.C,C37*
G36*
G01*
X183266500Y-77213750D02*
X183266500Y-77726250D01*
G75*
G02*
X183047750Y-77945000I-218750J0D01*
G01*
X182610250Y-77945000D01*
G75*
G02*
X182391500Y-77726250I0J218750D01*
G01*
X182391500Y-77213750D01*
G75*
G02*
X182610250Y-76995000I218750J0D01*
G01*
X183047750Y-76995000D01*
G75*
G02*
X183266500Y-77213750I0J-218750D01*
G01*
G37*
G36*
G01*
X184841500Y-77213750D02*
X184841500Y-77726250D01*
G75*
G02*
X184622750Y-77945000I-218750J0D01*
G01*
X184185250Y-77945000D01*
G75*
G02*
X183966500Y-77726250I0J218750D01*
G01*
X183966500Y-77213750D01*
G75*
G02*
X184185250Y-76995000I218750J0D01*
G01*
X184622750Y-76995000D01*
G75*
G02*
X184841500Y-77213750I0J-218750D01*
G01*
G37*
G04 #@! TD*
G04 #@! TO.C,C36*
G36*
G01*
X157256250Y-102987500D02*
X156743750Y-102987500D01*
G75*
G02*
X156525000Y-102768750I0J218750D01*
G01*
X156525000Y-102331250D01*
G75*
G02*
X156743750Y-102112500I218750J0D01*
G01*
X157256250Y-102112500D01*
G75*
G02*
X157475000Y-102331250I0J-218750D01*
G01*
X157475000Y-102768750D01*
G75*
G02*
X157256250Y-102987500I-218750J0D01*
G01*
G37*
G36*
G01*
X157256250Y-104562500D02*
X156743750Y-104562500D01*
G75*
G02*
X156525000Y-104343750I0J218750D01*
G01*
X156525000Y-103906250D01*
G75*
G02*
X156743750Y-103687500I218750J0D01*
G01*
X157256250Y-103687500D01*
G75*
G02*
X157475000Y-103906250I0J-218750D01*
G01*
X157475000Y-104343750D01*
G75*
G02*
X157256250Y-104562500I-218750J0D01*
G01*
G37*
G04 #@! TD*
G04 #@! TO.C,C35*
G36*
G01*
X155312500Y-100406250D02*
X155312500Y-99893750D01*
G75*
G02*
X155531250Y-99675000I218750J0D01*
G01*
X155968750Y-99675000D01*
G75*
G02*
X156187500Y-99893750I0J-218750D01*
G01*
X156187500Y-100406250D01*
G75*
G02*
X155968750Y-100625000I-218750J0D01*
G01*
X155531250Y-100625000D01*
G75*
G02*
X155312500Y-100406250I0J218750D01*
G01*
G37*
G36*
G01*
X153737500Y-100406250D02*
X153737500Y-99893750D01*
G75*
G02*
X153956250Y-99675000I218750J0D01*
G01*
X154393750Y-99675000D01*
G75*
G02*
X154612500Y-99893750I0J-218750D01*
G01*
X154612500Y-100406250D01*
G75*
G02*
X154393750Y-100625000I-218750J0D01*
G01*
X153956250Y-100625000D01*
G75*
G02*
X153737500Y-100406250I0J218750D01*
G01*
G37*
G04 #@! TD*
G04 #@! TO.C,C34*
G36*
G01*
X143888750Y-114040500D02*
X144401250Y-114040500D01*
G75*
G02*
X144620000Y-114259250I0J-218750D01*
G01*
X144620000Y-114696750D01*
G75*
G02*
X144401250Y-114915500I-218750J0D01*
G01*
X143888750Y-114915500D01*
G75*
G02*
X143670000Y-114696750I0J218750D01*
G01*
X143670000Y-114259250D01*
G75*
G02*
X143888750Y-114040500I218750J0D01*
G01*
G37*
G36*
G01*
X143888750Y-112465500D02*
X144401250Y-112465500D01*
G75*
G02*
X144620000Y-112684250I0J-218750D01*
G01*
X144620000Y-113121750D01*
G75*
G02*
X144401250Y-113340500I-218750J0D01*
G01*
X143888750Y-113340500D01*
G75*
G02*
X143670000Y-113121750I0J218750D01*
G01*
X143670000Y-112684250D01*
G75*
G02*
X143888750Y-112465500I218750J0D01*
G01*
G37*
G04 #@! TD*
G04 #@! TO.C,C33*
G36*
G01*
X141607250Y-99116500D02*
X141094750Y-99116500D01*
G75*
G02*
X140876000Y-98897750I0J218750D01*
G01*
X140876000Y-98460250D01*
G75*
G02*
X141094750Y-98241500I218750J0D01*
G01*
X141607250Y-98241500D01*
G75*
G02*
X141826000Y-98460250I0J-218750D01*
G01*
X141826000Y-98897750D01*
G75*
G02*
X141607250Y-99116500I-218750J0D01*
G01*
G37*
G36*
G01*
X141607250Y-100691500D02*
X141094750Y-100691500D01*
G75*
G02*
X140876000Y-100472750I0J218750D01*
G01*
X140876000Y-100035250D01*
G75*
G02*
X141094750Y-99816500I218750J0D01*
G01*
X141607250Y-99816500D01*
G75*
G02*
X141826000Y-100035250I0J-218750D01*
G01*
X141826000Y-100472750D01*
G75*
G02*
X141607250Y-100691500I-218750J0D01*
G01*
G37*
G04 #@! TD*
G04 #@! TO.C,C32*
G36*
G01*
X141856750Y-114040500D02*
X142369250Y-114040500D01*
G75*
G02*
X142588000Y-114259250I0J-218750D01*
G01*
X142588000Y-114696750D01*
G75*
G02*
X142369250Y-114915500I-218750J0D01*
G01*
X141856750Y-114915500D01*
G75*
G02*
X141638000Y-114696750I0J218750D01*
G01*
X141638000Y-114259250D01*
G75*
G02*
X141856750Y-114040500I218750J0D01*
G01*
G37*
G36*
G01*
X141856750Y-112465500D02*
X142369250Y-112465500D01*
G75*
G02*
X142588000Y-112684250I0J-218750D01*
G01*
X142588000Y-113121750D01*
G75*
G02*
X142369250Y-113340500I-218750J0D01*
G01*
X141856750Y-113340500D01*
G75*
G02*
X141638000Y-113121750I0J218750D01*
G01*
X141638000Y-112684250D01*
G75*
G02*
X141856750Y-112465500I218750J0D01*
G01*
G37*
G04 #@! TD*
G04 #@! TO.C,C31*
G36*
G01*
X151956250Y-100212500D02*
X151443750Y-100212500D01*
G75*
G02*
X151225000Y-99993750I0J218750D01*
G01*
X151225000Y-99556250D01*
G75*
G02*
X151443750Y-99337500I218750J0D01*
G01*
X151956250Y-99337500D01*
G75*
G02*
X152175000Y-99556250I0J-218750D01*
G01*
X152175000Y-99993750D01*
G75*
G02*
X151956250Y-100212500I-218750J0D01*
G01*
G37*
G36*
G01*
X151956250Y-101787500D02*
X151443750Y-101787500D01*
G75*
G02*
X151225000Y-101568750I0J218750D01*
G01*
X151225000Y-101131250D01*
G75*
G02*
X151443750Y-100912500I218750J0D01*
G01*
X151956250Y-100912500D01*
G75*
G02*
X152175000Y-101131250I0J-218750D01*
G01*
X152175000Y-101568750D01*
G75*
G02*
X151956250Y-101787500I-218750J0D01*
G01*
G37*
G04 #@! TD*
G04 #@! TO.C,C30*
G36*
G01*
X152750000Y-108968250D02*
X152750000Y-108455750D01*
G75*
G02*
X152968750Y-108237000I218750J0D01*
G01*
X153406250Y-108237000D01*
G75*
G02*
X153625000Y-108455750I0J-218750D01*
G01*
X153625000Y-108968250D01*
G75*
G02*
X153406250Y-109187000I-218750J0D01*
G01*
X152968750Y-109187000D01*
G75*
G02*
X152750000Y-108968250I0J218750D01*
G01*
G37*
G36*
G01*
X151175000Y-108968250D02*
X151175000Y-108455750D01*
G75*
G02*
X151393750Y-108237000I218750J0D01*
G01*
X151831250Y-108237000D01*
G75*
G02*
X152050000Y-108455750I0J-218750D01*
G01*
X152050000Y-108968250D01*
G75*
G02*
X151831250Y-109187000I-218750J0D01*
G01*
X151393750Y-109187000D01*
G75*
G02*
X151175000Y-108968250I0J218750D01*
G01*
G37*
G04 #@! TD*
G04 #@! TO.C,C29*
G36*
G01*
X149349750Y-114116500D02*
X149862250Y-114116500D01*
G75*
G02*
X150081000Y-114335250I0J-218750D01*
G01*
X150081000Y-114772750D01*
G75*
G02*
X149862250Y-114991500I-218750J0D01*
G01*
X149349750Y-114991500D01*
G75*
G02*
X149131000Y-114772750I0J218750D01*
G01*
X149131000Y-114335250D01*
G75*
G02*
X149349750Y-114116500I218750J0D01*
G01*
G37*
G36*
G01*
X149349750Y-112541500D02*
X149862250Y-112541500D01*
G75*
G02*
X150081000Y-112760250I0J-218750D01*
G01*
X150081000Y-113197750D01*
G75*
G02*
X149862250Y-113416500I-218750J0D01*
G01*
X149349750Y-113416500D01*
G75*
G02*
X149131000Y-113197750I0J218750D01*
G01*
X149131000Y-112760250D01*
G75*
G02*
X149349750Y-112541500I218750J0D01*
G01*
G37*
G04 #@! TD*
G04 #@! TO.C,C28*
G36*
G01*
X138181500Y-107947750D02*
X138181500Y-108460250D01*
G75*
G02*
X137962750Y-108679000I-218750J0D01*
G01*
X137525250Y-108679000D01*
G75*
G02*
X137306500Y-108460250I0J218750D01*
G01*
X137306500Y-107947750D01*
G75*
G02*
X137525250Y-107729000I218750J0D01*
G01*
X137962750Y-107729000D01*
G75*
G02*
X138181500Y-107947750I0J-218750D01*
G01*
G37*
G36*
G01*
X139756500Y-107947750D02*
X139756500Y-108460250D01*
G75*
G02*
X139537750Y-108679000I-218750J0D01*
G01*
X139100250Y-108679000D01*
G75*
G02*
X138881500Y-108460250I0J218750D01*
G01*
X138881500Y-107947750D01*
G75*
G02*
X139100250Y-107729000I218750J0D01*
G01*
X139537750Y-107729000D01*
G75*
G02*
X139756500Y-107947750I0J-218750D01*
G01*
G37*
G04 #@! TD*
G04 #@! TO.C,C27*
G36*
G01*
X138137500Y-104443750D02*
X138137500Y-104956250D01*
G75*
G02*
X137918750Y-105175000I-218750J0D01*
G01*
X137481250Y-105175000D01*
G75*
G02*
X137262500Y-104956250I0J218750D01*
G01*
X137262500Y-104443750D01*
G75*
G02*
X137481250Y-104225000I218750J0D01*
G01*
X137918750Y-104225000D01*
G75*
G02*
X138137500Y-104443750I0J-218750D01*
G01*
G37*
G36*
G01*
X139712500Y-104443750D02*
X139712500Y-104956250D01*
G75*
G02*
X139493750Y-105175000I-218750J0D01*
G01*
X139056250Y-105175000D01*
G75*
G02*
X138837500Y-104956250I0J218750D01*
G01*
X138837500Y-104443750D01*
G75*
G02*
X139056250Y-104225000I218750J0D01*
G01*
X139493750Y-104225000D01*
G75*
G02*
X139712500Y-104443750I0J-218750D01*
G01*
G37*
G04 #@! TD*
G04 #@! TO.C,C26*
G36*
G01*
X143385250Y-99116500D02*
X142872750Y-99116500D01*
G75*
G02*
X142654000Y-98897750I0J218750D01*
G01*
X142654000Y-98460250D01*
G75*
G02*
X142872750Y-98241500I218750J0D01*
G01*
X143385250Y-98241500D01*
G75*
G02*
X143604000Y-98460250I0J-218750D01*
G01*
X143604000Y-98897750D01*
G75*
G02*
X143385250Y-99116500I-218750J0D01*
G01*
G37*
G36*
G01*
X143385250Y-100691500D02*
X142872750Y-100691500D01*
G75*
G02*
X142654000Y-100472750I0J218750D01*
G01*
X142654000Y-100035250D01*
G75*
G02*
X142872750Y-99816500I218750J0D01*
G01*
X143385250Y-99816500D01*
G75*
G02*
X143604000Y-100035250I0J-218750D01*
G01*
X143604000Y-100472750D01*
G75*
G02*
X143385250Y-100691500I-218750J0D01*
G01*
G37*
G04 #@! TD*
G04 #@! TO.C,C25*
G36*
G01*
X145925250Y-99116500D02*
X145412750Y-99116500D01*
G75*
G02*
X145194000Y-98897750I0J218750D01*
G01*
X145194000Y-98460250D01*
G75*
G02*
X145412750Y-98241500I218750J0D01*
G01*
X145925250Y-98241500D01*
G75*
G02*
X146144000Y-98460250I0J-218750D01*
G01*
X146144000Y-98897750D01*
G75*
G02*
X145925250Y-99116500I-218750J0D01*
G01*
G37*
G36*
G01*
X145925250Y-100691500D02*
X145412750Y-100691500D01*
G75*
G02*
X145194000Y-100472750I0J218750D01*
G01*
X145194000Y-100035250D01*
G75*
G02*
X145412750Y-99816500I218750J0D01*
G01*
X145925250Y-99816500D01*
G75*
G02*
X146144000Y-100035250I0J-218750D01*
G01*
X146144000Y-100472750D01*
G75*
G02*
X145925250Y-100691500I-218750J0D01*
G01*
G37*
G04 #@! TD*
G04 #@! TO.C,C24*
G36*
G01*
X147556250Y-99116500D02*
X147043750Y-99116500D01*
G75*
G02*
X146825000Y-98897750I0J218750D01*
G01*
X146825000Y-98460250D01*
G75*
G02*
X147043750Y-98241500I218750J0D01*
G01*
X147556250Y-98241500D01*
G75*
G02*
X147775000Y-98460250I0J-218750D01*
G01*
X147775000Y-98897750D01*
G75*
G02*
X147556250Y-99116500I-218750J0D01*
G01*
G37*
G36*
G01*
X147556250Y-100691500D02*
X147043750Y-100691500D01*
G75*
G02*
X146825000Y-100472750I0J218750D01*
G01*
X146825000Y-100035250D01*
G75*
G02*
X147043750Y-99816500I218750J0D01*
G01*
X147556250Y-99816500D01*
G75*
G02*
X147775000Y-100035250I0J-218750D01*
G01*
X147775000Y-100472750D01*
G75*
G02*
X147556250Y-100691500I-218750J0D01*
G01*
G37*
G04 #@! TD*
G04 #@! TO.C,C23*
G36*
G01*
X152775500Y-106555250D02*
X152775500Y-106042750D01*
G75*
G02*
X152994250Y-105824000I218750J0D01*
G01*
X153431750Y-105824000D01*
G75*
G02*
X153650500Y-106042750I0J-218750D01*
G01*
X153650500Y-106555250D01*
G75*
G02*
X153431750Y-106774000I-218750J0D01*
G01*
X152994250Y-106774000D01*
G75*
G02*
X152775500Y-106555250I0J218750D01*
G01*
G37*
G36*
G01*
X151200500Y-106555250D02*
X151200500Y-106042750D01*
G75*
G02*
X151419250Y-105824000I218750J0D01*
G01*
X151856750Y-105824000D01*
G75*
G02*
X152075500Y-106042750I0J-218750D01*
G01*
X152075500Y-106555250D01*
G75*
G02*
X151856750Y-106774000I-218750J0D01*
G01*
X151419250Y-106774000D01*
G75*
G02*
X151200500Y-106555250I0J218750D01*
G01*
G37*
G04 #@! TD*
G04 #@! TO.C,C22*
G36*
G01*
X152724500Y-110746250D02*
X152724500Y-110233750D01*
G75*
G02*
X152943250Y-110015000I218750J0D01*
G01*
X153380750Y-110015000D01*
G75*
G02*
X153599500Y-110233750I0J-218750D01*
G01*
X153599500Y-110746250D01*
G75*
G02*
X153380750Y-110965000I-218750J0D01*
G01*
X152943250Y-110965000D01*
G75*
G02*
X152724500Y-110746250I0J218750D01*
G01*
G37*
G36*
G01*
X151149500Y-110746250D02*
X151149500Y-110233750D01*
G75*
G02*
X151368250Y-110015000I218750J0D01*
G01*
X151805750Y-110015000D01*
G75*
G02*
X152024500Y-110233750I0J-218750D01*
G01*
X152024500Y-110746250D01*
G75*
G02*
X151805750Y-110965000I-218750J0D01*
G01*
X151368250Y-110965000D01*
G75*
G02*
X151149500Y-110746250I0J218750D01*
G01*
G37*
G04 #@! TD*
G04 #@! TO.C,C21*
G36*
G01*
X200007800Y-109692600D02*
X197857800Y-109692600D01*
G75*
G02*
X197607800Y-109442600I0J250000D01*
G01*
X197607800Y-108692600D01*
G75*
G02*
X197857800Y-108442600I250000J0D01*
G01*
X200007800Y-108442600D01*
G75*
G02*
X200257800Y-108692600I0J-250000D01*
G01*
X200257800Y-109442600D01*
G75*
G02*
X200007800Y-109692600I-250000J0D01*
G01*
G37*
G36*
G01*
X200007800Y-112492600D02*
X197857800Y-112492600D01*
G75*
G02*
X197607800Y-112242600I0J250000D01*
G01*
X197607800Y-111492600D01*
G75*
G02*
X197857800Y-111242600I250000J0D01*
G01*
X200007800Y-111242600D01*
G75*
G02*
X200257800Y-111492600I0J-250000D01*
G01*
X200257800Y-112242600D01*
G75*
G02*
X200007800Y-112492600I-250000J0D01*
G01*
G37*
G04 #@! TD*
G04 #@! TO.C,C20*
G36*
G01*
X200007800Y-114388600D02*
X197857800Y-114388600D01*
G75*
G02*
X197607800Y-114138600I0J250000D01*
G01*
X197607800Y-113388600D01*
G75*
G02*
X197857800Y-113138600I250000J0D01*
G01*
X200007800Y-113138600D01*
G75*
G02*
X200257800Y-113388600I0J-250000D01*
G01*
X200257800Y-114138600D01*
G75*
G02*
X200007800Y-114388600I-250000J0D01*
G01*
G37*
G36*
G01*
X200007800Y-117188600D02*
X197857800Y-117188600D01*
G75*
G02*
X197607800Y-116938600I0J250000D01*
G01*
X197607800Y-116188600D01*
G75*
G02*
X197857800Y-115938600I250000J0D01*
G01*
X200007800Y-115938600D01*
G75*
G02*
X200257800Y-116188600I0J-250000D01*
G01*
X200257800Y-116938600D01*
G75*
G02*
X200007800Y-117188600I-250000J0D01*
G01*
G37*
G04 #@! TD*
G04 #@! TO.C,C19*
G36*
G01*
X192585050Y-112553100D02*
X192072550Y-112553100D01*
G75*
G02*
X191853800Y-112334350I0J218750D01*
G01*
X191853800Y-111896850D01*
G75*
G02*
X192072550Y-111678100I218750J0D01*
G01*
X192585050Y-111678100D01*
G75*
G02*
X192803800Y-111896850I0J-218750D01*
G01*
X192803800Y-112334350D01*
G75*
G02*
X192585050Y-112553100I-218750J0D01*
G01*
G37*
G36*
G01*
X192585050Y-114128100D02*
X192072550Y-114128100D01*
G75*
G02*
X191853800Y-113909350I0J218750D01*
G01*
X191853800Y-113471850D01*
G75*
G02*
X192072550Y-113253100I218750J0D01*
G01*
X192585050Y-113253100D01*
G75*
G02*
X192803800Y-113471850I0J-218750D01*
G01*
X192803800Y-113909350D01*
G75*
G02*
X192585050Y-114128100I-218750J0D01*
G01*
G37*
G04 #@! TD*
G04 #@! TO.C,C18*
G36*
G01*
X192585050Y-109251100D02*
X192072550Y-109251100D01*
G75*
G02*
X191853800Y-109032350I0J218750D01*
G01*
X191853800Y-108594850D01*
G75*
G02*
X192072550Y-108376100I218750J0D01*
G01*
X192585050Y-108376100D01*
G75*
G02*
X192803800Y-108594850I0J-218750D01*
G01*
X192803800Y-109032350D01*
G75*
G02*
X192585050Y-109251100I-218750J0D01*
G01*
G37*
G36*
G01*
X192585050Y-110826100D02*
X192072550Y-110826100D01*
G75*
G02*
X191853800Y-110607350I0J218750D01*
G01*
X191853800Y-110169850D01*
G75*
G02*
X192072550Y-109951100I218750J0D01*
G01*
X192585050Y-109951100D01*
G75*
G02*
X192803800Y-110169850I0J-218750D01*
G01*
X192803800Y-110607350D01*
G75*
G02*
X192585050Y-110826100I-218750J0D01*
G01*
G37*
G04 #@! TD*
G04 #@! TO.C,C17*
G36*
G01*
X111643750Y-93062500D02*
X112156250Y-93062500D01*
G75*
G02*
X112375000Y-93281250I0J-218750D01*
G01*
X112375000Y-93718750D01*
G75*
G02*
X112156250Y-93937500I-218750J0D01*
G01*
X111643750Y-93937500D01*
G75*
G02*
X111425000Y-93718750I0J218750D01*
G01*
X111425000Y-93281250D01*
G75*
G02*
X111643750Y-93062500I218750J0D01*
G01*
G37*
G36*
G01*
X111643750Y-91487500D02*
X112156250Y-91487500D01*
G75*
G02*
X112375000Y-91706250I0J-218750D01*
G01*
X112375000Y-92143750D01*
G75*
G02*
X112156250Y-92362500I-218750J0D01*
G01*
X111643750Y-92362500D01*
G75*
G02*
X111425000Y-92143750I0J218750D01*
G01*
X111425000Y-91706250D01*
G75*
G02*
X111643750Y-91487500I218750J0D01*
G01*
G37*
G04 #@! TD*
G04 #@! TO.C,C15*
G36*
G01*
X109943750Y-93062500D02*
X110456250Y-93062500D01*
G75*
G02*
X110675000Y-93281250I0J-218750D01*
G01*
X110675000Y-93718750D01*
G75*
G02*
X110456250Y-93937500I-218750J0D01*
G01*
X109943750Y-93937500D01*
G75*
G02*
X109725000Y-93718750I0J218750D01*
G01*
X109725000Y-93281250D01*
G75*
G02*
X109943750Y-93062500I218750J0D01*
G01*
G37*
G36*
G01*
X109943750Y-91487500D02*
X110456250Y-91487500D01*
G75*
G02*
X110675000Y-91706250I0J-218750D01*
G01*
X110675000Y-92143750D01*
G75*
G02*
X110456250Y-92362500I-218750J0D01*
G01*
X109943750Y-92362500D01*
G75*
G02*
X109725000Y-92143750I0J218750D01*
G01*
X109725000Y-91706250D01*
G75*
G02*
X109943750Y-91487500I218750J0D01*
G01*
G37*
G04 #@! TD*
G04 #@! TO.C,C14*
G36*
G01*
X150368750Y-79312500D02*
X150881250Y-79312500D01*
G75*
G02*
X151100000Y-79531250I0J-218750D01*
G01*
X151100000Y-79968750D01*
G75*
G02*
X150881250Y-80187500I-218750J0D01*
G01*
X150368750Y-80187500D01*
G75*
G02*
X150150000Y-79968750I0J218750D01*
G01*
X150150000Y-79531250D01*
G75*
G02*
X150368750Y-79312500I218750J0D01*
G01*
G37*
G36*
G01*
X150368750Y-77737500D02*
X150881250Y-77737500D01*
G75*
G02*
X151100000Y-77956250I0J-218750D01*
G01*
X151100000Y-78393750D01*
G75*
G02*
X150881250Y-78612500I-218750J0D01*
G01*
X150368750Y-78612500D01*
G75*
G02*
X150150000Y-78393750I0J218750D01*
G01*
X150150000Y-77956250D01*
G75*
G02*
X150368750Y-77737500I218750J0D01*
G01*
G37*
G04 #@! TD*
G04 #@! TO.C,C13*
G36*
G01*
X125487500Y-86106250D02*
X125487500Y-85593750D01*
G75*
G02*
X125706250Y-85375000I218750J0D01*
G01*
X126143750Y-85375000D01*
G75*
G02*
X126362500Y-85593750I0J-218750D01*
G01*
X126362500Y-86106250D01*
G75*
G02*
X126143750Y-86325000I-218750J0D01*
G01*
X125706250Y-86325000D01*
G75*
G02*
X125487500Y-86106250I0J218750D01*
G01*
G37*
G36*
G01*
X123912500Y-86106250D02*
X123912500Y-85593750D01*
G75*
G02*
X124131250Y-85375000I218750J0D01*
G01*
X124568750Y-85375000D01*
G75*
G02*
X124787500Y-85593750I0J-218750D01*
G01*
X124787500Y-86106250D01*
G75*
G02*
X124568750Y-86325000I-218750J0D01*
G01*
X124131250Y-86325000D01*
G75*
G02*
X123912500Y-86106250I0J218750D01*
G01*
G37*
G04 #@! TD*
G04 #@! TO.C,C12*
G36*
G01*
X152662500Y-89543750D02*
X152662500Y-90056250D01*
G75*
G02*
X152443750Y-90275000I-218750J0D01*
G01*
X152006250Y-90275000D01*
G75*
G02*
X151787500Y-90056250I0J218750D01*
G01*
X151787500Y-89543750D01*
G75*
G02*
X152006250Y-89325000I218750J0D01*
G01*
X152443750Y-89325000D01*
G75*
G02*
X152662500Y-89543750I0J-218750D01*
G01*
G37*
G36*
G01*
X154237500Y-89543750D02*
X154237500Y-90056250D01*
G75*
G02*
X154018750Y-90275000I-218750J0D01*
G01*
X153581250Y-90275000D01*
G75*
G02*
X153362500Y-90056250I0J218750D01*
G01*
X153362500Y-89543750D01*
G75*
G02*
X153581250Y-89325000I218750J0D01*
G01*
X154018750Y-89325000D01*
G75*
G02*
X154237500Y-89543750I0J-218750D01*
G01*
G37*
G04 #@! TD*
G04 #@! TO.C,C11*
G36*
G01*
X125487500Y-84106250D02*
X125487500Y-83593750D01*
G75*
G02*
X125706250Y-83375000I218750J0D01*
G01*
X126143750Y-83375000D01*
G75*
G02*
X126362500Y-83593750I0J-218750D01*
G01*
X126362500Y-84106250D01*
G75*
G02*
X126143750Y-84325000I-218750J0D01*
G01*
X125706250Y-84325000D01*
G75*
G02*
X125487500Y-84106250I0J218750D01*
G01*
G37*
G36*
G01*
X123912500Y-84106250D02*
X123912500Y-83593750D01*
G75*
G02*
X124131250Y-83375000I218750J0D01*
G01*
X124568750Y-83375000D01*
G75*
G02*
X124787500Y-83593750I0J-218750D01*
G01*
X124787500Y-84106250D01*
G75*
G02*
X124568750Y-84325000I-218750J0D01*
G01*
X124131250Y-84325000D01*
G75*
G02*
X123912500Y-84106250I0J218750D01*
G01*
G37*
G04 #@! TD*
G04 #@! TO.C,C10*
G36*
G01*
X152662500Y-91543750D02*
X152662500Y-92056250D01*
G75*
G02*
X152443750Y-92275000I-218750J0D01*
G01*
X152006250Y-92275000D01*
G75*
G02*
X151787500Y-92056250I0J218750D01*
G01*
X151787500Y-91543750D01*
G75*
G02*
X152006250Y-91325000I218750J0D01*
G01*
X152443750Y-91325000D01*
G75*
G02*
X152662500Y-91543750I0J-218750D01*
G01*
G37*
G36*
G01*
X154237500Y-91543750D02*
X154237500Y-92056250D01*
G75*
G02*
X154018750Y-92275000I-218750J0D01*
G01*
X153581250Y-92275000D01*
G75*
G02*
X153362500Y-92056250I0J218750D01*
G01*
X153362500Y-91543750D01*
G75*
G02*
X153581250Y-91325000I218750J0D01*
G01*
X154018750Y-91325000D01*
G75*
G02*
X154237500Y-91543750I0J-218750D01*
G01*
G37*
G04 #@! TD*
G04 #@! TO.C,C9*
G36*
G01*
X143162500Y-84356250D02*
X143162500Y-83843750D01*
G75*
G02*
X143381250Y-83625000I218750J0D01*
G01*
X143818750Y-83625000D01*
G75*
G02*
X144037500Y-83843750I0J-218750D01*
G01*
X144037500Y-84356250D01*
G75*
G02*
X143818750Y-84575000I-218750J0D01*
G01*
X143381250Y-84575000D01*
G75*
G02*
X143162500Y-84356250I0J218750D01*
G01*
G37*
G36*
G01*
X141587500Y-84356250D02*
X141587500Y-83843750D01*
G75*
G02*
X141806250Y-83625000I218750J0D01*
G01*
X142243750Y-83625000D01*
G75*
G02*
X142462500Y-83843750I0J-218750D01*
G01*
X142462500Y-84356250D01*
G75*
G02*
X142243750Y-84575000I-218750J0D01*
G01*
X141806250Y-84575000D01*
G75*
G02*
X141587500Y-84356250I0J218750D01*
G01*
G37*
G04 #@! TD*
G04 #@! TO.C,C8*
G36*
G01*
X143137500Y-86056250D02*
X143137500Y-85543750D01*
G75*
G02*
X143356250Y-85325000I218750J0D01*
G01*
X143793750Y-85325000D01*
G75*
G02*
X144012500Y-85543750I0J-218750D01*
G01*
X144012500Y-86056250D01*
G75*
G02*
X143793750Y-86275000I-218750J0D01*
G01*
X143356250Y-86275000D01*
G75*
G02*
X143137500Y-86056250I0J218750D01*
G01*
G37*
G36*
G01*
X141562500Y-86056250D02*
X141562500Y-85543750D01*
G75*
G02*
X141781250Y-85325000I218750J0D01*
G01*
X142218750Y-85325000D01*
G75*
G02*
X142437500Y-85543750I0J-218750D01*
G01*
X142437500Y-86056250D01*
G75*
G02*
X142218750Y-86275000I-218750J0D01*
G01*
X141781250Y-86275000D01*
G75*
G02*
X141562500Y-86056250I0J218750D01*
G01*
G37*
G04 #@! TD*
G04 #@! TO.C,C7*
G36*
G01*
X134806250Y-97612500D02*
X134293750Y-97612500D01*
G75*
G02*
X134075000Y-97393750I0J218750D01*
G01*
X134075000Y-96956250D01*
G75*
G02*
X134293750Y-96737500I218750J0D01*
G01*
X134806250Y-96737500D01*
G75*
G02*
X135025000Y-96956250I0J-218750D01*
G01*
X135025000Y-97393750D01*
G75*
G02*
X134806250Y-97612500I-218750J0D01*
G01*
G37*
G36*
G01*
X134806250Y-99187500D02*
X134293750Y-99187500D01*
G75*
G02*
X134075000Y-98968750I0J218750D01*
G01*
X134075000Y-98531250D01*
G75*
G02*
X134293750Y-98312500I218750J0D01*
G01*
X134806250Y-98312500D01*
G75*
G02*
X135025000Y-98531250I0J-218750D01*
G01*
X135025000Y-98968750D01*
G75*
G02*
X134806250Y-99187500I-218750J0D01*
G01*
G37*
G04 #@! TD*
G04 #@! TO.C,C6*
G36*
G01*
X136431250Y-97612500D02*
X135918750Y-97612500D01*
G75*
G02*
X135700000Y-97393750I0J218750D01*
G01*
X135700000Y-96956250D01*
G75*
G02*
X135918750Y-96737500I218750J0D01*
G01*
X136431250Y-96737500D01*
G75*
G02*
X136650000Y-96956250I0J-218750D01*
G01*
X136650000Y-97393750D01*
G75*
G02*
X136431250Y-97612500I-218750J0D01*
G01*
G37*
G36*
G01*
X136431250Y-99187500D02*
X135918750Y-99187500D01*
G75*
G02*
X135700000Y-98968750I0J218750D01*
G01*
X135700000Y-98531250D01*
G75*
G02*
X135918750Y-98312500I218750J0D01*
G01*
X136431250Y-98312500D01*
G75*
G02*
X136650000Y-98531250I0J-218750D01*
G01*
X136650000Y-98968750D01*
G75*
G02*
X136431250Y-99187500I-218750J0D01*
G01*
G37*
G04 #@! TD*
G04 #@! TO.C,C5*
G36*
G01*
X158343750Y-110837500D02*
X158856250Y-110837500D01*
G75*
G02*
X159075000Y-111056250I0J-218750D01*
G01*
X159075000Y-111493750D01*
G75*
G02*
X158856250Y-111712500I-218750J0D01*
G01*
X158343750Y-111712500D01*
G75*
G02*
X158125000Y-111493750I0J218750D01*
G01*
X158125000Y-111056250D01*
G75*
G02*
X158343750Y-110837500I218750J0D01*
G01*
G37*
G36*
G01*
X158343750Y-112412500D02*
X158856250Y-112412500D01*
G75*
G02*
X159075000Y-112631250I0J-218750D01*
G01*
X159075000Y-113068750D01*
G75*
G02*
X158856250Y-113287500I-218750J0D01*
G01*
X158343750Y-113287500D01*
G75*
G02*
X158125000Y-113068750I0J218750D01*
G01*
X158125000Y-112631250D01*
G75*
G02*
X158343750Y-112412500I218750J0D01*
G01*
G37*
G04 #@! TD*
G04 #@! TO.C,C4*
G36*
G01*
X164162500Y-110706250D02*
X164162500Y-110193750D01*
G75*
G02*
X164381250Y-109975000I218750J0D01*
G01*
X164818750Y-109975000D01*
G75*
G02*
X165037500Y-110193750I0J-218750D01*
G01*
X165037500Y-110706250D01*
G75*
G02*
X164818750Y-110925000I-218750J0D01*
G01*
X164381250Y-110925000D01*
G75*
G02*
X164162500Y-110706250I0J218750D01*
G01*
G37*
G36*
G01*
X165737500Y-110706250D02*
X165737500Y-110193750D01*
G75*
G02*
X165956250Y-109975000I218750J0D01*
G01*
X166393750Y-109975000D01*
G75*
G02*
X166612500Y-110193750I0J-218750D01*
G01*
X166612500Y-110706250D01*
G75*
G02*
X166393750Y-110925000I-218750J0D01*
G01*
X165956250Y-110925000D01*
G75*
G02*
X165737500Y-110706250I0J218750D01*
G01*
G37*
G04 #@! TD*
G04 #@! TO.C,C3*
G36*
G01*
X159918750Y-110837500D02*
X160431250Y-110837500D01*
G75*
G02*
X160650000Y-111056250I0J-218750D01*
G01*
X160650000Y-111493750D01*
G75*
G02*
X160431250Y-111712500I-218750J0D01*
G01*
X159918750Y-111712500D01*
G75*
G02*
X159700000Y-111493750I0J218750D01*
G01*
X159700000Y-111056250D01*
G75*
G02*
X159918750Y-110837500I218750J0D01*
G01*
G37*
G36*
G01*
X159918750Y-112412500D02*
X160431250Y-112412500D01*
G75*
G02*
X160650000Y-112631250I0J-218750D01*
G01*
X160650000Y-113068750D01*
G75*
G02*
X160431250Y-113287500I-218750J0D01*
G01*
X159918750Y-113287500D01*
G75*
G02*
X159700000Y-113068750I0J218750D01*
G01*
X159700000Y-112631250D01*
G75*
G02*
X159918750Y-112412500I218750J0D01*
G01*
G37*
G04 #@! TD*
G04 #@! TO.C,C2*
G36*
G01*
X168293750Y-110987500D02*
X168806250Y-110987500D01*
G75*
G02*
X169025000Y-111206250I0J-218750D01*
G01*
X169025000Y-111643750D01*
G75*
G02*
X168806250Y-111862500I-218750J0D01*
G01*
X168293750Y-111862500D01*
G75*
G02*
X168075000Y-111643750I0J218750D01*
G01*
X168075000Y-111206250D01*
G75*
G02*
X168293750Y-110987500I218750J0D01*
G01*
G37*
G36*
G01*
X168293750Y-112562500D02*
X168806250Y-112562500D01*
G75*
G02*
X169025000Y-112781250I0J-218750D01*
G01*
X169025000Y-113218750D01*
G75*
G02*
X168806250Y-113437500I-218750J0D01*
G01*
X168293750Y-113437500D01*
G75*
G02*
X168075000Y-113218750I0J218750D01*
G01*
X168075000Y-112781250D01*
G75*
G02*
X168293750Y-112562500I218750J0D01*
G01*
G37*
G04 #@! TD*
G04 #@! TO.C,C1*
G36*
G01*
X171468750Y-110987500D02*
X171981250Y-110987500D01*
G75*
G02*
X172200000Y-111206250I0J-218750D01*
G01*
X172200000Y-111643750D01*
G75*
G02*
X171981250Y-111862500I-218750J0D01*
G01*
X171468750Y-111862500D01*
G75*
G02*
X171250000Y-111643750I0J218750D01*
G01*
X171250000Y-111206250D01*
G75*
G02*
X171468750Y-110987500I218750J0D01*
G01*
G37*
G36*
G01*
X171468750Y-112562500D02*
X171981250Y-112562500D01*
G75*
G02*
X172200000Y-112781250I0J-218750D01*
G01*
X172200000Y-113218750D01*
G75*
G02*
X171981250Y-113437500I-218750J0D01*
G01*
X171468750Y-113437500D01*
G75*
G02*
X171250000Y-113218750I0J218750D01*
G01*
X171250000Y-112781250D01*
G75*
G02*
X171468750Y-112562500I218750J0D01*
G01*
G37*
G04 #@! TD*
M02*
