<?xml version="1.0" encoding="UTF-8" standalone="no"?>
<svg width="1000" height="1000" viewBox="-100 -100 200 200" xmlns="http://www.w3.org/2000/svg">
    <circle cx="0" cy="0" r="10" stroke="black" stroke-width="2" style="fill:white" />
    <circle cx="0" cy="0" r="40" stroke="black" stroke-width="2" style="fill-opacity:0;fill:white"/>


    <circle cx="0" cy="0" r="80" stroke="black" stroke-width="1" style="fill-opacity:0;fill:white"/>

    <path d="M 40 0
            A 45 45 0 0 1 7.07 7.07
            A 10 10 0 0 0 10 0
            A 45 45 0 0 0 28.28 -28.28
            A 40 40 0 0 1 40 0"
            stroke="black" fill="green" stroke-width="1" fill-opacity="0.5"/>
    <path d="M 28.28 -28.28
            A 45 45 0 0 1 10 0
            A 10 10 0 0 0 7.07 -7.07
            A 45 45 0 0 0 0 -40
            A 40 40 0 0 1 28.28 -28.28"
            stroke="black" fill="green" stroke-width="1" fill-opacity="0.5"/>

<!--  <path d="M 10 315
           L 110 215
           A 36 60 0 0 1 150.71 170.29
           L 172.55 152.45
           A 30 50 -45 0 1 215.1 109.9
           L 315 10" stroke="black" fill="green" stroke-width="2" fill-opacity="0.5"/>
 --><!--     <circle cx="450" cy="250" r="220" stroke="black" stroke-width="1" style="fill-opacity:0;fill:white"/>
    <circle cx="50" cy="250" r="220" stroke="black" stroke-width="1" style="fill-opacity:0;fill:white"/>
 -->
</svg>